<mxfile>
    <diagram id="Ot5HO9CjXfwoOr8WqIJ5" name="Page-1">
        <mxGraphModel dx="1114" dy="500" grid="1" gridSize="10" guides="1" tooltips="1" connect="1" arrows="1" fold="1" page="1" pageScale="1" pageWidth="850" pageHeight="1100" math="0" shadow="0">
            <root>
                <mxCell id="0"/>
                <mxCell id="1" parent="0"/>
                <mxCell id="5" value="User" style="rounded=0;whiteSpace=wrap;html=1;aspect=fixed;" parent="1" vertex="1">
                    <mxGeometry x="140" y="80" width="120" height="30" as="geometry"/>
                </mxCell>
                <mxCell id="7" value="Customer" style="rounded=0;whiteSpace=wrap;html=1;" parent="1" vertex="1">
                    <mxGeometry x="530" y="80" width="120" height="30" as="geometry"/>
                </mxCell>
                <mxCell id="8" value="is" style="rhombus;whiteSpace=wrap;html=1;" parent="1" vertex="1">
                    <mxGeometry x="360" y="60" width="80" height="80" as="geometry"/>
                </mxCell>
                <mxCell id="9" value="" style="endArrow=none;html=1;entryX=0;entryY=0.5;entryDx=0;entryDy=0;exitX=1;exitY=0.75;exitDx=0;exitDy=0;" parent="1" source="5" target="8" edge="1">
                    <mxGeometry width="50" height="50" relative="1" as="geometry">
                        <mxPoint x="260" y="120" as="sourcePoint"/>
                        <mxPoint x="310" y="70" as="targetPoint"/>
                    </mxGeometry>
                </mxCell>
                <mxCell id="10" value="" style="endArrow=none;html=1;exitX=1;exitY=0.5;exitDx=0;exitDy=0;" parent="1" source="8" edge="1">
                    <mxGeometry width="50" height="50" relative="1" as="geometry">
                        <mxPoint x="430" y="100" as="sourcePoint"/>
                        <mxPoint x="530" y="100" as="targetPoint"/>
                    </mxGeometry>
                </mxCell>
                <mxCell id="11" value="Add Product" style="rhombus;whiteSpace=wrap;html=1;" parent="1" vertex="1">
                    <mxGeometry x="160" y="170" width="80" height="80" as="geometry"/>
                </mxCell>
                <mxCell id="12" value="" style="endArrow=none;html=1;entryX=0.5;entryY=1;entryDx=0;entryDy=0;exitX=0.5;exitY=0;exitDx=0;exitDy=0;" parent="1" source="11" target="5" edge="1">
                    <mxGeometry width="50" height="50" relative="1" as="geometry">
                        <mxPoint x="180" y="220" as="sourcePoint"/>
                        <mxPoint x="230" y="170" as="targetPoint"/>
                    </mxGeometry>
                </mxCell>
                <mxCell id="13" value="Product" style="rounded=0;whiteSpace=wrap;html=1;" parent="1" vertex="1">
                    <mxGeometry x="140" y="350" width="120" height="30" as="geometry"/>
                </mxCell>
                <mxCell id="14" value="" style="endArrow=none;html=1;entryX=0.5;entryY=1;entryDx=0;entryDy=0;exitX=0.5;exitY=0;exitDx=0;exitDy=0;" parent="1" source="13" target="11" edge="1">
                    <mxGeometry width="50" height="50" relative="1" as="geometry">
                        <mxPoint x="180" y="350" as="sourcePoint"/>
                        <mxPoint x="230" y="300" as="targetPoint"/>
                    </mxGeometry>
                </mxCell>
                <mxCell id="15" value="add Items" style="rhombus;whiteSpace=wrap;html=1;" parent="1" vertex="1">
                    <mxGeometry x="740" y="55" width="80" height="80" as="geometry"/>
                </mxCell>
                <mxCell id="16" value="" style="endArrow=none;html=1;entryX=0;entryY=0.5;entryDx=0;entryDy=0;exitX=1;exitY=0.5;exitDx=0;exitDy=0;" parent="1" source="7" target="15" edge="1">
                    <mxGeometry width="50" height="50" relative="1" as="geometry">
                        <mxPoint x="670" y="120" as="sourcePoint"/>
                        <mxPoint x="720" y="70" as="targetPoint"/>
                    </mxGeometry>
                </mxCell>
                <mxCell id="17" value="&amp;nbsp;Cart" style="rounded=0;whiteSpace=wrap;html=1;" parent="1" vertex="1">
                    <mxGeometry x="720" y="190" width="120" height="30" as="geometry"/>
                </mxCell>
                <mxCell id="18" value="" style="endArrow=none;html=1;exitX=0.5;exitY=0;exitDx=0;exitDy=0;entryX=0.5;entryY=1;entryDx=0;entryDy=0;" parent="1" source="17" target="15" edge="1">
                    <mxGeometry width="50" height="50" relative="1" as="geometry">
                        <mxPoint x="760" y="180" as="sourcePoint"/>
                        <mxPoint x="810" y="130" as="targetPoint"/>
                    </mxGeometry>
                </mxCell>
                <mxCell id="19" value="view" style="rhombus;whiteSpace=wrap;html=1;" parent="1" vertex="1">
                    <mxGeometry x="500" y="150" width="80" height="80" as="geometry"/>
                </mxCell>
                <mxCell id="20" value="" style="endArrow=none;html=1;exitX=0.5;exitY=0;exitDx=0;exitDy=0;entryX=0.083;entryY=1.1;entryDx=0;entryDy=0;entryPerimeter=0;" parent="1" source="19" target="7" edge="1">
                    <mxGeometry width="50" height="50" relative="1" as="geometry">
                        <mxPoint x="570" y="150" as="sourcePoint"/>
                        <mxPoint x="620" y="100" as="targetPoint"/>
                    </mxGeometry>
                </mxCell>
                <mxCell id="21" value="title&amp;nbsp;" style="ellipse;whiteSpace=wrap;html=1;" parent="1" vertex="1">
                    <mxGeometry x="10" y="340" width="100" height="40" as="geometry"/>
                </mxCell>
                <mxCell id="22" value="image" style="ellipse;whiteSpace=wrap;html=1;" parent="1" vertex="1">
                    <mxGeometry x="20" y="400" width="100" height="40" as="geometry"/>
                </mxCell>
                <mxCell id="23" value="Descripition" style="ellipse;whiteSpace=wrap;html=1;" parent="1" vertex="1">
                    <mxGeometry x="150" y="410" width="100" height="40" as="geometry"/>
                </mxCell>
                <mxCell id="24" value="Price" style="ellipse;whiteSpace=wrap;html=1;" parent="1" vertex="1">
                    <mxGeometry x="280" y="400" width="100" height="40" as="geometry"/>
                </mxCell>
                <mxCell id="25" value="Brand" style="ellipse;whiteSpace=wrap;html=1;" parent="1" vertex="1">
                    <mxGeometry x="290" y="340" width="100" height="40" as="geometry"/>
                </mxCell>
                <mxCell id="26" value="Has" style="rhombus;whiteSpace=wrap;html=1;" parent="1" vertex="1">
                    <mxGeometry x="740" y="270" width="80" height="80" as="geometry"/>
                </mxCell>
                <mxCell id="27" value="" style="endArrow=none;html=1;exitX=0.5;exitY=0;exitDx=0;exitDy=0;entryX=0.5;entryY=1;entryDx=0;entryDy=0;" parent="1" source="26" target="17" edge="1">
                    <mxGeometry width="50" height="50" relative="1" as="geometry">
                        <mxPoint x="750" y="270" as="sourcePoint"/>
                        <mxPoint x="770" y="240" as="targetPoint"/>
                    </mxGeometry>
                </mxCell>
                <mxCell id="28" value="Order Place" style="rounded=0;whiteSpace=wrap;html=1;" parent="1" vertex="1">
                    <mxGeometry x="720" y="370" width="120" height="30" as="geometry"/>
                </mxCell>
                <mxCell id="29" value="" style="endArrow=none;html=1;exitX=1;exitY=0.5;exitDx=0;exitDy=0;entryX=0;entryY=0.25;entryDx=0;entryDy=0;" parent="1" source="21" target="13" edge="1">
                    <mxGeometry width="50" height="50" relative="1" as="geometry">
                        <mxPoint x="120" y="360" as="sourcePoint"/>
                        <mxPoint x="170" y="310" as="targetPoint"/>
                    </mxGeometry>
                </mxCell>
                <mxCell id="30" value="" style="endArrow=none;html=1;exitX=1;exitY=0.5;exitDx=0;exitDy=0;" parent="1" source="22" edge="1">
                    <mxGeometry width="50" height="50" relative="1" as="geometry">
                        <mxPoint x="110" y="410" as="sourcePoint"/>
                        <mxPoint x="140" y="370" as="targetPoint"/>
                    </mxGeometry>
                </mxCell>
                <mxCell id="31" value="" style="endArrow=none;html=1;exitX=0.5;exitY=0;exitDx=0;exitDy=0;entryX=0.5;entryY=1;entryDx=0;entryDy=0;" parent="1" source="23" target="13" edge="1">
                    <mxGeometry width="50" height="50" relative="1" as="geometry">
                        <mxPoint x="170" y="430" as="sourcePoint"/>
                        <mxPoint x="220" y="380" as="targetPoint"/>
                    </mxGeometry>
                </mxCell>
                <mxCell id="32" value="" style="endArrow=none;html=1;entryX=0;entryY=1;entryDx=0;entryDy=0;exitX=1;exitY=0;exitDx=0;exitDy=0;" parent="1" source="13" target="25" edge="1">
                    <mxGeometry width="50" height="50" relative="1" as="geometry">
                        <mxPoint x="250" y="400" as="sourcePoint"/>
                        <mxPoint x="300" y="350" as="targetPoint"/>
                    </mxGeometry>
                </mxCell>
                <mxCell id="33" value="" style="endArrow=none;html=1;entryX=1;entryY=0.5;entryDx=0;entryDy=0;exitX=0;exitY=0.5;exitDx=0;exitDy=0;" parent="1" source="24" target="13" edge="1">
                    <mxGeometry width="50" height="50" relative="1" as="geometry">
                        <mxPoint x="250" y="430" as="sourcePoint"/>
                        <mxPoint x="300" y="380" as="targetPoint"/>
                    </mxGeometry>
                </mxCell>
                <mxCell id="34" value="" style="endArrow=none;html=1;entryX=0.5;entryY=1;entryDx=0;entryDy=0;exitX=0.5;exitY=0;exitDx=0;exitDy=0;" parent="1" source="28" target="26" edge="1">
                    <mxGeometry width="50" height="50" relative="1" as="geometry">
                        <mxPoint x="760" y="380" as="sourcePoint"/>
                        <mxPoint x="810" y="330" as="targetPoint"/>
                    </mxGeometry>
                </mxCell>
                <mxCell id="38" value="" style="endArrow=none;html=1;entryX=0;entryY=0.5;entryDx=0;entryDy=0;" parent="1" edge="1" target="39">
                    <mxGeometry width="50" height="50" relative="1" as="geometry">
                        <mxPoint x="210" y="350" as="sourcePoint"/>
                        <mxPoint x="600" y="290" as="targetPoint"/>
                    </mxGeometry>
                </mxCell>
                <mxCell id="39" value="Has" style="rhombus;whiteSpace=wrap;html=1;" parent="1" vertex="1">
                    <mxGeometry x="570" y="230" width="80" height="80" as="geometry"/>
                </mxCell>
                <mxCell id="40" value="" style="endArrow=none;html=1;entryX=0.5;entryY=1;entryDx=0;entryDy=0;" parent="1" target="19" edge="1">
                    <mxGeometry width="50" height="50" relative="1" as="geometry">
                        <mxPoint x="540" y="270" as="sourcePoint"/>
                        <mxPoint x="610" y="220" as="targetPoint"/>
                    </mxGeometry>
                </mxCell>
                <mxCell id="41" value="" style="endArrow=none;html=1;entryX=1;entryY=0.5;entryDx=0;entryDy=0;" parent="1" source="17" target="39" edge="1">
                    <mxGeometry width="50" height="50" relative="1" as="geometry">
                        <mxPoint x="649.2893218813452" y="255" as="sourcePoint"/>
                        <mxPoint x="649.2893218813452" y="205" as="targetPoint"/>
                    </mxGeometry>
                </mxCell>
                <mxCell id="45" value="Address" style="ellipse;whiteSpace=wrap;html=1;" parent="1" vertex="1">
                    <mxGeometry x="520" width="100" height="40" as="geometry"/>
                </mxCell>
                <mxCell id="46" value="Name" style="ellipse;whiteSpace=wrap;html=1;" parent="1" vertex="1">
                    <mxGeometry x="620" width="100" height="40" as="geometry"/>
                </mxCell>
                <mxCell id="47" value="Quntity" style="ellipse;whiteSpace=wrap;html=1;" parent="1" vertex="1">
                    <mxGeometry x="580" y="150" width="100" height="40" as="geometry"/>
                </mxCell>
                <mxCell id="48" value="" style="endArrow=none;html=1;entryX=0;entryY=0;entryDx=0;entryDy=0;exitX=1;exitY=0.5;exitDx=0;exitDy=0;" parent="1" source="47" target="17" edge="1">
                    <mxGeometry width="50" height="50" relative="1" as="geometry">
                        <mxPoint x="680" y="210" as="sourcePoint"/>
                        <mxPoint x="730" y="160" as="targetPoint"/>
                    </mxGeometry>
                </mxCell>
                <mxCell id="50" value="" style="endArrow=none;html=1;exitX=0.25;exitY=0;exitDx=0;exitDy=0;entryX=0.5;entryY=1;entryDx=0;entryDy=0;" parent="1" source="7" target="45" edge="1">
                    <mxGeometry width="50" height="50" relative="1" as="geometry">
                        <mxPoint x="520" y="90" as="sourcePoint"/>
                        <mxPoint x="570" y="40" as="targetPoint"/>
                    </mxGeometry>
                </mxCell>
                <mxCell id="51" value="" style="endArrow=none;html=1;" parent="1" edge="1">
                    <mxGeometry width="50" height="50" relative="1" as="geometry">
                        <mxPoint x="590" y="80" as="sourcePoint"/>
                        <mxPoint x="630" y="40" as="targetPoint"/>
                    </mxGeometry>
                </mxCell>
                <mxCell id="55" value="Phone" style="ellipse;whiteSpace=wrap;html=1;" parent="1" vertex="1">
                    <mxGeometry x="420" width="100" height="40" as="geometry"/>
                </mxCell>
                <mxCell id="56" value="" style="endArrow=none;html=1;entryX=0;entryY=0;entryDx=0;entryDy=0;exitX=0.5;exitY=1;exitDx=0;exitDy=0;" parent="1" source="55" target="7" edge="1">
                    <mxGeometry width="50" height="50" relative="1" as="geometry">
                        <mxPoint x="480" y="80" as="sourcePoint"/>
                        <mxPoint x="530" y="30" as="targetPoint"/>
                    </mxGeometry>
                </mxCell>
                <mxCell id="57" value="Price" style="ellipse;whiteSpace=wrap;html=1;" parent="1" vertex="1">
                    <mxGeometry x="690" y="420" width="100" height="40" as="geometry"/>
                </mxCell>
                <mxCell id="58" value="Status" style="ellipse;whiteSpace=wrap;html=1;" parent="1" vertex="1">
                    <mxGeometry x="870" y="370" width="100" height="40" as="geometry"/>
                </mxCell>
                <mxCell id="59" value="Date Time" style="ellipse;whiteSpace=wrap;html=1;" parent="1" vertex="1">
                    <mxGeometry x="800" y="420" width="100" height="40" as="geometry"/>
                </mxCell>
                <mxCell id="60" value="Product" style="ellipse;whiteSpace=wrap;html=1;" parent="1" vertex="1">
                    <mxGeometry x="600" y="370" width="100" height="40" as="geometry"/>
                </mxCell>
                <mxCell id="61" value="" style="endArrow=none;html=1;entryX=0;entryY=0.75;entryDx=0;entryDy=0;exitX=1;exitY=0.5;exitDx=0;exitDy=0;" parent="1" source="60" target="28" edge="1">
                    <mxGeometry width="50" height="50" relative="1" as="geometry">
                        <mxPoint x="700" y="440" as="sourcePoint"/>
                        <mxPoint x="750" y="390" as="targetPoint"/>
                    </mxGeometry>
                </mxCell>
                <mxCell id="62" value="" style="endArrow=none;html=1;entryX=0.25;entryY=1;entryDx=0;entryDy=0;" parent="1" target="28" edge="1">
                    <mxGeometry width="50" height="50" relative="1" as="geometry">
                        <mxPoint x="740" y="420" as="sourcePoint"/>
                        <mxPoint x="790" y="400" as="targetPoint"/>
                    </mxGeometry>
                </mxCell>
                <mxCell id="63" value="" style="endArrow=none;html=1;entryX=0;entryY=0.5;entryDx=0;entryDy=0;exitX=1;exitY=0.75;exitDx=0;exitDy=0;" parent="1" source="28" target="58" edge="1">
                    <mxGeometry width="50" height="50" relative="1" as="geometry">
                        <mxPoint x="810" y="450" as="sourcePoint"/>
                        <mxPoint x="860" y="400" as="targetPoint"/>
                    </mxGeometry>
                </mxCell>
                <mxCell id="64" value="" style="endArrow=none;html=1;exitX=0;exitY=0;exitDx=0;exitDy=0;entryX=0.75;entryY=1;entryDx=0;entryDy=0;" parent="1" source="59" target="28" edge="1">
                    <mxGeometry width="50" height="50" relative="1" as="geometry">
                        <mxPoint x="780" y="450" as="sourcePoint"/>
                        <mxPoint x="830" y="400" as="targetPoint"/>
                    </mxGeometry>
                </mxCell>
            </root>
        </mxGraphModel>
    </diagram>
    <diagram id="JmFQnXcf18i-wLddO-4y" name="Page-2">
        <mxGraphModel dx="1964" dy="500" grid="1" gridSize="10" guides="1" tooltips="1" connect="1" arrows="1" fold="1" page="1" pageScale="1" pageWidth="850" pageHeight="1100" math="0" shadow="0">
            <root>
                <mxCell id="13hAKeCKC5Au7sBp5I-8-0"/>
                <mxCell id="13hAKeCKC5Au7sBp5I-8-1" parent="13hAKeCKC5Au7sBp5I-8-0"/>
                <mxCell id="13hAKeCKC5Au7sBp5I-8-2" value="" style="shape=image;verticalLabelPosition=bottom;labelBackgroundColor=#ffffff;verticalAlign=top;aspect=fixed;imageAspect=0;image=data:image/png,iVBORw0KGgoAAAANSUhEUgAAAWUAAALPCAYAAAC66tGuAAAgAElEQVR4AeydB3gWVdbHI8VG74qKuioqyrc2rNgQV9fVdVUsWFjFld6rIJ2E3qSrFKnSe++9BhIggZDQUkhCen3blN/3nDvvhKC4KxpIwJk8kynvnXvP/Z87/zlz7rl3AnCWgkHAMMC0V8C0spWNrAagA5o6LUc+MLV8q57vesnHtC6UPNVVcrU/MztTfxlWQslZ1ryTVvqC/J+/3P+1X5DlFsG8pPqCts+/FS3laVq1A7/+5Afrx0uoheRutxbZ/koGtg4uIedLTWpiYKL5V9mXQvMttgz2Nt9Pzu7vQyDg913mXPULBPIIWQj1PHnau3Jbye1lUauctUlUtv4b74I8/MScR+f5bkw7U9mqRXbsEvJO2j8628uAgKAsWsunvQImZdGnrFJS4enUImUh43ztLz+etnj2Nv9vzv7vQsAh5d8F20Uuym8d2feQv6HKxqZMq2nLGZui/YSsUsivF1vtNP5y/fmev1fzlyD7znK5EciPuK0xy4r0K8e/UTqSBJeslku+4LJUWepkV+W/FlA0xP2vIl4tPzqkXFCauhgp+/OW9mrfuLK1lvxn/tf+byFlm+Sdu8NG+HJvf65XOc5D3z7Ivy0wgfJnmldigeX+2zMqKnL8domvhpQOKReUln7DvWE34YsXaf/6awT9vwqwr7t47s7Zy4GApRNbc/m3eaWpvgHxL/8v/eVdcX7HzvD8mXzuDNG3/bD+HXlfkOd/ObBlsLcXJBUrWlwbun8VmZzljyLgkPIfRfA3XG+qG9LENKUBg2GYeeuF96r69QK72jTtG88q6Hx6SVswi2EYiIz2+ntyta+16vq/c7DT/++URTiFoWPovjy9aqJXv/bOa8fu/P0dhCWZnM/ID4TVjgxDwzQ1DEO6Gn+RqOBAk6wNMDQD0zDVej5zqa/86eiqM/B8HX/eDmx95z9vnzufn7MnCDikXEDtQJrjxW4NaXjWDWSora750Hw6um6g63KDiRFlbS1R/HeB3+cspCxpZVF5mQaa7lOrlKiI3jRVGk0TAv/lItfpuo6mSbeUPBSkbCutvS9b+d0+/8tcLn7G9jja+djyXCw/Ww6fT4jMkknSyXr1LUJQPgzNg6FraLqBTzdxa0Ze55/VHqRudozGb6+lzyeEa+Fib+Vq0ZHH41GrYK1p3t+e6e9JKc8Un4Hu1TA0HZ/Xi+az2olP2ovfRtb89Cy6lTYkMuffynmR3T5v/5a/biKetIs/++KQcgG0AJtG5RaSfatZ2YSpq5tXbmCxbDSvG81rIvwoXGuYpnVDiyWirr3wlVByUySuWY3cp3nRNA+6ITejNH5ZheBMvD6xni5eIbkh5MawbwrZyirnZbFvEq/X+yvEbNfswq08NKyHjpC+F3VsWg8AO0+50aQsIRPJX1a7fNletTei4cXw5uBz5aqHokc38RimouDz7zeyJ7qycL64di48K3h4fW6FpZipuiHXWu1J8PKph7pltdoP7AtzKMAjQwd5iGoapq7hyXWpdqSLHLqBZqJWt27g8nrUb/ZD19axtAO7Ldj6lq29SH2v2jZgV6IAtw4pFwCYQlP2TWgTs0XNuiJPwxBryo2hCSG78koUY9Xrk9c/0O2wZNXbLQTtjw1VpjR4PRput3WjWq+sv3x19XqFlH/JynLOJkS5OfIvcgMJSdrLxa63fpN8RdILVyHk/2Wt2Tek5G3flPa+/Ztd/tWzNTF8LvTcTOsxbFr2sCcfBVuPWSHUSyVlHa8vx0/kgrfoWle6zU/CwpcqPP6XKi8gGE1MzQ3q4ZOLz5WD5nFf4B+X2nkM8PrJWYwM0a2stm5lK6t9/ufC2W1Bts7iuC8KpA1IUxKqs1c5tl7rpTGK9ejB58kG3UVWZjKxMfGcOpVIVpYbr08sZhNdCEtRnu2nkxdCy1+Ym+NB18RCkmPQfG5c7iw0XSwTLzExcSQlpeJx/zop21ZLdk4OiYmJJCUl5VmsNgher0eRpn184VZqdSEhy7EiZd1HWnoqsXHRnD0bQ3T0aWJioomPj8eTj/A1n4+UlBQSEhLIycnOu2ntel1YXhE/EgIxNHyZacRHnyE6OpbYxFRyNFNRsPUeI5j9PlL2+DJJTDpDTGwkmp6LbviU/t1uL+eS0khMSMXj0pEuh8vHZSamnovpywI9F0wPWekpxMbGEB0bR2JymmoRUkuPCdkujfiEBJKTk/3uFXkjPO8SE9LNdbmU/pOSzuW1Z9G0/bAu4lq/IuI5lnIBwCyN0iZk2cqxRcoGms+F152JoYsNpTOwfy8qVqzMbbffx4LFa9UNpRng1nTVwOW/dJxYq1jLlu9ZXlnFZ3z06BGGDBtERGS4KiU05AC3VLuVV+q9RmpK+q/WRlkhJhw/doyHHqzFY489zunoM8qFkpmRzuTJU1i+bKW6iUT+Xy4/r6VVY8k3IzOVbt06U7FiBSpWKk/VqhWpUKE8t95anXZtW3PmTLTKLi0jg6ZNmlClahUWLFykzhnS+SnhhH9wubjMF8v0t6e82NX5z+VmpdO1ZTMqlSlDseIlaNe1Jy7dagtCxVatBKdL9yknJp6gXv2nqVX7HiKjRNeWq+tcYhIvPFePWrWeICQkwhLnd1fpf11ogp4DmrTfbHZtW8/fX3uFihUqUr58eR7+6+N8P/Un0nI9qs3v2R9K7Ycf5qWXXuT06dNKNstKPt9vsH//Pp577jleqVc/r12oukkn4i+eLiLf/5LRguBa+u+QckFoU9qNYd16PmlE8uomL63KjEkH7Rymx012WhYN/1WfgIAAtX7ZeTA+j9xsIC+rurqThVgz8kklw7GlOwX1+vjic09xe63HiE6X12ZIORfLlMmTmLtwGVnu824I9XDI1dDMXLyKFKwss1KSmTttFjPnLyA1OwvIZPr4bpQt9RcmTlqvEtkUKdtcXOg+dz6XqMjiwRQ/p9/XmZubyDfN37fqVbI0JYsHqPX6gABKBgTw4Yefcywxk3Sfj62bVzNh2vccijothpe64aWU/It1K3rVm4KRZ3fmT2Htq8gUf5XdP7t5xc/+yxtahrVnA+5fZpZ3Rr2Q5x0pi1d8S5pOrjw8JVdD5PUSunMDFW64idq1HqX/sOFs3hds5SzD55VGLeEER690mInrSFXaRtgqRig70xB9it/WOpd+NoxHHrqLm6pU5kCURXBSn8zMWOrffT/ly9/G6qN+UhbH7s8Wt3S0STSIcpdZb1h2EnE16NLYTGln0vIuXNS7miENU9q11CGZ8P0Leeyh+wkIKEHJYhW5qbjVhktVvIeRU9fgxSTxXDzzZs5iyeKFZGelgkSGXFhVDu/bRM077uGvD71IxIkEQNx5F8ogl7hMQTgH3UjH5xPwLpTxWj5ySLkgtCsEIB1xfr+iNCC5DXxi8WrnwBOjiHr/tl38pVpZnqlbh9vu/z9q/LU+J08nKwlyTfAISZFOTtZR9u86zJ5tmzkRvgdNc6EZBjs2raFSuVLc8uCT/LRxP0lpaZAdS+yZkxyPTyXLp3P2+AG27T7IySS3YgKNNGLSj7EjeB8n4uLAnUvq8RNExaeSqXs5F72Vz/71VwIC7qJX4ArCT8Wx78gOdh4MJSFXrs5C86XhTkjmyN4QwiIPk2u4kI4e0+PFZ3rJyY0msOmrlC9zC/1HzeTIkYOEhx1i6YwJPHNPNa6/viqB05YjNc1KOk5Y/AlixaSUZwLJZCaFsn/bHrZv3s7BkINkZElKF27Tpd4Zcl2pHA7ZS/CePaQlJRJzIph94ftIy/bgiXGz73AwB84e5OjxYLbt3Mux00kKU1fSGfbv3sem7YfYHXyIrCw5n4HmTeXkiWOcjIwkNzOb0JAwduwN5nRCvLouPuYoITs3cCz0IGmiS5+BmesiQ4Mc9czNITfjOOMH9eCG64rz3geNOBp7DqF7i4a9nI3azZHd69m18wARcSkWv0mURmYsh0O2E3r4IInRZ9m7PYx9R0+Saqbg07KthoOo9QDPPnIPpW6/j10nzim5xAbPyjhKo3seoOptNfnpxEnrfEY2h0MOsnX/AVVeTMw55TTxyNuZPFB1D4ciD7Fjzx72HzhOqgiqHllnSUo6wMF94Zw6mcSRo2fYtCuM2OSzaHoOultcZvLwPcWM0c0oU6IYH33QmYPBp4gI30u/3t8QEFCNmnUbExEfi+lLJvlUBDFxiXjc0v7k4aWTcC6ZjTu2ERG2j0Mbl1L3oTo8VvsNjh4XvD1oeiIRocfYs+MwB0LPkO62HtM5ZOAyk9HloeOQsqU05/9vREBev5XlaCqrV6wpsZhNsTbk9U9WM5Nv+3dTluN3s2bQY8AgZXUMHPejupHV5UBURDANP/i7sjqvCwigWuWKTPpxBtFxp3n8UbFUAggoUZqA4rcy7ac5xB9eQZVKpXjsbw1IzshlTPcWXFfsBgInr7KE9yUyqG8LAkqUYviMZZyLOkb9++/igTovcupMDMP7tbHyDKhAQEANXn2vAV9+8CwVK97JhGVhfpJJZMnEb7n5xio07tiZNF0eN+DNdksXFFm5sfRp+jo3larOpMV784HmYvGEQG68vjL/ajmAsFQXnVq+SanbqzFt6V65HzkZupGGbz9NManXdTdRunQZunRqQ3TiWdXVGZ0YR4sO7alwc0lKXV+MTz54j388dRdV77qbDQdOEbJqM/fdfTt/uf9WHqhVg2I3lWXA2B9V3f7z3j8oHnAdAQE3cH3x6/iiRXPiks/hzknkPx++wf133807739OuQrVKHFdAG/8/TUGj/ueF+vW4YaAAKqWLc/AyYvIUW8wuvKb5gpJobFuwWRqlLue4tdZFuMd9z1JSMgRRcuLF8zggXvuo1hAMYXtU3VfZtW2AwqX+GPbeLxmDareUoNHn3hWtYH/tOqAT2xN0+t/IzHIjtvrJ+X72X3CesgIYBmpoXxyTy2q3vYQC85E487OYFiHr7mp5PUEKFlu4MknXmPfkXBMsdt1H3MmTaXanZWVLDfdUJkOnQJJzsnFJIUfJ3Sh4o3VeLD2i1S+8wEqVr2XFWvWKFk9uRIpo4EWzbyJHSh3fTE+/KgtubmCAaQmxtF7yHd0HzWbuIx0jh9azZP3V+WJum9zPCJJTbYVfWgt73z4JgElbqBKhap88sKL3Fe1Bo/V+RuRp0/h1V0MGdaXO8qLfNdRvup99B/xA+luD9K6ssxcpEOzADxcSuar4Z9jKReIluSFy6digyRUWF5EffJapmdhynurHKcf550X76dqlTvYdvQMW7Zt4M6bi/Hye42JV+/EkJN5hgb/+oe6UfsPDWThnNmUvrECFW99kC3B+1m3YhK3VShFpRqPM27qUmJjYzkRspgKFUpSu97bypILXzODUjcU4+UvupIkzJl4jPq1bqPKA8+x5XQqMZEhvHxvBe7+v7qcPpPEiYj9vPHeC1x3QyWadxnMvoMH2DorkEqlavBJ1/mWMZsbRtdGb1Gq2kNMWbtDncuWV2DN6pxMz46hV5O/U7L0bQyfvcMicuUfzOTYtiXUuO0BnnuvLTujztCx+fPcVLk6Py44ADlexg9oz0O1ahA0bBSbVy/mzRcep2TpigxYdAB82Uzo15aAG8rySoPP+Gn+TzT75A0qXxdAhVtqsnV/JJGrJlHrjhoElK5Bi96BLNm4hsSECMYP6Umt+2vTt98INqzbxMf/qEtAmcoMnb2Y7PRYWr/znCKpx+o3ZO7CFfz7rZcpIQ+GSvcxZNhwpo/syR0Vbqb6o68THGO5k+SFSOKS5bU8KSGGod1aU7xYAC+815Blq3eQm5lG5I4l3FqtCnfUrMushSuZPWMElUoXo8bDTxGVnEHayc08e/edBATczEetO7B0+RqOHo/CK+GEurQhaS0aWfE7eeaRuylT/QH2RllvU2LlZ2ccpMG9tala/VFWn01k86q53BwQQL0XX2LZlhWMHTOO22+txX9adcOjZXNw2yLuqliOt95txMYtm+neuTNlrq9Kz4lTcJPEnHHtKHddBSrc8Sg9R09g67adpCRn4PFoaqCIipjUkzlxcDFPPHSfwqx27Sdp8MYrjB89jNh0n2oP0tQigpdS577S1H6hIcdPZKOnxdPti5cIuCmAd5q0Ye6MxTSvVw9xaz389N8JTzjN8gUTuLPSzfy7dS+2bNpG888bUemW2xg+fyPy9mi6M8j1h94VyK16FWTikHKBKOlCUpZbWBM/mfgJ3ZaT8NDOxdx+cwDvvNOINCnTzOSzF+6lfNWarD8kvjXYteo7Spcswatv/xuvskVh5JDvmTxnHVkeF66MEB6uUZ6atV8jRWUCUSFzqFatJA+9/A5nJXop/TTv1K9DyTvuYmdiBsfXL+fO4sX4oM0A5T6IPbGb5+8tx52P/o0T0eI/8NGtx5cE3FSZHxdtVHLknNzKK3Ve4e6/fsCx9HRSTm7iqb9U4pFXPyckzUWSAWnyVqs6tXRyXDEEtvonN5W7k1ELgpWXUDrw0IWklnF3jVo89WZz9p08TbfWT3Fz+XuYPi9UPbQ86VG4vRmKi47u28iHr9WlZJnbaD//FDmxEXzy9N3cdPtDzNgUrGQ7Fbqa5/9SlXJVHmVr8BnObhrC/91yB0/Va8qhVAtrjGiyk8LIyLJ8qTHHwvjyzRcIqHA3Xaevxp0VT9e3HqfiTaUZvdSyYNd815eqxQL4e5MgJYsvPoz6j99LmQdeZGnoGcs/LW8+EqomHQHAtsXfKwu70Tej1DGeBPp+8hrFrruRkT9tt86hMbx3UwICijFk1lIyw5fwzK23UPn259mXet6XLq/79qg58VxnJmxTpFz+1gfZn0fK53DnhvDmfX+lfLXHWHk6jlULJnJjQAC1H67NT8vmsm7tOsIPx5KZ68VtJvFNh4aULXEd7ToNZ82GDUwcOZjbK9Xg/rc/Is4TwcKRTbitZHXeb9pbtQ8ltPhzvSY+3Yfba2B4pbElsGvzKt7/6DNKlSqtyFne2qrUeJjuIxeS7TOI2reCp2uW5b56HxEVn8mZvWuod1cJ7n7iGbacTFFZn1g+g5rlbuPBZz9iY8QumjX8G3+pVIWOAyexcd16hnTvSLkK5anfKogEaZ5uN7mmIb0Yfjyv/Y1DygWiYyFlYSkJbbP8YbpYztIhpHuVZdWnSzNlITz4UB0atfya9m2+4qX7qymruNOQ+YqCV/3YW73Gf9y6FxmmD1NYz9+L70UjKWknD9xZkdr3P8/JU1ZH38ng76lc9Tpq/+0Tov0h0DOGdODmGwMY+NNchnbtQ+WA8oyet0E167iIjdS9vyx31HmbyHiJx8uge9sPCLipOhNnr7XqoZ2jZ8tm3FKuCgs2rmXxT+O5vVw52g2YgngB43RUp5eMgJFXZK/rFEFN/sbNpW9j9Py9/m5F8bOnsn/ZTG6/9T5ebtCWA6dO0qP1I5Sv9CAz5h4GzhF3ZAv9+3Tn/c8/5957a1A6IIDyFe6ky8IYzh07RP2aVbntyTfZezJOYZGdHEaLeg9TrmpdlgVnErUpiL9WrMSbr7XkeLpGuvLeJpEYtYu+3wzk009b8fg9t3ObsoJr0XbGVrw5ifR+6zEq31ieH3fGqHzXj+/GHcUCaPjNdOWu8MaG8PqTNSnzcD0WHYm14mt8meBNl6Bx5eNcNXOA6tB8p8NYsqTjLO0QHz1QlUqVHmThoUTrLUPIe8kYRWKNeg4mNWweL91yG7fe9w470z1kSES6dMaJB8wn0TpiKueSnrhVkXLFW2py6JRFaJCI5j7Ca7WeoEzVx1kbdYaM1EiavfMBJUsW9xNlMd56swVLV+8ky3eCFo3/qc4XK1mN624sQdniAVQoWY5qr79LWMp+1o1rzq3XVaFJj/EkChKaG8Nt4vNJZ7UPj7gOvFmY2dEg9Qd27NzKpIn96fF1G8pWupNyNZ5h8+5jRO/fwtP3VuTe19/nZFoCIWum8FipYrzyQWvCVV+eQcqOabxwz+PUevYrVh1cwftvvUAJcfPcVI2SJYpTpkQAJW64nmc/bs2pBBlhJU4bHz7rFUKVf63/c0i5IDQsD3EhZMuJochP9mUAiNxgyTFHePGpp/KsCzv6Qvyosj75WlPEVl4/ZzA3BQTQoHE77OC2uFPpRJ6zLLOkczu4747yPFzzOc5EWz3WZw58R9VbSlCrfkMiJJxUbJo983iySgnur1uHv9aqzwN/eZODcRZjJ4Wv5JkHy1Ltibc5fE5SpxHYqgHFA6oxefZWhYZE2u5fM4Vn7irDl199xGeffE7Ne59h86GzpPpjQ6y3bOnWysXMPc6QpvUod/MtTFm8+zyi7hSGd27FDSXK82WXYcRkJtGz1SOUK/cAs+YfxpsRQpN3X1K4vPzPt1i1dgVtG71LhfK30nX+GdKiDvPaA7dSvtZLbDx0TOWbnnCIxs/dT+kqL7L8kJfIzQP5vwoV+efrrTme5iMbk+zsE7Rv9DoBASV58cW32L5yIUFf/J2AKg/RbuZOPNnn6P2PR6lQsizfbz2l8l037mtuvy6AD7vPIFsCE5KO8tazD1K61gssDZcHgkQA5ILE7PrjxdfMHsiNJQJ4r+NEciRsIjWEpnXu5aab72LW3tN5MQVLpvRWdWw6aCyZEYt4pXoNbrnnHXZmiLzyxiEPR4v3rbAwL5nJe3jhyfu44ebyzFq6xY+pi+io9fz19nspfcsTrAs/rnzYRloWe3bt4KPmr1H7occICLid6nfXIThsNe2bvku5kjczYswswo4dJfLwAU6HnWJzQhLnvKcVKdcoUZ0vvh7DWSlFc2O6rVGWQspibrhSz9G1ycfUffpRlq1b4ZdF7I0s3nr/M667+S6mzl7NmX1beaZmFe5+7V2iUs8SvnkmT5YrzpNvNGZfsmXppuycwrM1/o8Hn/6KtYdW8d4bdbm78p18O2MJ4eFhRIYHExYZwZ6EJNLFf5ELbtOL17wwgiRPiGtwxyHlglCqtFzdCpfyqJtXVxazTNMiIQYbF46lUrnK3PdwPTp07kDHrh3o2rUVfdt/zhP33c1N5WqyZu9pEk/v5sk7ynHHnfezMTpeBdd/3qAxdZ7/kOATx8lK3ce91Upzd82XiI4RR7RBZPAMKlYqziOvfsCRbKFYeeU7Tp/3aloPgeL38Hn77/1BdjqpYct4plZlqjz+FsGK7DPo3+Q9KgaUZfL07YhNpgvRpmzlP6/dR+UyJahU5SH+9k5X0jxWAJO8VcobgdzAkI2WeYRvW9SnXIkyvPtRK4aOGMLQUYPp1KIJd5UpRfVb72f+5v2kail0bvwo5cvfz/ylocSFLefRuypR88Ha7I44RW5KNJ+8/iw3lq1O14WnMVKj6d6gLgGlbqPr2Om4dJ2ls0ZxT+kbKHvL86wPTiRmy3BqVbmNF19vS2iqph6DcVGbqFuzLHfeWZv9IafQs1No+c86BJS9k+6zt+HOSqbbm09Q8cYy/LDeCitbPbEHtxYP4KNuU5X7xZdwlDeersXN9z/PsuAofyuRjjjxEVkEs3rWSOWHfr/jELKFM/RzzO/fVrkqPuwwghQdXBkx/OvF+yhevjKz9xzBdXIVdatX55a7X2Nvaq4/OM8fXSDtSC0aui+ezz/8m9LhvQ/XoU//gYwd0Y8P33pRnXvk5fc4lJDCoe1LGRsYxP7de1WoYmREBA/c+zw3lL2H4LDNjB/enlIBAXToOlLlnHb2FN+P+IEpe0LIIoEV41tye4nqNO4yEtWdKBa/T2KGpR1oeMV1kJlOYMdWqtwH/+9BevTtxsRhA+jQqjk3l61C8fI1WLBsG9EHN/PsQ5W499WPiEhII+PEHho+XZ2b7riXHzaEquHhywZ1oFLxUjz47CfsPHOAnm0+plrJG+k5bq6S72TITr4dO5bZB6LIEExdGpk+Dy4Vfmmhc63/d0i5IDT8C1L2qftWGdC+RL5u8pZq0IEjfvpFaYOD+qjf2nYYpOhw5qje3F6pIrf831M889RTlA64ntqPvsyeiGN4c4/z9suPEhBQnieefpeta1cQHb6KcuUCeLDu3wnP1hWp4oshZEobK6Kh8iMsDLZCpOSxkXJ4FQ/fVpaKtV8lNMmKt53Upz1VAwK4vcbLfD5gPhk5Z0EPZebQf1NWevRL3sfQqfuV7GI7yYNHhtOq13jE132M4c1eUfWw3wLs7V1lbmHQoAkk+XQSXOfo+Gldbrr5NmYu2E5m4hG++Fc9SpS8kQefeIGXnvorNauWVpEiXw1bAHom+1f+wF21HqPUbffzbP16vPzMQ9xVpQLl73ySTfvPELlmElXLVuKJ178gLM2jSDk7JYKm79fnxhKleOjhJ6n33NPUvkPyLUvTwPHkZiTT+s1nuTGgBLPXHVL1mv1tdxVx0aDtcLLFdXw2gpcfqcmNdzzBhuBIv96kp+98eNbKmd+pOn/Y7msy5MVFd5Fxei8fvvcBxcvV4vFn3+DpJx6kwo0BNOncm2wdkiPW8FD5stx693OEp+ZYcc9K82KeS/5SlOrh4si+1TzxuD/iRtwv/vWOu+5k7NxFyk20bdlPPHRrdapVrsKL/3iZZ555mtI33cZXrXqS60ojJSaYf75UlxI33sZTzz5HrXvvocz1VRg0ewEaycwe1YKbA0rxnw4D1VuQKlrNySJSmHgkIsSby7njR2nwzpt5Mtiy3FS2Iq36BJGWkcux3ct5+K6S3PX0uxw5kQlaFgsndqTq/dLR/Cgvv/QGr959BxJVdNcj9TiceIpjwWt46bFa3FClFs8/8wL33FqVqtVrMHblTjLFpvFmK4z+PHayM8zaf7P9wY1iX+sNVF7rpTErW8rUyEo5weBe7fj048/Ysf+4RIEpCwTDcifsP3CQD9//lM7tepGZnYupp7J8wXRe+ce71K/3Ep3ateFEdLw1b62Zw97dG3m7wSc8849PmbtkCdmxO/nyq4a0DxzBWY9Jusw+58sg+9hm2vy7IV/2GMDhHJ8qV26SzBP76Nb8S77sNljOAJEAACAASURBVICoNCnPiysuksGd2/PsKw34rOd3JCWdAKI5uW8u995+CzfVeJmNRyy/plCy+PfUeAWZGAeTHHc8K374mg/facA/G3zJZx/+g381fIOPP/qETQs2qvk9xB1zzp3C7NFB/LtxC7YFH5Ppxzh5eCctvvw3L9V7nTZf92LZ0iW0afpvxn83Bp9bog48rNqwnsaffcCXXzVm3qIlNPj785S99xFWhycSfeQoTZs1o8+wQFKyU9UwFEE2MuIoXZt+yqsvPk/b9u3ZsmElzTp0ZsDoCSSfjWXysEE0+qARO/dHqgmdtq1fSMNP3mPE9KW4vAZaShz9u3Tgk+bdCT8eqwbw+J+9eQQdvGUt77/3JqOmTiNTuhBUZEY6HlcWQYHDqf/Ka/z99ReYPmMmWf4Z/NJigunc9HNatu1OQnqWaicyTMYlbyfyiu4vxFBROxmcOb2NVh2b8q/3PuGTf35G84b/Ztu+3erhm61CMXUi94TyeaNPef4fdfnbq+8weMAEUnPlLUYeuhpnT56hbdc2vFi/Hg3e/YRlSzepX0zOsWXlOL78sBlTZq5CImrkmaPGk6oBMDKvRQ5ed5oa2ZR8LoHAYQP51zvv0eitj2nUoBFTZs+1yBw4G7WXr9t/TPs+o4k567H8065Ipi+ZTv0GH/DRB41Y+v13dGvdifbdAolLTlRzzB0+vI+2zVpR/4U3+KRRczbuDvEPKdHINd0Y8lqmHlZ/8D69Si53LOUCUJQQsCJhv4VhORYkJC4dM28CIgkf85GuCc2If9KF6ZOZ284L4Ms28KlRVuIguHDRZTiyGkmm4jqUv1LZhbp0z1gzk2Ua8ran45VRKP5OQvH6xqORLR2OejZ4MlQDF+KS1XC5wG15sCWtkt2bhTcpjBkj+3BDmbt4u81IEiWKRA2JdknXnkonw8Ol6yfHlFhsq8NM4SCjAFXuyuVJrg/Omj4ypOvLZ41OVDWUHzSr8+jC2sqjK53cnFimTRtLy+ZfMXvmVHLdGjv2hHB/rXt4oF49dkXFqyehPAiz0PAhPfXWaDArP/8oCUVNdgk+dH9HnbIK5W1dda5Z4X1Sf5mSEo/UyXKH+GRiB69LTbpjDYcQ/fnjz/26l/pkyIg/NWpPIm/E+24pVww+sZJ1yVezHEQijeGxfMm56GSSiSGj/QRm6d+SIW2m5CE+b389JDuftB+Q4ShZmg8kZlg5+PM2qqJSD7fMW+GSOSsEc6vPQ34UHSmeM2IxjTPqhIhtTyzklQEdhgvDp+My0tC1dJDRoqY1eZYqwBolo4rOlLcnqZtXULDihjy6genLVday8KnVLuT/+dF70qR8qgX524B/4J7gJXXMMFPJkZqKBeCQsoLd+fcbEZCmpmYEE1K2h+KKLWJkqdhl+d00ctQqQ3XFT6cbbkyZOtMrt4u0Rq9iRLeRi8tMQ7q9DZkyUQYVGB7LMtW96JpHWSZphgwilGnCXNaUiqZ0iFiSyA2nJoPzyS3iJVMmRFKWjxd88jpqKsr0SuuXBu/LVQ8K+1Fw5MB+/vb4w5QrUZy/1K7Pyn3SoSR3sgwV8cgtq2KR5VK5xiVMoacqC8uiIbciSJFD+sbcPqFYTQ3ZljvfZxOnkImm3vsVSYiIajY0dUvmoGupTBw3mAplrlevzX+59yGqVKlOherVGTB+LBm5XnX3Sg4yNU6uzMKnyTwLgrewm/wiPff2SDvxB+egq/mo/cqVKUzVYBhrQLekFRRV1IyMWBSIZZivZg1WlweZWJKqYv63HYFdzgt1upWy3eL/AF+aGlMk/OqSubPFXyuj9nDj012YQnQ+GbRukEOONXhEyEdWEcTIxCRGUbbIoZ6E8gzFIF00K5ayjJn2+tA1nRxJI/IZ4nYw8QkQYhRoOYoqfTKtqP8SGSava0mYpFkDM6TNSBtS0wXI1LBuTE2mIs1C17KVrDKhlE/N9OdnTeFhQ2T3oUlHpxCxruGVvCWITZOoEv+UA2hqyDRGukon6hHRDTIxzRTrw+7youA/Lw8VD5nopCp9+lndquA1/t+xlAtSweqGtK0CxQz2gf9Os9wa6qa/oJWdv9CiaLlWBPOfz3OHWFfa960SXRHx+ZSyZ6WyLpej82fO+0PtnK3E9lzOFhgnoiLp3LEDHTt0YNMWK97WntDIzt++3tpKvvnzyFemXxj51ZbDvtYqLS8H69CqlMLLnhZ07dpVdOzUiRYtWtK2bTsWL1mOWwY3CAlZU4Mod2weXHmsJre2OAfkYSLWon86VPUIFZktua3RmELilhVvieD/3ZZKpqPMp5H8iEsS+U30IlvrvwgnZ+xz9l6+XPy7krNlg0qZ6hL/Vq63HWL+83ll2WheeP78kb1nl2cdnz+SvQtaUr76+VPJxj6r9u08z5+2U+T7xa9nfx7+Hyxp/eVd8FM+GfxlnP8532/5C7jG9x1SvsYVXBDVs+fFLYi8LiUPe2L+i10jHgefZqpJnDQxveX+zVvkwCJhIWQJ7RLvtzX3nvIQ5BGoxQM2AftZIS8fZ8dB4Moj4JDylce8yJcoVrHMb2tPTi4T5Mv+lVxEBrt8kUXmXFbHappTa9Y1cZ9If5isYguLvSkWmfVn2XjWWaFjy1aWWtir8p74j2X/Al6/kpV1ynIQyIeAQ8r5wHB2LQTsCfGFBIUc5csk9mejrjRGQsay2g8JCcWTOXLETy2jzWTKSIkGkfgS3fKcKgK2bV7rVfg8YecnZHHbyiqdSrLm+ZOvdCWd8hwE8iHgkHI+MJxdCwH7axE2KctWSPFKL7bFnv8h4fNqSNCBmrtHTVQjHV45aq4RifiQ7jorjiK/k9dyZ+R3XAhZy1mxkCWQwCHlK61dp7xfQ8Ah5V9D5k9+3iZCGwYhyMJc7AeDIV+bVREjugptM0wJKMuWoD8MFZcgNGv14Sk/hTCv6tBTYRRqHhKJj1bd/X53h03ZsnUWB4HCRsAh5cLWgFP+pSEgYWDy8U6v9UFPsXPFbWFNWWOFX+V/fNjuCtX7L9a+JvHaEsctE0XJxEISf2vFYJ8Pfbg0kZzUDgIFiYBDygWJppPX5UdASFmTiYFk8IZXjUATX7BEJMtcE5FJbvZGJLIzLI7d4Wc5FJ2JTPEhwXFC0GpR8d0SFCvELl9nFmL2x9bZaZytg0AhIeCQciEB7xT7exGQEToy0EI69qxBG2eyYcGOaPpP3U6XcetpPWwJLYbMo9XQuXQat4qeU7YweU0YR5M81ihG5dGQMDq/S0MRskPKv1cjznUFi4BDygWLp5PbZUdARkNm4zW9av6G3VHpBE0P5j8DN9J46G7aTz1Kz4Un6bM0kj5Lj9FuViiNRm3n4wFL6DJxHasORKuh7srVnCerHF14Ju8nZ8dB4Aoj4JDyFQbcKe6PISC+YY8MHTdg05GzdB6zni8Hb6XbrHOM2Ao/RsCcWJgdA3PjYGYsDNun8fXieJqM3U7L4cuZvekYyT5rtms7PtkKnftjsjlXOwgUBAIOKRcEik4efxyB/L1zymqVidb9oXjiafAbsuKykHl/1xxLpuPYjbQeG0L/xbkMWQcT98PMY/BTJMwOh7nhMP8E/HgUhm2BvkvddJgSzeeDNjF9ewyJMoGT2MhqBiDxL4t32lkcBAoXAYeUCxd/p3QbgYuQsrgUJBRPRePJ7/4pQXafzaHNuPW0HL2bfgsz6bNYo+9ygwHrfAzb5GXUply+XZfBuHWZjN2czfBNOfRb4aHPMui9FFp8d4Ivhq5m2eGzqoNQlxn0vNJx6AwfsdXhbAsPAYeUCw97p+T8CPwqKctwb/9EPTLbms9kwupwGgWtoMeskwQtc/HNwhy6Lcqm+5I0ei5NotfieHrPjyVwQTz9lsTRa2kC3Rdm0G2Rj17LoefiDBoNWU2375dxMt2FLiFxMnuejErJmxEov3DOvoPAlUPAIeUrh7VT0n9D4CKkbJi6mu9CJjmXSDhZTsSk03zYGtpMCKXX3AS6zU3l64UZdF2UStfFiXRdHMvXC2LoPjeOXnPP0WNhHN2XxKvfO83PpstCF90XZ9Bh2iE++uZ7Fu8MV6P5lMdEBqY4i4NAISPgkHIhK8Ap3o/ARUhZfMoykk8sZUXKJmzddZwvAtfSfsppvpmTTKfZybSbnUC7uTG0m3eSdnOj6DDnFJ1/iqPLzHN0nhNLp3ln6DAvkbZzUmk7J532c87x9dyTfNZ/DsNmrudsuk8+zG0FYDgKcRAoZAQcUi5kBTjF+xG4CCkLS8qk98p9IYM/vDqzF2zh88CttJkUR6cZybSdnkDrmTG0mBlJi9lHaTE7nNazT9BuZhztpiXRbno0bWZG0npWNC1nJ9B8ZiKtZp6l0+xTNB60glZB0zlwPFl9WMPRhYNAUUDAIeWioAVHhp+5csWNIDO76RjqE1QWQO5cD2O+X8jHfTfR/PtYWvwQS4tJsTSfeoqm047SbMYhmk0/TPNpEbSYeoYWkxNoMeUMLX48TrNpJ2gy7TRfTTtD82nRtP0xis8HrOKDdqPZcjCaTJd0KjqKcBAofAQcUi58HTgSCAIXEKJFyoqY7c8PydSabi+jv5vPR33W8tWEKJpNPEmz707TeMIxmkwO56vJIdY6KYyvfojiq+9iaPrdSZp+f4yvJh3jy0nHaDw5gv9MPk6LH47xWf/VvNtqNOv2nSQ504X4sJ3FQaCwEXBIubA14JRvIXARUhafsrC1Pb++oelM+2ktDXotpvHYUP4zNozGo4/yxegwvpxwhC8mHOCLCcF8Pj6Ez8eH8/nYKBqPOc5/xhzhi/GHaDQhlM8mhtJofChfjT/Ex31W8mnnSazfd4Jz6enopsyQ4SwOAoWLgEPKhYu/U7qNwEVIWb7RZ8oXlC1uVtb0ll3HeLfXTzQcvpVGI/bxyZCDNBpxmM+Gh/DpiP18OnIPn4zcyycjD/DxiEN8NuwI/x4awqcj99Jw1G4+Gr2bhiN389mwXbzbdT7thixma8gpEtIS0eRDt87iIFDICDikXMgKcIr3I3ARUrY7+iQkznZvRMWk82HgTF7r/hOfDt3BR0H7aBh0gAZ99/BB0E4+GLCdBgO3897AHbw3YA8fBgbTMHAvHwzcxnuDN/LukI00GLyFBn038EabGQyZvod9EWdJzIhT34jOK8hRjINAISHgkHIhAe8U+98QEIa21p9Ptp/tNRm0dC+vdJzIv3ot4p+91vCvftt5q/d23uqzhX/23cTbfTfwdt91vN17DW/23sI/+u7ijX5b+Ee/DbzZezXv9l7FP9v/xCddpjNnbTjhp+LJzJXB29k/d27/NyGd3xwELgsCDilfFlidTC8nAjtismgUOJ3X2o/jta6zqN9tCa90X8Mr3dZRv9tqXuu2gje6LeHNbgt4ufsKnu+zhee6reHlLqt4s9tK3mo3m7eajGbYpPVs3R/F6ehYNF8m1qzLF5jsl7MaTt4OAhdFwCHli8LinCyqCEhcRqYJS3ZF8nHnMdRv+i0vtZzKy+0W8Xy75dRV6zKeb7uYF9rO59l2C3mm42KebTOPeu3nUq/5D7zYaAgdBs5j5bZIQo7GkJaWieFzWZPdF9WKO3L9aRBwSPlPo+prp6IymCTHBUvXH+Kz9uOo23AwTzQcQ53G03is8WweaTyHR76cy2NN5vJkk+nU+WICT/57DE9/NoQXPu1Hy/7TWbT5KLtCTxMbn4Ym3/yTIX2G9X2/awcppyZXIwIOKV+NWvszyywjPNw+8Bj4PLBp92k6BM7jhY8G8fDbA3jwneHUfG80970/nnveHc2Dbw+gzrt9eOrdb3iryQB6jZnL0m2HCT4WTVR0PC63D91ngHQmyuosDgKFjIBDyoWsAKf4S0XABI8LXPIBVBA+PZXkYdryEDoMXsLfm4ym5qudqF63Ffe82pnnGvTis9bf0m3wbKYt2cHOwycIPxNNdGI82bnZmDJRs5CxTBDnGMqXqgwn/WVAwCHlywCqk+XlREAsWvkStYaEyikjF9RMbwk5sOdoPD8s2MTfPmrLgImLWb7pGDv2xREWmcKZs2nEp6SQkZOKpudiymARmeBeHNVCys6AvsupOCfv34iAQ8q/ESgnWdFBQD4JZf0Jj174WSeRMj0nm45du3Ms6pQS2uWC3FwTt7gqDI+fwmUrX7GWj6f6Z4iTrbM4CBQyAg4pF7ICnOIvDQHx+oqX4fyqo+PDULayDJPWSE6K4etOrTgVFfazzGUQig7y9WrbXyFzghryvSln6s6fgeUcFhICDikXEvBOsb8fAZs/ZSszyZli8SKELF/c85F8LoauHdtyMirCX4hQuH+stnQUymT2QsSyr6aGk99kdUzl368V58qCQsAh5YJC0snnyiFgs7IKlhAyFdIVYrY+53QuOYn2nboTceK0X6Ycv8vCP1w7//V5efjdGfZ47itXG6ckB4ELEHBI+QI4nIMij4CQqG3YKuNWvqYqq1jMlqWbmJxCm869CT8Ro6pjkqusaeWH9idXSSUvRcpynUPKRV73fxIBHVL+kyj6mqqmTaaKUM/XTL58LUtSUjIdO3XheNQJ/49Cuj9LfP4y/56d6S9+cE44CFxRBBxSvqJwO4VdTgTOk3ISnTp1IjIy8nIW5+TtIHBZEHBI+bLA6mRaGAg4pFwYqDtlFjQCDikXNKJOfoWGgEPKhQa9U3ABIuCQcgGC6WRVuAg4pFy4+DulFwwCDikXDI5OLkUAAZuUExMTlU85KipKSWWfz7+194uA2I4IDgIXIOCQ8gVwOAdXKwLyhRLd/4XVhIQEOnfuzMmTJ1V17N80Tb75ZyLHDilfrZq+9uV2SPna1/GfooZCsj6fDB6B9PR0unTpwpkzZ9Sx/CaEba9Cys7iIFBUEXBIuahqxpHrkhHwer1s3LiRXr168fzzzytrediwYezevVsRspCxx+NBLGZncRAoqgg4pFxUNePIdckIiKUsJFymTBkCAgLUWq1aNaZPn67cFWIxCyE7pHzJ0DoXXEEEHFK+gmA7RV1+BPbs2cNjjz2mCLlYsWJ8+umnnDhhjewTUhZr2fYtX35pnBIcBC4dAYeULx0z54oCRuBiPl85Zy+X4gN2uVzKn1y8eHH+8pe/sHz5cjsbRciSV/6883782Y6kyb/Kz3JsX/9b8vhZls6hg8BvQsAh5d8Ek5PociIgRCe+XnE/SGecEJ4dSWET46WUv2jRIh588EE6duxIVlbWpVz6i7T5iVh+tEn5FwmdEw4CBYSAQ8oFBKSTze9HQIjOJmPJJS0tjbCwMNasWcP48eMZOnQoI0aMYPjw4cpnLPu/to4aNYquXbvy3HPP0bhxY+RY1l9Ln/+85P/tt9+yYsUKjh07xrlz5/L8z/kfDrLvLA4ClwsBh5QvF7JOvr8ZAdv6FNfD0aNHWbt2Ldu2bWPHjh0sXbqUBQsWqHXevHksXLgQsYQvttrp5BpxW0ia/5b+53lI2sWLF6tyxTct5BwcHJxnbcuDQ2S1199cQSehg8AlIOCQ8iWA5SS9PAiI5SmdbwcOHGDVqlXExsaSmysfNi08izQnJwcZGbhz505F0m63O8/HbFv2lwcNJ9c/OwIOKf/ZW0ARqX98fDzr1q1DRuPJIoRsW6T2Vs79GlHLeduSlevz79v5/dq1qkB/mXKdvcp58XNv2bKF8PDwPH/yz/O288+/tfN0tg4Cl4qAQ8qXipiTvsARENINDQ1VgzzscDWbGPNvhSB/Lcb454RrH8vWXu287eOLVeRiv8lwbXFliLUsi+QjcklakT3/OftYnXT+OQj8DgQcUv4doDmXFCwCQnbizxV/sr3Y5Chb2zIVUpb1UhbbyraJVLZyTvL9rUtqaqrqYExJSVGXyPV2PiKbnbeMKLyUfH9r+U66PxcCDin/ufRdJGubkZFBYGAgISEhF8hnE7MQn4TMySLnLsUalfRCmraVLddKfpeyJCUl0bJlS+VjluskD5uYJX+RzT4nx87iIPBHEHBI+Y+g51xbIAgIKXfr1k1FOtgZCrnZVqgQnhCfuDjEmpbj37rY5Cl5yQRFMg+GTfC/NQ8JjWvWrJkKkZNr8pcv+2Ih2+culfB/qwxOuj8PAg4p/3l0XWRrKqTcvXt3goP358koJKfr1ioE7fXKvBZDmTR5Ul6aS91JPJdI6KFDKt9LuVZIuXnz5ojFLItY3RLHLGF7QvCOdXwpaDpp/xcCDin/L4Sc3y87AjLVppDyvn3BqixDrGRDQzfEAvVKLAWa5mPQwCH8MPEHMKx5kU31hWovEVGnWLRkGbs2ryPTZXXGGZqPfcEhrF6+jH27dhJ1MoaM+GTOnTlBemYKYWGx7Ny8i3WrlxKblIn63rVxcdeDkHGrVq2UpSydfhMmTOCll17irbfeyrO6HWK+7M3kT1OAQ8p/GlUX3YqmZ2by9Tc92X/goBJSuNHEh0EOmpmOaeai+TyMHDqe6d/NAlc6ui4dfhqndi6lR9AoegYOp3+zD/lx6SZygQM7t9CxxwDGDx1Muy8+I3D4FHbPW8O8YX3Zc3ADXzaewJi+4+javAF9vltLmmT3K65m6ej76quvGDt2LK+++ipVq1ZVEx499NBDzJ49m0GDBhEUFMTgwYPVvhxfjeuQIUOU3HY9pk2bpkZXFt2Wc21K5pDytanXq6pWFydlDc3MQjPSMM1sfG4Xo4ZOYNqE2eDKQKxkn9fF3KFdGT/1J9y6yaH1c+jQfwxHTiUyvH8P5ixZA7qPuVMm0XvIFDZOXcyUXh3ZtmcVTZpMIv5wAtuWTaJ10Gxi08VZfHHYJOpC3BdiIb/22mvI7HMyNegTTzzB5s2bWbZsGUuWLFGjD2U0oRxfrauMaBTZ58+fT9OmTdXgmYuj4py9XAg4pHy5kHXy/c0IpGdk8PU3PS60lE0N3czGIEORsljKIwaPY9bkeXn5im93clBn5i1frc4lR+6nY59hbNkdSt/Ordm+y/JRb96wjgGjZ7NxxgqmD+zF1j2r6dljIXqSwd71s2gXNJVzMm/Rxb0Xypfcpk0bFX1x/PhxWrduTeXKlalTp47q5MsT6BrakYiV3r17qyHv11C1roqqOKR8Vajp2hbSIuVvfkbKOrqRg0k24MLUNQYFDqdfj0FEHD5MSFgE0bHxLJ86hh6BI9gdfJjlk0YwYMRE4pNSmTl+OCNHjCTiyCH69uhJtwGTWDNzJd8F9WDTjpV07jgFLdlg5+oZtO87mvRc8ZlcnJXtkDhxY8giPvAffvhBTXwkw7HFnywPCOmcFDKT46txtaNdZCvD3Pv06cP69euv7cZXBGvnkHIRVMqfTaT0zHS6dP/6PCkbVjyyiQfDtEjZEDfErIW0atqRbl2+pk2XXsyeu4TU6Ai+n7aAth26Mbxba0LDIhR8abFRjBk1kiFB/ejQoTPfDJxC8KaDrJs3nbCI/cyYuhMtzeTovrVMmr2UrGwDvBf/TJREX0hHn8yFYS8y4CU5OTkv/lmITELjrlZSFvntWG55oEhd+vXrx4YNG+wqO9srhIBDylcIaKeYX0cgMzuToCEDCAk9pBJ5faDpBoYpA0Zc1mrq+Nw+0pOzSEpK4WxKGmnZOWBq5GgG55JTyEmOtaxVr5cDW9exbcM6jkeEM2rsRIaOX4grXcNwZ6IZWXiywcw1MbypZHmETKWjz7JwbWK1JRZSFpeFHRInBGbHJUsa2bdC+Kyh11ejlSwy23WQOglB9+3b1yFluxFcwa1DylcQbKeoiyOQ685h0bKFhMnAEBN8Gnh9MhRaQiIkxE3WXwmNMI3zrmDTi2mYytVxcOsG+nTrQvsOregZOIjQiGThbzBk9F22lZ1X3BVWCJ3yXPgtdCFdIWbZyiIdfTLXsrgt7MX+zT6+Frb2w0TqIqQs7guZJMpZriwCDilfWbyd0i6CgM/wsi9kL7v37VMWqxCkofhQ/om17FYWsYqO0C3Xr2b6aVosPEmv6ZgeN4bPh+nzoGVnkBhzhsgTR4lPTsajgeY1MTQXhp4NEv4snG/6EDeJEJIVrGyNJBRSkld4WeQbf/Ia//PpOy9Slav6lEPKRUN9DikXDT38qaUwMYhLjGbN+vUkJPon/VHuXbFkhRitASTKJP6VsDX5Tff6MDVrNbzWXBkSUqFy8YAm1rch7hCPxegqL/nVpVLJni6ddbplJcvrvHxOSsLeoqKiFHHnf8W/1pTmkHLR0KhDykVDD39qKTTTS64vk9DDh1i9djOnTsXj9djsK9tfcV1cDDXTSmvqQrGy+NDE7FZWsRwLWf+8Q0+I+nwpQrwyfFrmeBZC3rt3b95wavlNyMveqguvkX8OKRcNRTqkXDT08KeWQjM96Ljx+DyEHjrK+vU7mDd3MYMHD6Ffv54E9pe1D4H9AgnqO4DAfv0J6teXoH796Nt/gH+/L337DSCoT28C+/alT99Ala5fUC/69u9DUO8h9O8fRNCAXgzo15OgvkH06zeM3v0H0S+oK70C+9Oz/1D6BwbRo0cPNVBk48aNHDp0SLkt7M49IS7Zl+21tjikXDQ06pBy0dDDn1oKcTCIC8Ne0tMzCQs7ipDi2rWr/esaNZBh3dr1/u1a1q1dy9q169R23Zo1rFq9hvVr17Js6VL6BwYyf9581q1fy7r161i/dqPqtFq/YS3r165h3dp1rF27iTVrN7B23UpWr13Han+a1atXI9/ok5A3sYhlsbdCXPa+Le+1snVIuWho0iHloqEHR4oCREAGdAQFBXL27NkCzPXaz8oh5aKhY4eUi4YeHCkKAAEhFVkkrrhLly6qc64Asv3TZOGQctFQtUPKRUMPjhR/EAEhFNutYJOyzFPhLL8dAYeUfztWlzOlQ8qXE10n7yuKQH5LuVOnTo6lfInoO6R8iYBdpuQOKV8mYJ1srywC+QlFhkMLKUdEWPNgXFlJrt7S8mPojOgrPD06pFx42DslFzACtqVsk3JkZGQBl3BtZ+eQctHQr0PKRUMPjhQFgIBDzdbt3QAAIABJREFUyn8MRIeU/xh+BXW1Q8oFhaSTT6Ej4JDyH1OBQ8p/DL+Cutoh5YJC0smn0BFwSPmPqcAh5T+GX0Fd7ZByQSHp5FPoCDik/MdU4JDyH8OvoK52SLmgkHTyKXQEfk7Kx44dUzLZ8ctyYM9hUejCFkEBHFIuGkpxSLlo6MGR4g8ikJ9QZPBI+/btCQ8PV7naRCzkLKFe+Un6DxZ7TV2eH0MnJK7wVOuQcuFh75RcgAgIoQj5ypKRkaE+aiqT08si54VkZBFClq+KOMSs4Ljgn0PKF8BRaAcOKRca9E7BBYmAEIqQrUxGdOrUKdq2bavmQc7OzlZfZhZSljmSJY1DyhdH3iHli+Nypc86pHylEXfKu2wIyOeaxowZw9NPP0316tWpXbs2L7zwAjNmzFCfdrItZtuivmyCXKUZO6RcNBTnkHLR0IMjRQEgIBbwrFmzuPXWWwkICFDrvffey5o1a9Sk9EI64raQrbP8EgGHlH+JSWGccUi5MFC/hsq0ic4mu/w+W7FI81ull9OPaxPtyZMnqV+/viLkUqVKqS8y21+httPYsl4uNcjDQeot5djby1VWQebrkHJBovn783JI+fdj51wpH4P2W582GQsJCSmJD9cmwSsN1OjRoyldujQvv/wydljclZTBrrdgIKt8Fds+dyXluNSyREZbTpG7T58+6mstl5qPk/6PIeCQ8h/D709/tdzEQshCPELIstqLy+VSE87Hxsaqr4DExcWRkJBwWVcJh5s/fz516tShd+/eSNlSpnyFRNYrUb5Ef8iDSRbbKrfJzsamKG4dUi4aWnFIuWjo4aqVQshHVvtVXW7sxMREFfmwaNEiRYzNmzdH1mbNmqltixYtuFxry5YtadKkCe+++y6NGjVCjqVsu7zLKUPTpk3p2LEj8+bNY8eOHSoKRB5S+cmuKCs6v5yOpVx4mnJIufCwvyZKFjKWG1iIWaIfQkNDVcfa7t27iYmJISUlRX2AVD5CKvuypqamkmrvp6TmnU+5YN9Ka1/zv7Z2/vZWQuHEYpWy0tLSSE1NU3LItJ6q/NT85V5aWf9NFslbyggJCWHVqlUEBwfj06wY6aKucIeUi4aGHFIuGnq4aqWQG1kIWSxCGayxcuVK5TIo/AoVXoSF7cbJyspSX+Q+FHooz1db+Lj8ugQOKf86NlfyF4eUryTa13BZmZmZqlPozJkzVi2l08gwMAwTU5NXeDCEJ00Tj6bh8nnxam68uhsfBj5MNMONZhr4dAM0F6auYXh18PgwDQ1TMjBkiJ4UIT5bl8rPwINONqbuRdPFj2uqfcNjYnhB90rnow+fZuXtM3zoGPjF8csrWYrMPjya+Mc10Dx4peMyL4TOUMWLCKa6Wi7NE8i/b3VwyhuELBkZ6SxZslRZ6lZBRfe/Q8pFQzcOKRcNPVy1UsiNLIuEom3ZsgW3x6OOhZBNA7xeHVPzKuryCVF7Xbg1HZcuw51z8Roe3IaBRwjc9KLLVjfBl6uuMzUTNIkt1hXJm0LIwsemF8gRdkTHhUYmpulF+tc0j4apuVUS0wOShy6k7DPx6SZu3YvPtAhWiS9VUNxqYugeXD4Puu4TNseja3mkLFdI8bL+GimbpifPKjYM9fRg27bt7N27r8jr2CHloqEih5SLhh6ueinEbbFw4UJVD3VzSweXDrqQqq5ZZCtkprlxebzkahLH61UE6BUClz+J3vBpaG4PhseDIfNV6JalbZi6ykORqGJFIf9cRcoGQvo5gA+fsowNdG8uviyfnFLWttcl1q+BZpi4JWRPokYUufr/+Q/cubloPglhM5Q84pqxLWqRUpJZSW1aVr/69Wexu6QSDORaWTZv3sLYMeP8aYruxiHloqEbh5SLhh6ueil++OEHvv/+e1UPubkVkymzVVNEaAhbGj6EgL1eN6apCV/iU5axBl6fZQFrYl57MD2WhazLfBWGbmWnaNfvwjDdfveFFCm/uzBMH6YPTJ+G4csFNyof3avhdfusgRyAR8jZzkZy9hOyoRlobh1TZJGyxN3hcuPzuPNkkPO2YS1bdaBS68qVIruaeghZVrIcr1ixkq5du6hURfmfQ8pFQzsOKRcNPVz1UkyePJnx48ereihOFsbyecDrQjk0dBdrFkyn37ffk5qSCHouOWJESzqJTvCTsuFykxUfi89tcPLQMZbMmUNiRrryR4vd6REGVSQqubrz/NSG6cZjejBcwtEGrtwM0uIy0Lwawbv2sXndTjxuIXh5SNg8LBlp1oFY6oauynWnZpGanKpcHfu37mDbhnXKhaFI2E/JFo8bFhHLAV7Uq4HUSXzh8iCxLmDlihV06dKpyOvYIeWioSKHlIuGHq56KaZMmcK4cedf0ZU7Vaxjb65yAaclnCGoW2s+btaevTu3ijmLy09aYkGLi0OW7LhYJg8LIvJ4OiGb9xP0TXeSPLnqN7E9xXucfxGL1+r4y38Wwo4eZOzgH8hMzMDn9uDJFh+3XGsXKunFohcWv3A5tucgIwYOJyFHx3T58Gan4zEvLFeuMC+QxW8ZK5623DH+vj5WrFzO1193vrCQInjkkHLRUIpDykVDD1e9FJMmTWLixInn6yHkJCapGuGnsWXjWkYOG8iAwL4MHz5cjFkSE5JZtGgVqQlniTt2hJULd7JgwgTqP3Ifo0Yv5+C6YL5u1YIO/fvQv/9gIk+eRjy8R44cpG/ntkwc9S3JWSZxRxOYOXkqPYf2Y1CPII6FHmLoyIG88MirrF+yhtDgYHZsClbe4F27t9KqZVd69BjIkbCDuN3JLPxpMS2bfMGAAX04djSWkV168/T/PcmSbSGEbtvD7o1rVLTG/r1H6Nq+Pa2af8mWbdJxZ7J2zUa+Gz+LDl0aM3HCd2QkWza08j77+X/5iqV06dLxPDZFdM8h5aKhGIeUi4YernopfkHKXg8+t0+5CsyMM0yaMol1O/bgjj3AkOHfcjwmmYTIY3Tt3J/Yk6c5umsrfbpOZfeSpXzzn/dYveEUYRsP0+azT/l+0XwG9BvJqFFjOJ4QychRA1k9ayrTx33PojVh7FsVwufvNWTqip8Y3iOI74aPYN6SOXT8sjvRYVEsnjOX0YOmE374ID16dmLxwo3MmLaEGTN/ICxsGxNHT2bP9s307/8NEyYsYcuPi2j+WTMOJ+ewaOxkpo4aRPiZk7RvG8jKhQuZP3sqLVp1JS7hNIH9htG6eRCbd8znk4+/YNfmaKXLC0l5CV26dijyOnZIuWioyCHloqGHq16KC0hZnKlej4q8EPdC/MH1NPz4I75o3YEhHT7mpfqvM2vxJs4dj6Bvz+GKlCP2bGNAn4XEBgczsXdLQo5lErXlMIM7dSLalcOmlTuZOO47toZsolGjdwnq0JLP32nINwNns33hPgZ170e8kcmWBSuZOvpbdgRvZ2SvCfhSs1kydx4/jFzAkoWzGTSol4Qfq0XXsjDNdE6ERfPduJH8653XGTN2MSfW72dozyFIxPXaybOZM24489Yup2/vidKLpyzkb3oOZt2m5Qwa8C2zpm4GUunSqQc7Nsb5del3XAPLVyymS9d2RV7HDikXDRU5pFw09HDVS3EBKQttCXn5DAyvl5Vzp9GzW0cWL5nHmoXT6denDwMHjiT8wFH69hhB2tk4ToTsom/vJZzcuZ0p/Vux/6ibyA2hfPt1N876NNYt3ML3oyey+8g2mjT9kMXff8vaOUtZtSOC/UsO8m3fYcSZGWyfv4JZ48awced6Rvf5ATM9l0Wzf2LSqMWsWjaPwYN6ovtJOT0tjo0bfmJgr2GsXzmfxv9pyLhxKzm+dAcje48gBlg1/kfmjxvKvHUr6NHN9pmbdOrcn2271jF8yESWzj8IJNK50zfs3HhW6VJZyqoDUEh5EV26ti3yOnZIuWioyCHloqGHq16Kn5Oy7jWQoOHE6Eh69R/M/l3rVLSEVDTuRDh9OrRj4bLd9PlmBH06tqFfl9a0bDmZsyEH6N/iXcZO3Ubwoh2M6tqNOJ+PNfM38u2AEZxNP82ob/sQ2K4JQ7r146dVRziw9BADOvclWktj3Yx5TB05nN2hu2nZsCPbV6xltnRCDp1LXPRxBg3sTlDvsfTtMZwpk8cwZ85wPvznZ0ydOIIWrT6nfftvOTJ/A80bNmVx6HEWD5vA3LFDiEqIo2O7oQzt05eg3l3o0WMo51LO0uubwcycsg2TWDq078amVRezlB1Svuob+BWsgEPKVxDsa7koiVO2oy9kNJ8V5GCQmXKOnftCycpIUoM9xEjV3dkcPbifqDPJREacYfoPE1mxeD4HD8ag52Sxf8tKVqwJJT4ijuMHDpJt6MSfTuTooXA1IDsmJoppE8ewbN5isryQHptJ+MEwsk0PiaeiOX4olPTsdNYv28z/s/ceQFZd6bmo7Kmyx1V36j6/mrpVz7fKrnIoz5Sn3pvyczncGftdj589M57x+Eoj6SkgoQQidW5yDgIhspCQhJDIAiQUyDR0pAGRQ5NpuoFO0DmdtOP36lv7/Kd3N93Q0Kf7nG7Wgt1rn7XXXuH///Wtf/8rnT5yDKVXr+LqRW/5d3nZVXy0aj0+Wf0ZKivLYBqN2L1jH9at+RCnTn+LI0cuoPlGJfZ+vQeF58pQefEaykqoCQM11c1Yv2YNPl71Lm7dqlFhJeevovJ2E1y04syZ87hbHVI75jlcMajm+wE7dn6N7OyMpGe/1pSTg0UalJODD4O6FGzM3KaTK/p4r/Z98M88i9ZO9oMY1JXtReG5IRF3zqNPt3vPHsyePacXbyY2igblxNJfctegLJTQ/iNRgA2ZAHT58mW190Uw6M0pFnDm5kDi/PcSNtR8Ls/m8mpu+i+d0IkTJ9Q2nsleVw3KycEhDcrJwYdBWwoCDxszz8HLycnptG0nn1FbFHAatJV8iIILsLHekUhE7THNfUG48X+yOyk7y6k3uU8ctzQoJ472QyZnAebS0lIcPHhQbSI/ZCrXh4pQYy4qKlIb3g+GjkmDch+YHcdXNSjHkZiPY1LUCGU3NAJPSUmJ+lS/dOmSOoGDp3DwXLyamhp1Xh/P0OuPi/nwYto8fYT7O9Pvj7zulyY1YpaDG/7v2rULp0+fRiAQGBRfCxqUk6MFa1BODj4M2lJIQ6ZPR2DmAak0ZfDgUp6TN2zYMAwfPlzdv/TSS+iPi+nzevXVV/Hiiy/in/7pn/DMM8+osP7Ir6c0mXdKSoo6p49fDuKEPvI7GX3hJcumzReJ45AG5cTRfsjk7G/MrBR/U3umTZWNmxfP7/P/lvB4+RxYk8E1nlqdlpaGK1euKBrHK4+HTUcYzI5Kmy+EGtp/EAU0KD+IQvp5ryjQVRPsDqh7lVAcItFsMW3aNHUaShySe+gkWHeadXh1pctDJzaAL/h5xg5o1qxZ6oivASyCzgqABmUtBnGhgL9BM0FqhmzYAkz8LXH6w2eeTJeONt3x48cru66E90eePaUpdnapO78aeJ/sTurDcmpQThy3NCgnjvZDMmdp2PK5zt8EJV79CcxiWiBROdiWnZ2Na9euKRpLmQbKZz0JwgLK0jklO8OFPiynBuXEcUuDcuJoP+RzZiMXIO7vykpezIezIyZOnIjr16/3d7bdpi/gRp9OfncbOYkC/eXUoJw4xmhQThztdc5xpoCAIM0X1JQTBcpxrtaAJadBecBIfd+MNCjflzz64WCigAblvnFLg3Lf6BevtzUox4uSOp2EU0CDct9YoEG5b/SL19salONFSZ1OwimgQblvLNCg3Df6xettDcrxoqROJ+EU0KDcNxZoUO4b/eL1tgbleFFSp5NwCmhQ7hsLNCj3jX7xeluDcrwoqdNJOAU0KPeNBRqU+0a/eL2tQTlelNTpJJwCGpT7xgINyn2jX7ze1qAcL0rqdBJOAQ3KfWOBBuW+0S9eb2tQjhcldToJp4AG5b6xQINy3+gXr7c1KMeLkjqdhFNAg3LfWKBBuW/0i9fbGpTjRUmdTsIpoEG5byzQoNw3+sXrbQ3K8aKkTifhFNCg3DcWaFDuG/3i9bYG5XhRUqeTcApoUO4bCzQo941+8Xpbg3K8KKnTSTgFNCj3jQUalPtGv3i9rUE5XpTU6SScAhqU+8YCDcp9o1+83tagHC9K6nQSTgEBZTl5xH+atL9wEs8fpu87b8avN7lPnERoUE4c7XXOcaQATzjhRXfnzh21yf2NGzfUb4Iwn/FIKrqBOg1FZTaI/mhNOTmYpUE5OfigS9FHChBQqN3Rtba2YtKkSaiqqoqlKoeX+sE79lDfKApoUE4OQdCgnBx80KWIAwUIypcuXcLWrVvx1FNP4ZNPPkFubi5oxuAhpgRkwzBiGnMcshxSSWhQTg52alBODj7oUsSBAgTluXPn4rvf/S6eeOIJdX3ve9/Dhx9+GDNtMI6YMeKQ5ZBKQoNycrBTg3Jy8EGXIg4UIKjk5eXhBz/4QQyUf/3rX6OkpCR2ojTjEJTpa9eZAhqUO9MjUb80KCeK8jrfPlPAD6xy39TUhFdffRXf+c538P3vfx/r1q2Lack0Ycgl8ftciF4m4LomHFiwHMCxeZlgCMcmXceFDQ5CuoA3VqlSZbfhMoyB6pENFwEAhoTCdZmYA8txYcABf7oOYKkXXPUeE1NdkJdgjyXWoNwjaQb0gQblASW3zixeFCCA+GdR+M0Smzdvxh/90R9h2LBh4PQ4OgGcgQZjqa/rhmG7BsIWYJsubDOEsGvDsQDXdmAiBBcmYHsY7IGwq4AcMBXYmk4EFu4AbjssGwgaFhyH79iIOC7amF7EhhM2EVYATXT2gD4Gyj7Ql7KJLzTib9Jz1qxZOHDggDzW/gBRQIPyABFaZxM/CvjBmKkSTKgBi6348uXLSlvevXt3LFM+k/cSA8xhWG5IacpWxEUkHAJ1ZWq2VIQdRACElNartOWo0kztmkjtKcQGbNyFbQdhGC5CBjV/A0zUcF20uBbckAUnZCKo3tGgHBOAQXSjQXkQMUsXtUPjFVoQaHnREZjr6upQWFioZmDs378f5eXliEQIeN67As4qYAD/uAjBtFpVjtSOLduC7YS9Eig11gDQDrhUpT17A00XbhSUPQ2aU/4aQf3ZiHgmDZo+YDiwHRo2XCBsA6aLIE0jtutLy0vTbx7pWn2tKXelSGJ+a1BODN11rn2kQFdtt6WlBSdPnsSePXvUwB5/l5WVgcBcXFyM2traWI4EaQHyWGC/3wTQ1laNihu1MCMubMeAY4RATPXsxkG4aAetywo42c/QOKwszy6NxLR7IBypxY3yaoTaXdy4XI5QMASY3sIYArHZ0I6qsgplylCG5BjAq14pZmPurroalLujysCHaVAeeJrrHPtIAYIHtWI62j6vXr2KXbt2oaioCI2NjSqczwm8BOdvv/0W33zzDc6cOYNAgANliXBBnD6Vh9TXZ6K50RusU6N8qiisSxOiw3MdwMkRQdqZxTkOrl09jawJC1BXFcLer/ejqaFZgTKis0lunijBvKmzUB3wtHK/1q1A/j6zTjQoC6ET62tQTiz9de73oQBBleYGAVjRbumHw2HU1NQoU8XBgwdRUVERm+ZGcGEcP8hQU2a8vXv34ubNmzH7s8T1x+e9//d9ivgQj1pRcq4ALz85Ga2NAbS0XkdVWRVKr9QiGGxFIHwVLa0tKj3OpKivDwOGCSNUj4ulpbh6oRJuxMblC6fw5pi5CDQ4iDQEYUZsZaJorK3BpbLrOLEnDxPTxqMm0O6VzbNycNjPM40oI7ayl9xTdj+99EDfPeQZsAANygNGap3Rw1CAAEFgIPjSl4tpcNrb4cOHsXPnTpw/f/6+2q+ALt9jGlzdt2PHDhw6dEhp1QyTOLxnJyB2ZwFn+n13rTh1LAcjX1iIm5duIjvzOcycvgAvPjkeG9dtQPHpLVj13ocqm5LLVzBj5ntwmpvwyXtz8fyI1zH8+VTsWL8FFTeuYmzGu7h9pQXvTl+AitvVuFNajnfmzMCb6WMw4dUxyBydibuGZ0f3BhGJ254pRNmslV3j3hppUL6XJokI0aCcCKrrPB9IAQFlAiU1ZfqhUAicWbFv3z4cPXoUDQ0NKh2CKJ9355iOaNrynHtjHD9+HJydwYUlTLcr8Aog811efXetOHV0P0YOX4hrx6/iyX/7e5w4fxHH9l3HuNfG4lr9McyePg8t9SF8unkbVr6/DU6gEbu2r8Lpsiv4fPNuTHlzNG5euYixWatx43wdpo9IQcXtSqxevAwbPngPYcPA16s34I0XR6AqFPKKHJ3FYSs7huFpyxqU+87OfkxBg3I/Elcn3TcKEFDpCLjc+Y2r9Thv9tatWzHzgwB2T6DM9wVgmR4BnNo372n+KCgoUCYNatAyS0OA+H5g//A1C+Ps0Ty88spUVJ2uQurzw1FnWbh2qAKTRk1FM9rx9ZZtKNibhwkz38G3Jyrgmm24eHonJr0zF7/9zfOY/MZruFNeipHpH+L2pTrMGZWCa9euYUZ6Jo7nefOJa85dw+TMKbgVUHMxlH2aY4QWp8iBMzz4q3tHmvhprucpd0+n/g7VoNzfFNbp94kCbW1tOHXqlJpFwdkVwehAnYCxAlDHhq0Gxe7NiiDDOE504E/eEwDmBkUEtpycHDVQyMUmjMP3COYEe4Jz352Fc0eL8OJrY3H7cDUmvDABFYaBKwcvI2vYFLVOr+RkEdJGjMC8ZevQHgTqLp7AK7/9v3Hw3FGsWvER0p77LUrPncIbaZ/iVkkT5ox4E6XXr+GTpcvw6fKlCIaD2P3JZxj92jhURLxVfyx3ByjTpMEvCm1T7js/+y8FDcr9R1udchcK+DWxjkceQFAp9k8MIBBev34de/fuQXHxodiUNk4ho3WUwGlZ3uJkx/Lm5BJ8mIZDIOZEM2p+DufwOirMdRnPVmGWyd3iaBrxAJfgf/bcWezevUtNrWtvb4/ZlgWkmR6d+B116N1dycljyJg8CdWn72JR1grUASg9fAWLJy7nDGW0t1Ri5Msv4rOv81SCoTtlyB7zJF6fMA6LFy7DjLFvIm/3Dsxc+BWqrjXj3anTUF1Vibs3b2LBtMlIzUzBlFHpmDp+Ouqic7OJvzS+WGJT1qDcO2YlMJYG5QQS/3HLmmBGgKMGqgBTfS7z3tsPgvTgs+rqShw+XIjcvP0oLb0G0+RnN2BbXMVmotVhGoBtuGjnyxE1UQH1jONwLYWDdu7+YFuehqzCCchcmGHBMcNw7Qhcx4Bth2FxzrCCLqCyshL5eflKM+dUO5ZX5c2lzJGIAmpq1xKuHvbmj+siHAqiobERjumgobZRabBmyEBLU2vUqOCgoa4OoXAkqss6aKivwZmSc6ivb0BLUwNaW5rR2NwOy7TR3NCg6MXsmxsbcO78OdTdrUVLcyvMLoOT0e6kRy2ZaQhPeM8vBG2+6A1j4x9Hg3L8aapTvA8FCGZs8AQAz9brgR7XSbS2tKsBuL37duN8yRmEQm1wuJEPV78RbaP76wQVaLhwwtwzwvs+57JjgrJhu4jYNgJcdGFFYHHmBlcbq2lunD5mwjZCsIwAXIuDYRYiVgghM4iQGYbjeiYLmjQ4t1lmaVBzFxszfQIz6zCUnAbl5OCmBuXk4MNjUQo2egIafYKzgEA4bOBGaTn27zugQLC+gavvOLPWgmVHYFqepnzrViVy84uQU1SEiipuzAPcraxF691WcAuIoANEXBcRx4LpmHAtarQOIpYDkyYOzns2QnCtMFwnjLs1t1BXW4lAuB0R21CgLOUjQzhLgwtPOLf53LlzauqdlJnxmN5QclI31klryonjrAblxNH+scuZjZ6NXcCMwFxdXY283HwcOJCP8vLbMbOA7XAptKF2QeP2lBcuXMSM6bMxYcJUpKZlYM78BSi/fhPrF6/G/p0HY7SkFh2mycE38GdQU6amLc7l1DATn2/diG3bNiFk8C1v+Itl8jT4jvgc/OMJJlx8Qjt3YpZpS+EHxmeno80XA0PrrrloUO5KEf273yhAUBZNlANpnFXBvSrOny9BIBCBaVJ75qAc9x2mlksTgYW7d2swbdoMbN3yuSpbJBjBsvfexxdbvsTaGcuwdu1mXLlaivZbDWiDpy23Vd/FlXNn0dTU7A0MukDF7ds4f+Yk7lTdVGaL9Ws/wtYtG9Ha3oobN2+iNRDwtOluVhGy3DxqiuXlwhVufDTUHUGZs1K0G1gKaFAeWHo/9rkRmG/fvq1MArTXxvY75sAdd4BXg3Km2rDHm8zl4OSpE5g+bToqKqs9+rlAWziElvoWbJi0GGPTspCWNQkrM+fi2t1a3L5Tg0/fWoTUESOwbv0mBMI2rt+4henTpmHs6BGYNX0SbpVdxudbN2DzpvXYtv0LzFuwELcqKlX6jtNhWmF5qTlTg6aTKXpcFXjx4kU1je6zzz7Dtm3b8Pnnn2PLli3g78F6sfysy8aNG9X2p+SRdgNLAQ3KA0vvxz43ghyXRm/atAlXrlxRmjOJIidmGKYB04woUOZOajQqnDp1EgsWvI27d+u9+XBGxwDbpvHvYPGK93G1rALLxk7DvpPHsG7bZ1g5eQYK9+9DZvYUnDpzDe9/8DE2bNiA9tZGFOXvR/mNy9i2ZT1+/etfYNqMmSgtr4BlewDMPFlOOWSV93IRoLnPBkGXJo0vv/wSixcvxpIlS7B06VIsW7ZM+bwfbBfrwTKzLosWLVLALKsmH3vBHUACaFAeQGLrrLxpV7Qrc59jWbBRVVUN0/CmxnnTzmi2oLbMxQ4uLl++hNmz56C0tNwjoQvcrq3F9atl2DJ1Obbv2IOm9jBWZb2FA2eO452Vy/H6r57ExLQ0jByZisJDZ/HW/KUoPnS4Ews2rl+Nf/iHv0X2+EmoutOgpqGZHIiMLhohKLOs4miyoOmCJgzOzpAFKPJc+5oC8aCABuV4UFGn0WsK0DYrpoBgMKhmNezbl4MTx06jpblNzZYgILuuEQVlG00gOLfiAAAgAElEQVRNDXj//VVYu3YDGhuaUFNRjZkL3sbHH32K9VOX4Otd+9HYEsLyrLnYf+JbbNi+FUunzMDJ4kP44ovdKCtvxvvvr8PGDZvR1HgXJ44VoPTaOWza8DE+WfMxFi9ZgdWfbEZLGwcXPbu3DOaxrNzuk6YK7rlx7NgxNDc3q/pSa2Z9xE7OuNSoB6tj+aUOrAfrp93AU0CD8sDT/LHNkQ2e+074Gz8bfkNDE44eOY59+w6owbSA2guYU+e4qXtAHQ56/XopFsx/B+npWRgzahwWLFuO2zer8NWytcjNO4SWdgNrF32A4oslqKi7i0VTZ2DsiDewbMmHqK0Lory8CrNnzUXq2FGYPiUDly+ewN7dX6IgPw+XLl/H9JkLcfb8NbVKUJZks9Og/Zt7bnCvZs4UEaASQKZPABNw9oOamDwGoy/1fGyFNYEV16CcQOI/blkTnGgO4CUas7cIAzAMG+Vlt9S0s8LCPFRX31ZT4jhP2YrOU25qasGFC5dwvuQimoLeNLZAVSuamgIIRVy017WhwQirbXfqKypx4cxpNDW2qUNGSeuqihpcOH8Gd6pvAAgg0N6AYMA7hLSyqgFNzQGYJk8y5X7G9cpUwc3zuTMdAZqOYEXglXvWQ8LEVw8H2R/yRpz/XsK0P3AU0KA8cLTWOUUpIJojf/Ler5XRVHD27Fns27cHJ04cQ3MLT+Tw4kVfj3nqDDoeOsp5yDy1mTM3uPDBN0eZYXymTlaKvcmlgbQVM7bbaQ4zp+pxoQiPkeL2nv6BLgEr8Zmc1IV18IfHshokN1KPQVLcIV1MDcpDmr2Do3JqbrLvlBGWmieFcFCN4Mg9KLztNqMbEall1579k1orp7CJ9tq1xgyn9uuBJrVcT9P13us4YYTaO2dVcIEIZ1VUVVV10ui7pqt/awr0FwU0KPcXZXW6D0UBgqZcArA0DfDoJu6hTLsuNwviM2p1YsPlgJyEdZch4/rTld9iRuG71Ia5nJoDeVwgwg6AjnF5z7y00xQYKApoUB4oSut87ksBAieBkj7BUMCToEmTAk0anEJHkwKPg5Ln/vd6yoDpCnBL2vS5twVNFdzbgqsLZVYFn8kcZQH0ntLW4ZoC8aaABuV4U1Sn99AUIPDJgJmAsoRJOBOVwTeC84ULF9TgG8FWwLy7jPlcgJU+HeOXlZUp7Ts/Pz+mgfMZAVm0cL7LSztNgYGkgAblgaS2zqtbChD4CIQERDr+5j0vAmnX3zwOiiYNHuXEKWveDI6O2QP+TCRdSYe26uLiYvU+TRUEaDoBbslTfkve/jT1vaZAf1JAg3J/Ulen/UgUEHDmy/57f2KcpXH69GllB6Y9uLGxUT0WUKXvf5fxubybA4cnTpxQe1hIev54EqZ9TYFEUUCDcqIor/N9ZApQu+VFLZYzJqj5Emxp0uCGQQRZPqMTUwU168LCwk6mikcugH5RU6AfKaBBuR+Jq5OOPwUIuGLz9ZsmaCPmVDZZecdntEFzYJCATFOFLJ2W9+JfOp2ipkDfKaBBue801CkMIAUIymLvFW1ZtGKaKEpKStRsCq7E2717t5rq1tLSokrIeARkTnNjGtppCiQjBTQoJyNXdJl6pEBXUOYgn4C0aMA3btzAmDFjlJYsCXH3N8a1uYGQnlEhZNF+ElJAg3ISMkUX6f4UEGCm3/Wev7nFZlZWFkpLS1VCDm3MRgCGZcByHXWSNRwLtguo1dkuZ37YautOTgBRk0BcLhjhFqIcbfQGHHlmIE9CYR4qMlOPRmA0W5ZaR99R76nTBjui379m+qmmAKBBWUvBkKGAAktAgXJ2djauR0HZJsCa9Qi5BsI8HMpsAawQIi4QcFy4Risch+dfg1gNK8Ipcu2wcRe2xRNRAKbBM7ItJwDbsr2tM0xuoWF7J2C7NsKWp7UrwPa21VBHUXGrfr0mcMiIWb9XRINyv5NYZzBQFOgRlBWqtiLsRhAh9FptCnlNFwhxcUmkFa4bRIR7anCTOAswrEYYbgVsE4iEeeCJg7DRDMNqg+u4cEzACdlEaximCcOxEbYtUCtXSEyTdfSWW/V3bJU/UNTQ+QxWCmhQHqyc0+W+hwL3gPJ1z3yhNiFywrDcIGw3CMcJewe08lxA4qplwrIDsF0DpuGCO4UaVgtMpxpW2NOcFfCaLTCtNrURPo+vguHACXunkxCUQ5YBkwnSfBEFZd5qTfkeVumA+1BAg/J9iKMfDS4KdAXl0igoc6JFkCYHp1Xto0xDhEHQNLnnp6u02IgZpOqrtGAzAphWK0y3RiGqzUemA8tug+0EvRWGCpRdIGLCMi1EHAsRl6aMKCAzfcfDZ2rJ2nwxuGQpkaXVoJxI6uu840qBe0BZbMq2gzbHRaD5Fq5fKEJdawtouqCa3NZQizNXb6I12Ao47erkEWrKttOOxuaruHquCm13HZScKUFbay1sJwTb5jl+QGNNA66evwjTMBBxHQ4Lduzl7ANlArK3lCWu1dWJDVEKaFAeoox9HKvVEygbEQs8N6S9sRzvLZyEA4WHYiB55lABZi9ahZr6O1FDg1DOxekz+zF74ircLTNxtOiIOgmbR1SJO3v0FGZPnIL2tjYYcBCBC4OzOxghqjEr7NegLCTTfi8ooEG5F0TSUQYHBe4F5euq4EbQREjdBbFt7TJ89MmnCHMunGNj25o1WPXpFpi2idqaGygoPIRj355DMNCC0yf2Y3raCjTfdlBbUQs7EoZjG7hyrRTfHj2BbzZvx9yJU9He2goTLrgLM4E5BsrqxtOSqThrpynQGwpoUO4NlXScQUGBe0HZG+izgqaak0wD8YWzh7DwnQWoqalHe0MLFs2eh9NnLiLU3oKVSxcgM3s8xo2dhM+3rsfZEzlYMP5j3DwZxDvTFqG+ugqXL57HzNmzMXfuQqS88iYmjE5BMBBQNuMAZ2jA8bRwAnIUlH23g4KOupCJpYAG5cTSX+ceRwrcA8oc6OM6j4gF16CuHEYgUI+3583EqaPHUHL6Alat+Ait9fWIBFtw5HABvj1xEu8seA9zpk/GySN78c7Etbh2uAVTxk5FdVk55s+djc+/2K720Vi/cjUy3xiFUCCoQDmoQNmNmUY0KMeRuY9RUhqUHyNmD/Wq3gPKsqIvbAJGCxxlZHCwa9t6fLF+LZYt+QA7d+arhSSB1nrk5h/EkuUr8OzTr2HW1Ek4czQH74xfi8sFTZiXNR8VV0uRnZ6K4ydOKVKeLjiKqeMy0NrcomZwhOCCwBybaeFTkaNK81Bnga5fHCigQTkORNRJJAcFegJlmxvZW00wHFp+gdqblzF/ykSkpU3D+QsVamnHmeOH8PzLw3AwLx/zZi9FZspYFO7fjvkZH+FqUTMmj5qK+ooavLdsKd5ftQo1NTV4/+2lyB4xBsG2Ns984To9gnJyUEiXYjBQQIPyYOCSLmOvKNAVlK9H5yl7NgzT25uC04dtA++/uwIrVryP5uaAmlBcVXkbEyZNwqTJk7F8+UrMf+st7N75FdZ//BluXqvG8sUr0NrUjIrbtzF33jxMmjQFkydMxLJFixEOhdRKvrBpqClxnbTiTj96VQ0d6TGngAblx1wAhlL17wVlb/ZFd3Vsam5GY2MDLMtUGwxxB7m7d+/i6tWraGhsUIeotra2obWtBeFIEHfu3lHLqZkWTzm5fv26CmNcvmuZJtzoidzd5afDNAV6SwENyr2llI6X9BR4GFBmZRhftv3kBvhdnezTzDiMy61Bu9uHWcK7e9Y1Tf1bU+BBFNCg/CAK6eeDhgK9BWUBY4IptVxuli97MctG+AyT8K5hAtB8RwCZvoD4oCGYLmhSUkCDclKyRRfqUSjQW1Bm2gTRroBMTdcPwNSeGU9A2H+cFOMJaEtajCdleJTy63c0BUgBDcpaDoYMBQQQm5qaMGHCBJSXl8fqJs/EJwATTHmJ2UFAWX4TdCVMQJg+L6bDZ/Jcfkv6sYz1jabAQ1JAg/JDEkxHT04KEAx5Ufu9deuWOnmEh6USdAmuBFI/gN6vFl2Btevv+72rn2kK9JUCGpT7SkH9ftJQgIC8fv16PPnkk/jhD3+IX/3qV3jllVewY8cOBc4sKEGaAK2dpkCyUkCDcrJyRpfroSlAwP3www/xh3/4h3jiiSfU9cd//Mf48ssvlZZMjddvfnjoDPQLmgIDQAENygNAZJ1F/1OApgm6y5cv45//+Z8VIP/e7/0eUlJS1PxjPqMZQ0wZ2iTR/zzROTwaBTQoPxrd9FtJSgGC7YIFC/AHf/AH+Ju/+RscO3bsnpJqQL6HJDogiSigQTlJmEGgELDgJ3YwGERraytaWlqUz3t93Z8Gzc3NaG9vx/bt2/GjH/0IkyZNQn19Pdra2hQdSUu5NC0705K0I03oyz1lUGQySZrJY1EMDcpJxGZ+grMRcErXJ598gvHjxytgmTx5MvT1YBpMmTIFU6dOxbhx4/Bv//ZvapCPYbw0/e5Pv4kTJypZY0cmtNq6dSsCAe4Not1AUkCD8kBS+wF5UUOmzTMcDuPGjRs4c+YMzp49i/Pnz+vrATQQWp07dw4XLlwAp8ORbqdPn9a0ewDtRL5Iq1OnToE0JD3LysqUPD5AbPXjOFNAg3KcCfqoyVFDlpkB9LXTFEgGCmjzxcBzQYPywNO82xxpuuCULl4yk6DbiDpQU2AAKCBKggblASB2lyw0KHchSKJ++hsBTRgcsOKAC7eJlMGpRPgsB69E5P2weZJWHNgTmnU3wPewaQ50fJaZA2yhUKjbAcr+Kg9ljWlzsI/042/yXSsIA48IGpQHnuY95ihaCQf6Vq9erZYKc+CF+zj098WBHv8lAz5jx47F6NGjY8/6uxx9TZ/lZj1SU1ORlpamBq2kXkybzweKpr2ti5SZ5WSZhw0bpq7s7GzMmDFDDV7yGQcsJU3/O3zG8K6+xO2tL3RhOrw2bdqkB/p6bK3990CDcv/R9qFTpi2ZwCwDfRxw4SBMSUlJv10yyEOfg4qSF/Pes2cPVq5cqVbE8TkH0OR5MvpSPpY1JycHa9asQVFRES5evKgGr6SOMhiYDHVgmXkJffPy8rB8+XLMmTPnoeXH/wLTe5j6SXwO8Mk9B/poTtNuYCmgQXlg6d1jbgRjsScneqCPZSFQHD58GNXV1YP2E5YzWNjR0BwkTr5G5Hey+jRhJIMbLPRKBlrFqwwalONFyTikQ/udLAPmfX+DM/NgR8B9ggW4eCBoYWGhWglH+yyfsxzyPA7V7LckWB+5WF4CG7VFan/8+uAzqWuygI18HQmNWcZEONKDvKbPi+WRsiWiPI9znhqUk4T70hDYKNkYBFykYUhjiafPRihgSwDjvhH79+9Xc3wJYnTceY1A1p/liEedSC/pQOiz3Axj2akt85L68lk88oxHGqQ/aStlZ5r8HU/Xm3KSVoxHn2WiL2HxLItO68EU0KD8YBoNSAxpENKAmKmExaMATKs7x3COsh8/fhy5ubmoqKhQ0aRRCsD19H53aSYiTICN5fUDHMvCDqe4uFjZlqUe9OWecfz3A1l+lpW0FsdyxBuU/WnLPX1/nXnPi2WRMvmf+9/T9/1LAQ3K/UvfpEldGh19afS8JwgTjLmSi+DMsK4gwbDB4rqWVX43NDSoQT+eVs0wXgJArJsA+WCpZzzKyfoLfYQe8tv/LB556TR6TwENyr2n1aCNyQbmB2L+pvbIwTyO9nNJsnzSE5ykYQ7aCncpOOtLx/m3+fn56pgooYmYD/ibdX/cHOtNfgsoi5Ys9KCv3cBSQIPywNI7Ybn5Gxe1Rs6s4Ce9DOaxMXLBgoBzwgoa54zZGUknQxpUVlaqgUx+ITCc9ebljxfnIgyK5Egb0kDowN+8hHaDohJDpJAalIcII+9XDWlojMNpYpzDe/LkSbV6iw2PQEyNkeBEfyg1RD/QSP14oCo7pbq6OlVnAR/62mkKJJoCGpQTzYEByp+zKbgLGGdXcO4xwVcuzlAgIBHABKAGqFj9ng07GNaJHY//K+DKlSsKmLl6knGk7v1eIJ2BpsADKKBB+QEEStbHBJKeNFrRDqXsNFHQlkrtkPsb0Mn7fhCWMHlvqPisF+vJTkjqSxrRpk4TjuwZ3B0w90TjoUKbeNVDaKzp1XeKalDuOw0TkgKFv+slGiG1Yj4jyNBcsXfvXrV0lqBEx3C6x7UBSb1JB04FPHr0qFpcwnA/aMtvhmn3aBQQWj/a24/nWxqUBynfRdj9Pu8FcKn9EWyoIXNQS4CFceQdCRukJOhTsUkn2phpuuEXxIkTJ2ImDNKFz+nL1afM9MuaAg9BAQ3KD0GsZIpK0PCDq9yzjFVVVUo7/vbbb9VgngCMlJ9A448v4Y+TL8BLOnC7ykOHDuHatWuKBAwTMCbttNMUGEgKaFAeSGrHMS8BZQEXJk3zBHdA42IQLpLgbwKM+IxL5wedOBZp0CVFelBbps/9g/llcfPmzRh9hMaDrmK6wIOaAhqUByn7CCRysQoEFQ5aHTx4UC2SkGoRWAR4JL7fl3iPk89OiRdpw0s6rdraWqUxcy4zacRwodXjRB9d18RSQINyYun/wNwJCgQQOoKrAArDxXEwj1PduCMageR+ToOMRx2hKX8RmIWeNP3QDk+AZpgAtz8+3+GzrmH3o7t+9mgUeBxprEH50WRlwN6iUIo2J4AqwMsVeByg2r17d2wjoQEr2BDNiDQuLS1Vq/749SEdIatLXghIiD9EyaCrlUAKaFBOIPF7k7WAMmcJyGc2w6jJHThwQIEHz3XTru8UIF0JygRifnVwoJSbNNGxY9RA3Hca6xQeTAENyg+mUUJjECQICP7VaDzeiNoxNxISoNag0Xc2EXTF/k6fi0uOHTumaN/31HUKmgK9o4AG5d7RKWGxBCjoy/aTBQUFSlMWAOEzDcrxYZHQkqnx64SgLLvoMYx0ZkepnaZAf1FAg3J/UTZO6RIACBS3bt1Sc4+5Ao1gQXAQIOZzXtr1nQICygK8skE+tWY64YfQW9O+7zTXKXSmgAblzvRI2C82bpoiCLR00ugJAjxjbt++fWpxg4QLGMjvhBV8CGbclbYc8OO5hdevX1e1JU8EtOVe3hmC5BgSVRpM/NGgnCQiR6GRwTwBZoIBlwAXFRUp0wXNFYwjgJAkRX8sisFtPvfs2aO+WFhh4ZFUnvwjX+hrpynQFwpoUO4L9eL8Lhu0NPaysjJ88803aiMhfkKzwfMZgVk3/DgT/gHJCU+4qIQzXu7evaveED7Ql45Swh6QpH6sKdAjBTQo90iaxDygCYPLfbkYhCBAx82FGM7d36gp64Y/sLzx05u2fS5j56CrOIK2xGGnqZ2mQF8ooEG5L9SL87v8RKYmRlDmJjliY2aj55Q40Zb1Z3KcCf+A5Ai4BFvyg/fcuIhmJfJInICyaMwSrn1NgYelgAblh6XYQ8RnQ5XGKr68zsbrb8BcRcZ9KzgHWcIFCEQTk3B/upKe9vuPAqQ3eUH6y3xx8omLS7iqkk5MHF353H+l0inHiwLSrqSdSboMF36KL8/609eg3I/UJVPJaGGu/zfv6bgaj1qX31bJcBEC8fuxmDrpR6AA+cfpiZzH3JW/j5CcfiUJKND1a1T4yjYol7Tb/iyuBuV+pK4fkMlwfv6KxsVseVYeTwXh2Xm0F4sTxlMQRAOTZ9pPHgqQl1zII3OY+VvzK3n487AlIe94kY8yjsM02A7ZJgeKtxqUH5ZzDxnf39vynhcBmnsrcIrV7du3lRBITyxALL8HShAeslo6epQCnBnDgT/amckr8le7oUMB6WjJ24EaZNeg3I/yI42UPi86zj3mvGOedMGBPQFhPue9ON4LoEuY9pOLAsIjzsTgeAA3yNdu6FGAYCxt2d9G+6umGpT7i7LRzx4BYwIstWJOdTt//rzqdZm1mDTYI0sjpy9XPxZPJ91HCpCn5BtdTU2NMmXw5HDtNAX6QgENyn2hnu9dGZVnQyXQ0gmw0l7MAaG8vDzcuXPH91bHXgoSqLVjoUTy+8Jf6XjLy8vVF1DXrVSlw03+GukS9icFetu2NSjHiQskOD9zCMBspKJBcd9j7lvBGRZdG2ucstbJJIgCwmeCs/CbU+VoY2bHTJngKSbsiOV5goqqsx1EFNCgHAdmSQ/IY5nWrl2rbMVMVvY95kY2bMBsqKJVxSFbnUSCKUC+k6cEZXbGArwy53zGjBn48Y9/rIA5wUXV2Q8iCmhQjgOz2CjpCMh/8Rd/gcWLF+PkyZPIycmJATSf08Thn/oWh6x1EgmkAPkunSzvCdL8Td4/88wz+O53v4vvfOc7WLhwYQJLqbMebBTQoBwnjvHYoOeeex5PPPEEvv/972P58mXgdCniNRuq43jTpUxTbygUJ5InNBmCsIwdKDC2vNk1oVAQ06ZNVTJAWeD10ksvxcA7oYXWmQ8KCmhQjhObDh7MxX//7/8Hfud3fge/+7vfwVNPPY3SGzfilLpOZjBRoL09gK3btuBf/uVn+K//9X/DL3/5SzQ2Ng6mKuiyJpACSQfKYgqQT0NqmfKJSDpxMI1bJ/KInqLCQhQWFKiLK6vUVViAArmiYbE4hfleHIlbUIiCgqLoxXtJIx/5hQXIKyyKXoXIK+TFsOhVlI+8onwUFBXgYF4enn9umNKK/uC/PIEf/ej/RFraFGz7fDsKi/ajoDAXeblFKMg7hKKiXK+8+Yc658uyxcoXLRPjxOJ1KafE7+LnFeWBV0FhHgoL8lDU5SoszEN+YR5yC3Jx5twZtRNdS0tLJxGUz3DaSGXASvjSKeIg+OGXI9ZLHE1JHISlHBUXFyu7L+WkKHqJzNDvkAtPtigb+YX5KCw6iML8AsXXgqIDyC/IQ0FBMYqKjuDQkVys37gG//D3/xP/7b/973hn4VsoKixCId8rIK+jsleYh4KiXCVv+SJvSrYoZ4eQX1CE/KJcFOQXoyC/EIVFB1CYdwiFvC88gMKCQhQVFN2/3NE6sNxsG6dOnVKnn/v5Tjr55+OSVoOB54OhjCJzvfWTDpQJwBQOggEv3tNxgj73h+CBoZzr++GHH2LSxInISE9HRkZG7ErPzIC6fGGZGRnITGecNGRk+ONnIiMjK3rxXtJJU2mkZWbBuzKRlpnR+cpKR1pWmrrSMzORMjYdKWlvIHP8G8jKmoDx499CZvYEpGe/gfTMFGSkzVBXZuZYZKRnIiN9MjLSxyMjg/myTCyblC8LGekTonEmefHSs7uU0x+f76cjPTMdqVlp6krPTENmRhqy09MwPnplRfNIy0zFuIwULFqyCF9//bWiJ2eIcP60dIA0vfCeF/kgg1i9FaxkicdGy7LTJ9CwQ6cccXk7V1R+/PHHmDJlClLTUpGZno7s9AxkpXvy4smMyERUrmJykIaMzDHIJF/SpiMjexTSM1ORnj4DaRlTkJb5JiZMTkd25nSMGzcSqalvIisjS/GEfMkk39OzkJGZhvSscUgj7zLHIzUzC6lKttJVOukZE5CeNdaTn/RJyMgahcy0achMH4/MzNGgbGelZ6ky+8vN8A559u7T2Q6yszB//nx89dVXaoom+c9l4qQR6SO8pp/sgMfysZxDzSUdKItgkNgEBE4jO3HihBIiaizc/J32W8ZLPseFBF4n0lG2jlV6HWHJc8ddzrjwQQYmCVSyMo00Jg8E1JKn1A9fEtaTdeTBATzaiXXk/gb958j35OU9B5zZQZEmouhwcZN0XuR7craxzhxjOYeaSzpQFqEgoblfLed8co5vU1NTjPaM448XexDHG2lSvfGZrWNTEwvAdtpgmTZc1WfwD0HaBXirwlyvrXZqr/whEaIP/Bmrxt0poNuaeqm4cOCAf1WaLIj/Uk8d2CqOC8vu2JSdwMVpfdQiuRCCTug8GBpot0SJLm3nMmhutcll7qxTj85P5i7R5JFHWRcuTBIoyldqbI53b3NREPnO57znM+9esUUS8pXDS5N8EygXOeETIxpIAApH5Yf5Wyp+j3Xp5oG/7nJPBYh8Z4cse3gwjDyXON0klfAglk2D8gCxgcJAcwUBmZ/UFBAyQC7pxfnbiV7qmePC7Xp1jRNLhwLX9erIw0vbgeP6r478JF/lA7AsB7ZjwLJDiIQNuMQ6JdQGXLURkfoJx2EaPpxU5fGXI1qGGJbyN+vPy1JpeXX0peGLa7tRwI3WjWWQS+rLOlnRepG2cgnwck8OmogEmElv0mMwOn5p0VxB27E0YNZX7qVOSn5sB7CJot6l6ByTFxc2QSB6WbBhw1Tyofq8KG8cw4Vjegy2LNPrD9kBuhHAsQDiKi/HBoXEpUcQJz8QgQ1LybTL56osjBDx5Nq14SKkeEG5s107Wh5G9crWSS79bSNaD/JY2g99oQPrT8WHnReBWeIlM99ZNpFZ4eNQ8JNOUyZR+WnFwRduaUmi+wVEGKHCFQC5oKgq4Yk2plijsqPvQuIIPrGHpfBT07CVr+4Vk704FFbvLZnOZsOOTmtTylEU63gvbdnic4Ihy2yypbFheY2LDVfisZh0bPSsB8vur5f3O6ql2gRi0bpsuBYT8hq2a7lwVcP1lDSqTUxTNbSowLIs1OYkD/HZePlPaKvo6duekMC8c+dOZdpgWaXxeiVP3r+sHx19DuZRjriIR8pPU0xXUPZkicSLMtMnR16HGpUjBZwuTIeAzM7PUh0xOzv1LvlBpZaKsQJb8gKwyHhqu9SW2VlbxGN21mHFT8egzDHFAGxElNh4PTc7BwI3tWMTcAw4bhiOwy1CqSx4/QelOHZFO1yv0+X3UhfeR+VN+E2fTnwOflIZkg5ZPdR/BpQCSQfKbExXr15VO6l583x77g0pTkohFZKxPapADwHd6NxRPiaOqcfq05KNhYNXIdh2SPnUQumUJsuGxMZrcZVW2NNQqZVE7au2ZStzhW15AGA7LqgcmQ5HsC04pgHH6NgfWYpHX8WzOaBiwLK8I54EJJg+w9nI2fBcl/mYcLxQ5uAAACAASURBVGyCsqclWxECs6s0ccdyYESojbkqnutYMI0IIuGIV37ThGFZsNgQ/YV4wL0AGzUmLhOmWUMa7QNeTdhjlpk8Iw2lrNSOafpi+emkXvTlvmuBKTO2acE2oqaJrhEUD21F05ARgknApBSKMBIoww5cg19tBGQXEYO8jMAyOo6P8l4wQdaaIcDmGYyRWthuUGnORFzLDMOMBOCYEcBlHQjsUcfOmP+jWfOJARcR10bEsRGxTFVGia78BwgBaceL9nZ+XbD9JYsTnglvk6Vc/VGOpANlfkLRpskBPToKSU8NiO0gqpR4tFGoy0AHboRPgPrGRly4cgnXbt6EYVKjYZp804FpBWDZAaV9RMygmulhma76yrQ448AIwLHDMI0gbIsqkAPTMGGbDizDQmtzAKFABKbloC0cRiDC/S9sWEYIjtmGUFsLbl27jfLr5bh46RKqa+tU5xAIhmAYPKHaG/GORAjQPIePAOzZg22HNj0Dtm3AsQ20NjUprdgImTFNjJ/KBGh2ArYVhG0GFZgo7TnaCYVpnqDmHv2tiEI6yeVRrtu/nPnCwVUOBiW7o4ywwVJe6Gj+4gwD/6ClNGj63cmU+sow2KlaYMdrRgzcvXMHXDbN6+r1a7h5+xbC7PgsE4ZtIWK2IxRqQbAliEh7BE01DbDbvQ6eROfXlZI7GDBCDaitqEPZtTKUXivBtcunYQUdxU8zwrLXwrJaYRoWQoEwbCui5ESBr92uzBi1d+pQW1ON5vpmtNWGEGyJoD0URsix0W4ZiMBFgL5tKpMG2RxznX7EQmM3Anz8wmBnxi/VZHPd8S3ZytjX8iQdKFP42Zg4Mk4GiPbTXUUJNNQQvGYYBRr+oAZrO7hw9jzGpaTgmeefxTPDXsSqD9aguanVG5RTmrEJF2EFzrYdVg1ImSZo+uMUIZuaAr81TdVAHMsDegVoADas/Qyb1m1VRQtZFoIEZSpOKu0glsyfi1/+z//AiOGj8OKwF/DMC8NQdLRExbdsrvbzpmpxlZ9tESi8r2B+ylp2BA7tkHBRd+cOslMz0NLQohQsJ8z6wdPGTAtWpB1ACJbZAseyFXhfuXQFrW3tsGhrjH5AxICZjTP2417Kku4CYOfOnVPLxQXs7o2dPCEsM8tJn4CyY8eOGEhTjngJ8HTXuAnKLjvsqH3p0oVL+PWvfoWnn34ar732Gl548UW89fZ83K2vA01VNBGQP2U3SrBozlJcPnEVOzdth9UawfULZQg0cnMqgiP5aqH8+jn889/9GsN++xpGjXgRv/3Pf8HS+R8g1O5JsO1wB8E2OBblnnTllC8DlkGGGThx7BBefOZlfLxqFfZ9vQ/XTpfii7U7sOaTDcp84WnLQMA2EWGH72cNk7gPKJNmQiO+xq8MassMSxYnPBM/WcoV73IkFSizQfHcMw7uSQNiry0NqWvlKXTdg7IDMxjGW7PnYMPGjeq1u83NmDlzPg7sL1TCyUG5QLAJtt0O1w3BBQfpbLS2BGBG7CgoB4h8CAVb4dq0AdoItgdhGV4j+uj9NVi18mOEQmEETBPBCD9DCXj804oZ47OwZc32WLFXrf4Yb46diTDtzeDnajsMkzXw7OjBoPeZbdGEAXYYBtrbW3GnsgajXx+NyvJq73OVjZSV5+dxmO+EEQrVoL2tWqVF8H51+Gs4eeqMihY0jBgwq3bJPx6exMrmv2ED5UW6ywwYTptLZidlZhmp4R85ckRptw/TgBmXZgsnCkRnTp1GyriUTqdWM301dhBVBoKhFly+dAzpI8ejrTqoZMtqMZE6fDJOFV9SpidiPAdqz58uxCu/TYETnYnX3HQTT/7yVZwo9Ga6tAeuIRD0eNgestHQ0qryIq8cJ4wF82Zh2YJVHhsoQiFgzaKNWPPJJsXONsdCQ6hNac2EUnbIMRzmjVw9MFI6NOE7B/0qKyt7iD2wwSwTefw4uKQCZTYmDi5xVzVhgoBDd8ygXHrW1uhTCp3COw60Ofjo/Q8wfeYM5BTkoq61WSlALc3eoog9e3fit0//B8ZPHIf6hkrU1lZh7pw5+M1/PIVXh48CG+SlC6eQnvom0lJG4/Txb7Hq3XfxzJNPYeyb43Dm5HmsXb0Bo99IxUvDXkPGxEm4Wdms7IE0e8BtxMKZ07F728FY0ffkHMCEqctRcvEqUlNHYsTIV3Hs+DF8vu1zPPvsc3j6t8/im292qPihUBuWv7sQLzz3DNLHpOOlZ4ej6sZdzJr8Flrrgrh9vRIL5sxXA0FXLx3H88/9HM8/+wts3bAeWzZsxZ//2V9gxqy5CHD3MtrC/TgcBfSOFhsrorohzdkpspHS/+ijj5LyU9ZfapEXhnEeOxdFcJoXw/2u62//M97bBj+TvMZ/6uQpvPD889i2bRsKudquIB83yspgWCYCwQCWrlyJF4c/hVFvPo+0N8aj/OxNrF6yHPu37sRf/enfYULKLBgGZ0swZRcnv83BuOFTOmU56pUJOH/0LlZ/sAbPPvc/sGLlPJReq8TolEl46pmnMSplLFpbA7heWoKf/dNP8LO/+xXOfXscm1ZuxJmcS9i68it8+OE6NaC3aceX+MVv/xNT581GcyjYGYMFkDuTo1NZyG8qQfQ5zsGFNdwHPBmc8JdlG+ouqUCZAzJsAGxMdDIA1lNDYtMRsFEvUOAYyEblumiorcPiJUvwm6f+F37+H7/Gp+s2IGKYuHbtOmbOnIGzZ09izccf4MvPN6PyZjl2fP0NGhua8OGKj/DBe6vw5dfbMfzlV1Bx6wb27dyJRXOWoK66BvkHcvFt8QmsfHcVxo3LRFV1HbIyJ+KLLbu9ToHfq4hg9qQpePZ/DcO8OfMxZ85svPbmaBQfuYBT+d/iyd/8BhduluFsfhHGvDoaZZU1OH/0OF4aMQp3WoP4et0GzJk9E9zgZu+2HXjyFy+h8sItZLw2EtV3WnDleClGv/wG7rZVYWLWRBwqyMfdujJsWLsWV0uuIjUlHSdPn1XkoN6uFHj5glU0kh/3ijjpLcLPmTBz585Vc3zvjZk8IdJo6dOe/Omnn+LWrVueWPgG9livnuSJwEn7vc2BNQDnT5fg5//6S7w07FWkpqYhZUwKcvflqGdr3n0fCxcuR1uwGevXrsBLz2Xg4uHrmDRiJCpLyzFx5Ns4nn9JffGEvY8hXD1zFP/yk19g+sRZeGfuWxg3bhTmzVuBcJuDV58ZjndXzkIoUIvscROwbvNXaA21Yerc2Vi5cquanbHk7YVYNf8zxZv3Z61A3rrj2P7udmz8dCNKrl9C1pRJOH/lCpauXIWvdu5V5Yz9UaBMld3rcGLhvhvSxv+FumDBArXqzxclYbfC38dBW04qUGYvzU8m0ZQpIKKx9dyQ7pUTx7YR5uBHdNSdmuLOXTvx3IsvYMPmzSg+fFhtEvPSsGH4zS/+He8uWgIYNs4cPYGJqRn493/8GT5evRrbd+/F4qWr4TomVq9chS/XeQ1Scvz4kzVY+fFH6ufKBSuwb+suOEFO3fBizJv+FkaNHId1n27E6tWf4mDeIfXg/J4iTMmcrrT83ctW4eN3PlTgyYcjJ0/DgZOX8V7qFHz1+dcqfrCmCSkj5qHy5BVMeOVZVLS0oeZiPSaPScehskNIHzcLwSb2R54a5EYsZKSm4dLVK6ooIddRZh4WS8UQUO6hfYqmzMzJk61btyoboypMkv6hfIiMcDyCg8VcoUbH+kgHz/uegNnkwJrVBo4vsFM/9e0ZZKVNRmsruzSfC4axKCUbB/d+qwKrKi8jNWM5zhWVYlbKWNQ312Pq2GU4W1yKMGhO8AaYLxwuxs9/+f/io5Wr8Nmq9fh47SbcbWmDHbExbXQWiosL4YRbMeaFl1DV4M3UyDlSiDHjFitbxZoPPsbmFZRBG8smv43DG09h94fbsW3tOhw+Uoif/PSnGDFiDH7+899gzerPOgrsiUVUhaGmGQuIxSHtSCMBPdIwmfguvI0VeAjfJBUok/Bnz55V0+F4z0uA+WGYwritba1qjf9nn3UI5ydrP8WHq1fj+MkTyMzKxPFvj+H44SM4e/o0vtnyOSanZKLqSimmpWXh3eUrsH3XHixZvkZpKZ+t3YgPF29SotDW1IRrF8uwbOW7WL1hnTKLLJ2zCDlfiKbMsUEX0yfOwNZNn98jPqd25GJ61gyuzcLhzZ9jZupkD8dDAbw4dhxKKuqxdsZ8rFiyQr176dhZPP9UOuov3cK4536D6kAA5acrMOr/exnl4TK8MTwLtTe9Rnzh/DlUld9CemoqbtwsV9OkgrYVm6XSCZTvbZsqPzZMXqSjzFtN9rPnRD5YbsoMP7s5PtE1nL/5XMDHzxwOxlkOzVuco2bj5JGTGDc6E00tnuYci2u7WDVtNj75aLMKOnrkIF5+fRIuHr2OCW+8joo7FZiauhBXTt1EEG2ceay+oC4cOYzXRrwcS4Y36ksv4mLCiFQcP3kcdjiAMS+8iMPHT6l4n2xZjznz1qqYH7z7Hj5dskd9Dr47cxFy1x7HF+9uwuY1a3Dy1FG8OWokbpSWozD/CM6dvuwpxeSx4jP/MLeeQVn4zoyrq6vVdEj/pkWdCj7AP8g3Xt3xbYCL0u/ZJRUos7bUbjj7gnZBOtqZ2YgexklD5GDPq6++itGjRyM9Ix1vv7NQTWlqDwSwdNlSPP/scxg9YiQO5eah+EAuXn/uRczKnoSJY9Mwbeo0rFy9Bm8veg+GEUHFrduYmj4Xo954Ay8/Nww7v8jDqo8+xKpP1iiZf2fmAuz7YpeaiMx5qo7h4K2Zb2Hjus3efFWLK668Wpzcm4dZ2dOUphxobMbCafMw7PVxeOnZJ7FszWqEHOD25esY8cYIjBozGqOHv4Fnf5uK4J0WLJmRjedeehUzU+dj1PPDEUAbdn2ej2f/4zW8Pvo1TMrOwu3ym3hzxEjMmjcX7WYYBqdl+ZujaMrR8nSlrXSEAm7crEho2jVuMv1mecXswimVHJ+QWTwspx90ui+3A9PhVEV2l8CFM5fw7z//T7w8fCRSMidi9JhUzJ0+A413alB5vRTjxmVgbFoahr/8PIa/kYYzxWcxbVwaGpobMSV9JmZMmI36YKOam85ZHceL8vDya8PQ2tSigDJkOwhysY/hYsKYDBw9dkTlezhnP5594XmMGjcSr415A9evU+O3QVBe/943alHSomnzcejLE9i6aiO2rFuHYLAds2bNxPPPv4AxYzJx4th5r4oxHt8flBmZPCb9eFE54ldrMoEgyyeXV7mh+TfpQJk2TM6N5QwMMuDBDelexvAdvkvH0WOmV1hUhLr6evWJHzEiaGpsUtsuXr54ydMkDAtXz5Xg26LDuFtRjdu3buP2nTuoqqlDMOB1EHdu3UX+wYM4ffwkIkGgoakRVXV1MG0Xd29Wo+VuMxDxFg7Yho3aqlo01jdG98VwEQyxg7HRXtuI6hu3YajFLTYCLW0oLCpG8aGDqGtv8cJdB3W1d5GbewBXL11FWXkjEDHR1liNPXkFuHLqBmpvVyPotqjtEI4Xn0Rufg7q73oHs94sK8fZkhKEOXUralOO6UgEZV6xBtuZhgQ3fspSS+K0Mpnr2zlW8v1iBy6gLHJ0+fJlVVCGiyz1DDRcJRdRMyX4+RMJGCg5ewkH8guxIycPe3K5NWc+gg21aoD1Tu0d5OTm4/KlK6ipq4URjOBOWSU4i6amohqnTpxGSzikSG1HQmhrqsPNijJlWuP88rADtJsO2gMR3L1dg7Zgm5qbztk75y+cxZ79O1FadlWVn4tPGuvq0FTTBte0UH2jEsGGMJrvNKH+To2actfU1ICCgkJcv+bN8Y/O2Isy6v6gTJoI7TjjZteuXbGxnWTiNNu1lDOZyhXPsiQdKLNynH7Fnavk5GcB2N5UnHEJKH6tSd6jWEa4ys2Ijrz4H3D5cjeOuGmZFpxIh61YRYtGp8dVWxLmhC2lLbPR0XGhiak2KKIwOQiHIt7CFs5q40i3wWlUHXmb8PZlcExPW/MS9v46ahvTzvZNAwE1NcofT2YPMCxkGTD4ye7HYRaNWUaL3end6A/SkZ//3MSH7mF40F16/R3G8hFYyHde/M2vLmr5HPgTQGaD5vPunQ3TCcPhQiHF+O5jqXmJapWlfyaArK9GdMqkR3HD4rJsTm/smCfEeelcUBK0HIS5ci8mPi4i4XZYlImo4wIiIxwCV2uKc6JTMhUPo4HKDi4RyC/hb4zHvOkkBb7YHV8RpA/3W+ZXZrI54fE97TfZCtrH8iQdKAvhudSaa/BldziG01FopIExrLuL8SQOfb4jF+OTqWq/AhWRkbkyTu0KE91bwlvIwSanZJt/5AfHbNiK+I7rrVNRaw34PHZ5e1JwGTQTYAPh8m3b9pbeEg1dM+Jd6iUuoTa4k4JKRN073lxlAoDN5dMqS+4+Zyj7sFqfwk2QaDXmvGX2M2p3m+gSc34tcKCOIETtQu0b59FLGcGjGzeRLkJDReDorBcuHuAWlzQj8TnpmMxO6sBy8l4c9wqmHIk5TACbz+UdiUuZUN8V3LMkuscIkyJ5CZO8DO55QeJzlgbtz64NrgJ10eothSYLiX0utd6A4r3JlZlqkVIYlhlBxPR4GHEIyo6KblBO1d4qtHdzTjyXVjtq0ZL6FCL91YAh98Bg+hRO7qvCaOQu3/M6I69uaqxSyahXT8qDt9eL1Fdo5acX+U56ycnr/mfyXqJ84Vc8ZdEnKomq1j35JiUoEygInDRhcO8FGWQSIeIzf+O6p1Y9BPB9AWe+ry6TK/Y6GrF6NfqTntoC07vxUDd23wWkJJz+Ax2nJnkbzLA5c7cxalJeimzRpmo+aj8OtWmSh/deR8LNcKKaEIGVTVo6A9VSOwogd/cULRogdO5KS67iIyDzM5aO9I5nQ3ggeeIcgXLEQ2xl0Ir1FVnw14vU9Lqy6OIcRWgPA9nnye4Tiq7sAAnR3KdEBbQqHipRUu+1wyWMEzTVjnIGQuGgWnEZjEQQ4YwYZQN3YLgOIkrBIF859kAZ4ItMmFIR3bpTqb/Re8VrZkQn8QSto8ExT56zA+7ohIX/9EmHkpIS1d74ZUHnp00sKX3T7xRIKlBmT8gGI8BJnzZB2jUpMOy9+Vy7+FOA9liaiziVLC8vL7YZDXnCxjmYGyjLLnJETZByFP/6KGTuFWMInQKnvXqhHyOxw+VMC2rH7IhJG2mHg70z7key9WvSSQXKrCntwRykIfjynq6qqkoBM6e30c7Ji8DxcFcu8g7mKk2AWhNHlnlxEDA3L0+ds8ez9uTKO5iPvNxc5OXtUefr5eYW4GDBDhzMLQbv8/J3Ie9gEfJ4n5eDg3m5sXeZHq97ypfrhR/IY9o5OJyzF3kHi7HzUA52Fe9C8f7DKDqQg/0Fu7GHZ7AdOIhDOTmqweTlHURuXq535UZ9/lb3fHYQedH0WYdY3rl5KpzP1BUtG8uXc+CAqr/sb0H6njlzRs3vlo5R7PP9KoX9mDjliPJEx07nyy+/xJYtW5QMcdMd0olyoPz8fOzP93hUeCAPh3JyUXiA5yseRE7eQezLz0MOaZubh6IDeSg8SL4XYH/eIRw6uBc5+TnYm38Ih/cXIid/L/YV5KAop1jJ0f6CA0o+ivfnofBQEfYV5SF33z6cOXwUxUeKsb+4AIcP5uNQLtPLw8HcfOSSn8ovVPceDwtVekrG+EzJBcsvV46SR8pk58t7zoFjyv+hQ4dAvvMklo0bN6pNp2ReP3nPTpoXAVq7gaVA0oGygIEIBntrOmo2PL6mqKgIS5cuRWpqKtLSeE7dvWeRdReWmZmJ8VnZeObpZzB8+HCkp6erNLhhEafLpWVkeFf0DDaen5bJs/MyRyGD57ClZyIt6w2kpU9AOs/YyxqhwjN5zlpGijpjTZ3jl5EBnoXGq7ty8Ey+cZlZSM9Iw8RxY5GVMhGvj0/BaxNGYuLoSRifmoIx2aMwJnM8slMyMCGVZ8elISs9xTuHLyNT/eY5e6mZ6apcqeo+JVYHf948Z04uKY+ULzUtDRMnTsTnn3+uVr/5t2okvQnI5APv469ZDoygizxJB0+f5jAOZC1atEjJAOmSnZ2N1MwMjMnKVHTMTsvA+JQMjE9NR1Z6KtIy0tRzxs3is3GZ6nlaRjZSMsZjfEoaxmVkYHTWeEwcm41xWekYm8U0JoAykpqdhezsCZg8Og1/9/d/j//nl/+KN18ejp/86P/CT376EwwfMxJT07IwMT0b2ZMnIz1zfFSOMpGeNkHJi+JrGs91TPXOc1Sy5z/fke0hFRk8EzJzXMcl8TPSVDpsO+T7F198oWZYUDsmnQjAMoOF7U7a3sBwSuciFEg6UKZgyEWhoKZDQJAwKfij+HV3a3EmCbcjfJS69Mc7AsB+33/fH3n2d5rSuVCOpC79nWdP6ZeV3UT+jj1KS69tblSDiTcuX8WJk8fxxa5vcORgAdobO58s3lNa8QyXTpf04cV2Jx0y2512A0uBpAPl+1W/twLCeBQu+myMdDdKS5XporGxUf0WoO8uv85iGP2lPG8ormNgRd7mEFHvHeOq+BR4NabEoSBvKS4Hd7x/0UixhGM3KqNYHBXN907vi+HF9DW67ujbXdjDZpHo+A9ThxhvWOhOP7rUQu38FpWz6CPb8QbvyEoez0QXbA+oKWZfbN+OPXv3orqiY9c1KRcBkINr58+ew7YtW/HlV1+hsPCQOpbJnytlVu25zdkW6rgv7zAGAVUW2Avnl40abXxAJfypd9xLuTpC9N1AUmBQgXJvCUOhoqBKz8/VXbQZyiwOpiPPe5umjqcp0JUClDN1Rc07omEynhGJKDstTQTcl9i/BSZlj47yKWYVSZvpycAbVyRu3rxZmVpaW9ug9t2O7pImeVPpoMmBaUqY+JKm9gcXBYYkKJMFFFJe3DSfdmieYkxHIeZFwRV/cLFMlzYZKED5oXwRiHkRYOk4jZAzhWin5+GzHKQWJ8ApPsN5T8f0mIYMSjKM99yci4PR3EaTC2E4e0SmrDEOQV3elTL401eJ6z+DigJDFpTJBTnrj/NTpRGJz+daeAeVrCZdYSk/AqocJD169Kjab4MaLgelxUk8+lQE5DdlUS4CKsNFPvmbcekYxj08OK2Ps0e20xSyZ486Mk3eoy/3TIf32g1OCgxZUOahn9QwZEWgvyHwXjtNgXhQgJoxj57atGmTmp4oZgoxS8j0Tj/48p6OGrZ8rYl8ii/hAuJ+kOVJ45wWyv0pOJ2NS+G5pFzMGEyb+Ws5V2QedH8GPSiLgItPDnCTfE6El0E9CjaFWhqGxKXQyv2g45wucL9QQGREEvf/9oMcwZbzfMVMwf1aRJYEWClz3YEj44nsyTuSj/hin/bHlXSlbARh2p85vW/9+vVqLj+3LPWPnTCuPw15V8LFl3zpi5Mw+a39gaHAoAZlCg0Fn8IqmgUH9bpbmu0XtoEhrc5lMFLAD3yUGYKqX0ulmYKne9OEQJuxaMasq8hjIupN+b9y5Yoya3DrW160P9N0xzpJ+VgfXiyrtAmpM32/8sLfEicRdXpc8xzUoCyCJsBMQOZKJX7e0YlQyfPHlcm63r2jgAAV5UUuAhgdNzSiZszZFOz0KyoqYomKiYEBvB9ox7JKOZk3NWUCMlfucZUmzRscMJTBbtZT2gbjd9c+NBjHn4siXw9KedCDMitIAeMsi+Li4pjgMUy0Z97z0k5T4H4UoIwQoMQ2y9/UjLmVJfdfoWZMc4E4PpeGlkgQ83cK/nKwHhxToUmDS8s5e4PjLDS1dAViSYPhkobUTeqr/b5RoLf0HBKgTC2ANmRqAqw4BYsuWRpN31ip3x4oClB2KDN0lCWCsWjGlDFxAmAiawJw8lviDaTPcku5ugIry0FNury8XE0P5ewQ7nlx8eJFddyXtBfG472YNway/I9DXpQPXg9ygx6UqSGz95dBPQqngLEIZ2+J8SBi6edDnwLcB4JgLAN41IwFqAlWBD7RpEWuxGc8vxlhoKklsu+Xe5ahKxDQFMNOhnZn1pMKDTei4rQ7v5N6+cP0/aNToLf0TEpQ7qnwXYWLNmQuDJHJ9CKU0oiEfD2lJ8+1PzQoQDDiRddVVgiWfCbAyjiUE5ENAhL3XaYWyTnAfjOFP72ugKcy86UlvwfS99eV90IDKYM8F1/C6bMTOnHihDJtUHvmylcuePFvTsV4flpJO5P06DOM+Uo8+nQSpn485n9IJ6HZ/UiRtKDctdBsNP6tBWWWBU9bphPB6E2lu6atfw9+Cvj5z/uu4MkwargEG/oiJ5xnzENCv/76azUwxvm+fve4gArrybpzzjVnlrBzIlgzjNPzxAmdOSWQHZzQmu/zt3R+fuAWWksaj6tPOvSGFkkHyv6C++85iMeJ8rT1UVD4ySXzMaUBSm/9uDL9ca63aGiUBV500gAoMzRvEUhEgyM4E4ypHXIATwa/5D2RKb8MDmX6+uvJTottjHQhOHOAkOYNTq8T0BU605zDS5ykI6AsfJHnj7MvtHkQDZIOlKXArIA0LvbUCxcuxJ/+6Z9i0qRJ4ObkbGh0Ek+YL41O0tH+40UBAQuRAwLM4sWLlfwQVGRvCvlUJ/iIoyyJHPnv5flQ9llfAq7UX+rKL1ROBeRhCpyBws2VuFqWszpkgQvjcoogzT9+0GaaBGz62nlY1RtaJB0oi1CIT2Zygv5TTz2FJ554At/73vcwZ86cGCjzOSvK+No93hQQGRAtl7+5V8Sf/dmf4Qc/+AG2bdumtD/O371586YyY5BijC/gIUDiT0vuhzJ1pQ35aecHEAIwv0z5dUE60u7O8RyCMYH7nXfewc9+9jNl+mAadHzfn8ZQpl9v6tZbesRAOZmJx0+nv/7rv1ag/Lu/+7v48Y9/rKYq9YYQ/R0nmenW33VP9vS5yONv//Zvldx897vfxdNPP62mhSV7uXtbvt428t6m9zDxCNA0IRKYuUDlH//xHxWdU05cEgAAIABJREFUf/jDHyqN+mHSGgxx40Hr3qYRA2VqA7yklxPtgJ8jHEyTucC0L1HToL2pPy8e4Ml8mB+PrqGG/Pu///v48z//czz33HNYuXKlesYyMI6UxX8vYY/iMx1+snEuJzV1fvb6AVg0CmoQQrPBIFxdyyg8py9CQ582V9pZ+anKVZLxouuj8KI377B8lBle/MTmXhA//elPFVDwC4vXX/3VX2HNmjXquaQp79HvWseuv+Wd/vBZbnYi3AnOP/tBZI6avJ9H5COfSTvtylf+plzK1fV9vkvTDnezY9vmmA3L0F3dutKB7ZJtg2cbclDwxRdfBDs9ofNf/uVf4v3331dpUaMeCLzortw9hbGeLP+FCxeUps8pgkJPP91II6G/tBMV8RH/+NO7XxIxUGYkMo4XHUGIK4E4Ks1pMmQMbXPTp0/HrFmzMHPmzH65ZsyYAV7Mg3kxH/6eMmWKup89ezbmzZuHuXPndpt/vMo2depUzJ8/X33+Uqh2796t6EAhlobADouDR4MVlCkk7FRYHxE6gjF3IKP9kI2O9V6yZAlIj/7iebzSpWwwrWnTpinZmTx5spIbjkPwnnIk8ityQl+uruWQOF3D4/lbZJ0+TQA0t3DePW3eBGkOUJJH5BV5JL7c99TQGU75FKWB8dm2GU5zA+diMw92YGzbK1asUHTrbd1Ia5oRR4wYgT/5kz9RJqJ//dd/xcsvv4w333wTWVlZsfY6EHTsbbkZj7R+++23sXXrVtWmOZhJWWfblpk5Ql/60r57ovX9ANb/rLfvx0CZDGPmLAR7TvZwFAoa72nUZ2EfR0e6sCflznPUGMlAbkhD8CKRBdQGI21YfjZcOvKe0wxltF02s5Hng7F+g7XMlC1uLkRtjsBJeRNlie2Tjr6ALPnYnWMcXuQtL8Zn26YGyfbNts05/nz2qI4Az13qWEZ+UXLaak/ledQ8+vM9lpdtmx0hFRHWRabeknasS29o3ZsyMq3e0EaBMiOy8fFiD0phoAHfLwi8FyZLYSWTePqSh6TJylJohDCSt4RJvHj7zId5MF2/4wg+GceelRPvpTz+OIPlXmjIjoUNlHXiCkk/ELP+Ei/eNI5nesIv+nQss1ySj/+Z8E2eJcpnu/LTt6vsUHujaYG2WwELxmd5pU12fYe/+VzqyN/kMT/XqRkThPibjnEkXm9p4EQBXvBBJeT7w3To6DMfKW9v0++veEJrlX43EwP4VcLNm6iMirlSyi488lXzoW+lXg96sZOmTEBmgdhTk1H+ggho+5moDvmMor9k2LPfMRrbEaebMNEEZDqNr7fyC49Xjs57JHekyx6pm7R7XVYPiETopc7iMx9OE2LvSmAerE7qw7oQkIXvrB/rLvRkw/L/lvAO/+Fp/SDZedDzjrw97cNRvPXA2M83ynDX36x31/c7fnfU5WHL0JGGV6aefvvT9ZdF2ht9XmIa4720ze6AuSf543usOy8eUUUzJJUKOoYJX4U+PZXXCyddFNLCjdLPtjs0yRj4xmhLwPeUPZaDrnP6XX/fn2ad333EuE7He+xYRP6F1qQD82HnxfYgtJLy+5UVVaGH/CN1eNBrMVDm0UnsRSkIdCyIX2AYxkQZxlNzbReI8ABmxwIcA44L0BqtMubqHv4mM2wTtuvAdGkXM8EHTIKn7sINwQSfM0OGgQcBwzZtuIYNy7FhgQDhwLFNRBwLEceEq1YSeQKhXnANgKf3qvJQGPgWP6MsFcysHNdRZYx24rBNdjom4FpextFGrcqgAN2rizBO6k7GkTn0aXOn/bU7ZjF+Mjopl/gcyOPnLD9D/XUVGZAGywbmVYk0M2LMcmwLjhuBC/IDsB3AcslMLwrlwIw+I49BwKEGRb4yjidOnjzYlCUHtmshQs7zoc3frpItyhh57DA3dc8/LA/ZT3kJw7VsOCwEqAG6MC0bPGVaRWfZLM7FNVU6Sl54KrRKkWnacCxDCTJl16C8Klml58k56WayWHJyNOWfz5gBQ/mOqjtpQC2YdFFEUdFoLKIhUMEUozjMl/WLarZR4FBhUVkTXlGLowmNPJH2STDsyfE9XuQx7cbkMR35xHCbvFMnY6vCe+HR+nrno5OGwqMI4LbDgAUOi5lknkmsCIAlsMkQ8sEBDOZrRuBGAiqMdWX7Y2MktRTI2WyzxBGv7jzNnbRQpLQcmI6l4io+Kxp68uDYfEdRS/HGy5bltJVMMB9VdlaJXxTcj4RySd7yPSVTLKPtySXpHzUFsR17+AY19Y8KqnSMDL8frXvigT9c+OEP6+7+CUZkj0B7Cj+V6DyG3fvpLgmwvoYLtFGo7BBgtSrg9fpDgqqBIONYJmAFYboW2t1WHgWp/psWmRgGnFq0o10Rn5wlrpoUFsMBQi5CjoUAGWk6cG0TAdjqAj+JXGoADhCmwLP394BAlR8mLNTDcgJgG7NNF5ZtqsYUsXjvwAhZsM0Q4ASjgB4VTAqcAnGpbYdPughwMZRMovZBO50QXHw2HN4ng5My0Wf5xaetnCPRslG7dDbdlplVUdUJqsapWgD7XINfVY3ykBiGiOroVJtDm+MgAHaA5KkFREwYroNmOAiyEbOfZgfMDpIAY1uIuBE0IagAFIYN03bQ5roIs0UbZLmFUMSGa7EubXAiFlyT0EAZ6+yIHQQJBZ22C4uyY4Rgh204BstlKMWCTZkyaUeaPdmLRNDqtsIJAWaEnUgbYLYqwGe5Ca4EEZdyTLmmzFjs2NrUvW0H4dgB2FQorIhXdxOqXZBaActWdeF70Wp59I0qJt1JDuWN/KL5gY4y1p1CIBQgn9m22enK/s/EJI+PjMVcoq2WtwRgNiOVOUvldTCKqXYd4FahFUHU8wnjhBrgmpUIuTbZpHhJkCR93Ejr/8/eewXHlWRpmmk28749D/PU1m+zbz1ma9PbD9vWtmu7M9M2VW3Ts1starq7qlJVZpJJrUGAICEok1ozkyKptU5qrRUAai2htRahI/61zyMOGEQCSICEiADDDQ6/4fde9+PHj/9+3P24X8lf53hESs75/TTraL16G51yFQxH5KOTBjABX+o1EHbKVxttNhRW2B9QKNCiQMiroJ9O0aNgGFkBYyLyB30KBDzycS/oVyjMSANB9CkSCLo8/RG6E4/reClWa4RfwSjz4UkHB+/Qlllboc3QkXTH6w6vd/qTNPG/5JymzDAccLEemJes8XaWAOWF0WjACvmkYKsLq2tr9bywVJ5AWH64EgkoHPI7pnvVqsa6cjUUNrgO1mkkqlerGlRR3ajGKr9TWtFsIt6oRo24N9EboxkEI2qNhOSNhBTxoAHD+LDkC0qBZpW+fqPrl+7qxtV7qqgqVVhNCtCz+2gU0d7ZFwzJGwgrQGMGDWgYtFo0NCo/qpi5qE7qybHCGGvMpYGghXRcCLX7nfEvUeIuX77kBC++TE6L6YpAJ0/oeV7HL4dMCsnbVqU7d/N05WqBHj0rciDYWtOi8pJKNYSjDZHGQsVH6Gz9XjUBcwCQD9ALye96ZPrHoNoiPrXJ5wATEA/7g2qIhNWCJtAm10l7gmH3TijU4EBZXp/KXt5V3vV83bh2SzevXVLxq2JXxT40IYXl8bbJ0+pVxMmEz2nFnlaPQsFopxAKtTpZCrWhCUJHg3weye/zKhSpgVAF/D6nYfkYKfrRnn2KhD1OdsMoKJE2BX0RBQNRUI4CnV9qC6rqWbkqPB5V0yHRPkgEJSHa1/wiKFMtKAB8m68nnT71ymgOe2Lqld9omm9B2VpyLM60Ylf/foWCbSp9Wq/6okpFIpWqDTfLG2lTbU21Cgsb1eT3KRxqklo98tA+Y8qM00b9rU4ho21VVdfqVWGZWtr88vpA76DCgTa1hWjXfhipiFeuPpsjHrUhFChpbT4FPa2OV74QwOuVF3kAeOmQwlLAE5bH41Ug5FfQByb45aHuPHI8h7lNrmP2IwGxUQsdh19eMoH5XTR2OjKUVUYYfdGerZ111bws/hPmRLdt29b+KXQDl+4qnXIEQfxwa3S4R4PyN2nD9yv17fg0vazgXOOA5GtSMBQdhlD6c6eP6vvvNinYTO3BibACqtOq7zfp4L5rrucLokb7fCq9na/HpRXywjVfi2v/ATcwCUS1F7RngNXv1aOCO5qZOVPjRk3R11+P1Ox5c1RS8UZhN1CMFRWlOtAS7UhcVLMe3X2q6mKgPzpmoxhu+C0GUzENwjhlycQtjBBFhWE2RgWaFm3M74uK7JD9e/80mkiAa+aPOSuYhT0cjdZ8l3RT56hS8MZNW0XU1tygbZt/1NixYzRy9HgNGz1eV24U6NGFAi2dt1TVaMA4po/cdbQFeBRRA0NnGg+Ni2dcP0l3SgNCymJahT+sxkhILYGQ6w94lNfqqYtgi3s/XNekBRNG6x/+5VONSUvXmJHfatzX45R380GszUF3TPNzo7JavifiSOOfL+BVkLTckDwaHYmEXD5oYQowGmOkgUaO3Ep+N+8WfRZRRAlx6OJEhykNn6PNPRGQZo7J1KV794Sm7GyZvCgEUVxwkxAUtxtNmXSYU8ZM1UY33SlPDL2xpsGSA0f9umbXrqzFeGJ8pnrdPeK9aqwr0Yi/G6VZaTPUokbVE9tSqyXTJmri2GxVeJgoQHPyyY926zhMR9OmCGCL87dow5qVGjUxQ09K6qOgSIcVDkZbGAShHfv87je1Tjt3ihLKGR1mNCX3v9XnV9iD5hwR7KMi/H5GV1wwxRIAaoWoND0t0ZP8J+LIsqCT12hbR5f0uYmYqLZtxY/Lxl3CL/iH4mXtp8u20fHlTn5bGp3ceifqEw6+xtqCRspLpqp3V9nIX4AGFqyLgq+k2qInmp0xUV+MGKeN+0+6vj/ib3DaRGF1vQoLH2jPzi2am7VekSa/gh6fXpeX6OWbq8qdvUg7dlxtJ8xfWaalY0ZoyY/b5XW9Zr3eVLfpwYsnqq164/DA440KVHXJS82YnKO92484bbqmrlKz5szVgUOH5Q+0qbLqlV4+e6r6qmYFInVqavGpoqxVT1+c1rhv07Vv8y2FY7bZTqN2w0mPQvGA3k5Z9MKYS6VxzbyyaSPGP+Nlh1cH7WfH+iwsLHT1TiPnno2SCDt3tIBQOya71iCP9u7crqmTMlRZgehHdODYEc1fuEYXNx7WnKkzdfP1a1WVF7u53rZwSFVNpSp8+kLFJZWqYehfG1BzWZMel5Sq9nm5Wjw+NTK/6PWqsPS1Cl+/kKekSjV+j1pZnCqvV8XjIpU0eFVBYwu0OppCFQ1aNuxbbT9+MjqJEZFWzFyuRbNXqtXrV01DsZ48u6aK4iqFHBaXqaHhuV4+LVdZWYPaAhxW1Kbmygo9ffFE5RXV8jeHVdzYKq+vVcGmOtU2NgttuK21TnVtfjeiqigt04tnT9VYx4RdWD5PoypLG1T4+rW8bU1Okyt8VaTqZ0Wa+vlonSvIF6e2tKJlt9G59RyUkSkcc8u0WZzJoPvR4R/nemBjjyUBdRwdfnfUlGnNHVVF4LVFtdXPNPxvfq9Rnw3Xo5piB3Ylrx5r+D/+WuO/nKSy8iY1tfkd/71NbaprbJUHrSbQqDAgKanq1RPNnZ6uz4aN1cZDFyVGE4FWeT1elRW90fMXr1Xd0OCmFgJer0pflajw5Ws1eWrciARwrakoV+HTZ2pqaHYAHWr0qqm+WU1Md1a2qaWxUfW+BrVVVqv0zVMVV1egfOvC2v1K+zZDedUtCro58OjaB6AddKVhbSTaEXZgnWvXxLEIjvmgtWerg47P9+Q37/bk/U+uXbvmhkP2MJVsDZOK7My5Eb9TKxuj409FdPbANq1fsVBbd+1Teu538rUwB9WqB/cfaEr2d5o48QsN++oL5czYokh1k04dOaFhkzOUkfGpfv/pMO3YU9CeVeG1i/rqr/5Cn4/NUG1thUpuntboGWv0xfCvlZsxTi9e1rbPe93LO6fpk+eosjg6nxhSm+oaGlVTW6+r1y9pwqQvNPyrLzQna5Fel93S+o17NOKb2Ro3+W/1f/ynX2nG+F1qbWpyKgL9DAsWITUzwGynJ/7CGAufbI4JQF67dm37Y9ZQuuJf+4MDeAHd0IXHcUQjNrDEMzpCq4Jek4Ofk8biis9pdlHVJSCPp1iLvpurQ3tOuMcj8qo11Kqq6no93H1ZI//lC32TNVmTh09R3rWrKmktV87i5Rr1+ecaN2aEjuQVqPj0bc0ak6lRM3KU/tlonTx3SfWK6PLBn/Tt2G+VNmms5n4+QkeunFZpfaV2frdCGf/6rVbtOKCnDIMjfmFqHSxt0PqvRmnzqbNOM4Kg7Uu3av2yLXr1ulDZs8br6+F/p1HfpOn2pSa1tt3V+h9zNfyrbE2aPE/PXr9SY3O5fly9XCNHj9b0rBm6dP665q/creraIj0pOKFp6ctVX1+uE6e3a//RS7p567EmTZigr//4R83ImKva6hoV5N3Q578bqZwZObqdn6e9O3/S6BFjNX/SdH32q3/ShTu3nabsZerM41YMHTt7qilTLqYbV6xY4XhuMuh+dPgHoKDpUae0abzD9Si2u0422rnGjUqcvorsN6iq+r5mjpuhBZPm69r5G2508NPpA5o2aoKWjl2pnT9u1febNrlZmFuXb+jHDdvU7EH1b3GL7JBz7qf92v7jeq3ftlfT5q1RSw3rVn5dvXBZE78Zpz8O/1xLN65SdXNAl8+e08SvvtSor77SDxt3qtLbpEt555Q1cZpGf/ql5uR+p/LaoO6fOqdt69erPiJd2HhMx3/ao4MX92n22OmaMWWMvhgzTGcuPtOaYbn6L//7r7T5+j0FGdVg1svmGVdyOM4Rrh2YFvtp7YB2wqY542HnT/csljQs3e7e+AT7R+ZNcDTK7htmNCn3nJtP9rrFD29tsb7LTtfBfbv1+PETjRkzVvduFyjYVqc5OVnasv+Y6utfa3ZuljIzNunVtTzlTMvS1YfP9eL5Wf3+s+HasiO/nc5QTbl2TJugHw+eUVNthdanj9T3e8+rorpCaxbP0opV+900A5Wbf/2kvstdpZpyBrQsArxd7Llx44rOntutKxfOaOSX43X+2g5Nmz5Pi+fvVUUtYL5Ex3eVuBVaGzdGV4PrxfJUVw7GwgPrvJhTXrx4cTvDAT7uJ5IzgTC60O5psDjKwSKSlaczuiNOb2Eu2akZrmHV1z/V4vnzdOH0TfeKL9yokNNApBf7b2j8H77V1ZfPtHnZai2eP18vaku14/h+PblZoMXzFip37SoVbD2hSb8frevPXmr7/LVatGq1rrx6rAUT0nXp2kW9ev5YWf/zc20/tk9bDuzQ8snT9fDQJY3InKXdD+85LY+GFalo0Zrff6P/PmyExq1epZzp2Zo9Jlcv7hSqqLhYPx3dpEdPTyl9wiztWPtQ9x7uUsb0z3Tu1BMdOHBFL0uKVHDvmmZMnaxrly7o5JlTKrj/WMuWb9fZ84d19vR2jf7jdF27ekZrNs/Ttt0nNG7sdJ09dUY11dWaOilXB/bt16mTR/W7336jqopqnTpxQmmTslReVq03t5/on/7Pv9XFO3fERIiXFbH3BGXkjd1/OOqzq4bOech8WcSeiz4brxhHR5tRXd3QCYAGlOtVXnlP86Yu1JZle3Ry7wG1lD7XD1vW6LvlW7Rh9jHl7dyr2dlpul7coE0b9mjXlr1i7R2LByyymmvKtHjeHO3dd1B3HjxT2rQc5d26rcaaKs2ekaEzZ06psPiNjp04poKCPGXn5OjCxYsqfPNax0+edGZ8aWlTdeLEcVWXFiknc6527snXxZ1btWjudNd5H1q4R9s2LdOPP63Q5N+lqfT5Y81YmKV1W04rf9NZzZo4T3c9GAYgt1FLHlp2GDl1VkOOPV3+Q2llR6K1n6543WUCcTcsjbioTi8/wX4RUzgqDDBhOGugYg34Z2+Gg27Bg5VTzGQeXj6iv/+7X2v4iNEaP2a0fv2f/y99v2GLqkvfaMroYbr95LUDzONHDmnOzB26evC4sjOmqwYrC5Vr4eI12rYzLzqKIqqxVvtnTdeuU1dUUfpGy8Z/rVsvShwZF07sV27uWjW18GBY925fVPa0BSotMjAOqLa+QcXFlSovLdKWLUs0buQw/fa//4su39ivhYt+0MmjDxTSEy2YuVZXjke/fE3iTJcCymjKmNR15oxPhAZiVJwBHIyHf3avszQGI66jMGECyRAYLdmEBbq7dmjKsTk4NzINyNNWouWLF+rQXqarcAF5wh6VldXr1o/HtGTad6qKSCd279LyhUtU3daqMzdPavGM2fofv/qNZq1drju7T2tV9lLVRqRja/dozfoftf/KWS2alKHGetb5pX1zl2jP6Z+0cM1SffY3/0Nzhk3RPw8fp30P7sa0PUkVjVr92XANy87VyiNHtG/nHj3Le+oUwdaWFp06vVO5ucP13/7v/0/bvs+Tx/tUq7+frq++zFTmjGV6VlSoppYGrVi4SCP/+FtNy8rSyzK/zp44qsVL52jnvr36YcFi/fD9Ei3+YZnOXcnXqJGT1dIUtVPfveMnLV+6TIcP7lV25gJH94Z1azUrO3rNMDnty7E6X1CAHYezXnIqJpZBrouLDaO7mVO2OsQsjjMncFZ37keHf2YKR4fLc4TOXNDw1/WwVCb1bpFcRzXl8oqHyp28SheP3ND+jct0eed67d67Q5sOXdX8mUflf/JCe9d8p+Wbtypn/nrducfca9QgCoXp3uXj+ud/+q2+GDZWo8eM19/+zX/Wig079eDeQ82ePkGvK9+0U/ziXoHSs2bodQ0z7lH3+u4jTZs4Q8W10Y/VMupYvPS0zmxfp1VLs92KwE/LftK2LYu05fhyrc3e7tY6Vm9boQ3bTuvRvutalLlUj/wxE0rMJRVxpXOgzMjPim2ZxkLjNZry1q1b2+9afHtELy66q6v4ZD6prq52gMJuFl5iOMRQlrBLAgDlYJA1eIXbqrV/7XytWrFMLwuL9Ob1C504uFvjMnL1+ME9zZ0xRTsO/KQ2T41WLF2gmdO+14NLeZqelq7bjx+qqu6hRo+dqs2bL0TpgklN9do0I0MbDxxTdXW5lqaN1rbDl9TY1qJNG1Zq9Yrt8gdYZAiorrpIyxav0c4dh9XU7FF5VanmL1iotevWa8b0qVqxbLbOHTuuz3/7hQ4d3aoFi1br1InbCoReK2faQp069CS6usHoBsyhk5c3CkDxnIo1AIALvjgBj33tmEYCyOEMtLvkXYc0B/InNBld1Dcal5lBGt1d0xPtBG2dL6pdeXTm5DHNm/WdXr8qlNfXpoPHj2jmrCU6unSHlmXPU1WoTfu2HNS6lSv008n9GjFyom6cPaeM9CnKXLRc17Yf1/LcRaoOhrRv9RatXbteNx7f1ZyJU/ToToHqS0o0f8QE7Th6QNsP7NP8STOUf+yithw8oQJnwhm1EQ6V1WnliFHafeqMG2bHl2P71q2aNOlr3bh6SMM/G6X1y46ruOSWbuaf0J07LzR8VKa2HzioorIyMQx/dPsnfTtqnHYdfqnK0mvKnJ6utetP6u7VHRoz+hstXLVNJdVVGjtmgm5dv+4Umflzl2sPR1oeOaCZM6JAfPb0cY0bnaa66jrVPS/WZ//tn3Tm1i035+1MyrC+6OVCH5099rNscKDO8F05q2MOOMLxbuRn1hddzSk3q7zyuTKm/KhnV+/r/I7vNGLEp9q/Z5+unX+o6Zk7VN/apvN712nYf/l/NGHxOr3xYH0ehfRQa61+Wr9Yq1d/r8dvit3pfCcO7NH4rAW6ePGKFmZP1eWr11XXUKm7+TeVd/W+snJzdK3giuqb6nQn74lu37ylqWljdPrcBTePv2LZGm3bka9LR3Yoe/ooFVa1aM309dqyebF2HFulVTlbnQHByk3LtGnbSd3ZfV5z07/To1bssbFj7PmcMvyirbCbko07pqh2xeuexMe3v+6ed3bKTF+wzRZH5gbI1oA7JoAgMExBHBrKXmnl7HQHwPZcXW2tsuct1pWLF3Q/75ompk9Tes54jRz+pX6Yv1me+jbt3rZNY8Z+o7Tckfpq+Fgd3n8juohEIq2t2rVkicbNyNaLolcquHhGYyfP0LAJY5SZla7nD165rLCQiIR8enD/rmbO+k4TJ03XsG/Hat538/Ty1VP98P1Sjfz6Gy2ft0QZ46dq05Z1Wrx0jS6cZ6qkQYu/Wxad+qgsdz0mMzLUXRAbaGxtOzj4AX/M87uiosJ9gBJ7UIsn7Ip3HZIc0J/QZHRRh9ivcj4ujt/Q3V0jdy2OtQSQxKwvWpu1Y9tGjR83TuMnTNHwMRN17tI1PTqTr9XzV6rG59XRI0e1ee063b1xU2O/Ha65WbnKmTVHU2fP1tENe7R59UbV+nw6sW2f9mzdIW8ooFMHDylr4kQtTJumr/7uH7Xjp4N6XVGheRkzNf6b0Zq9aKWeVVYpgvkGa0u1jVozI11HT52LTqBQf0wbhuU6jhHDfqfv5qQrJyNLS+euV37+Wc2eO0PjJ2Zr5rwVelpc5uaV58zIUtq4r5WdO08PX7QoFK7W3LnzdPzYdTVVF2jK5PE6dfGugpGwjp84qfFjRmnCuFGamT1fNdWVOnvmqJYt+sFl3NLcoCWLVmj8mLFaOGW6vv3Np8p7+twt9LHxytHXS1CmE2VKAqsf6qu7ERl1ySiYqSqrY1d97dohdRkHysS7e8R7VFNTpOWz96nk8SvdvbVTI0cO16M7d3X/1kMtWXpIrSHp9b1r+uOv/7NWHj7uOhs3cyGpruiF1i/I1f3bjGairrG+XrMWrnJTPtdO/KSpo8ZqxJhRyl2yQG9Ky3T66AmljxyviSPHas6iBXpVXqYzF89p+qQpmjT6G82cOUvFJS2qKnmhyZNGa/yU2UobMU379m3VweM7tfX7vW7PwY87NmrP/nMquvZA478ap90Xb7mNaFbWd6wvorqGkfhOSJvm7GjOB4GX3c3fv/OBdgzOAAAgAElEQVRiFz/i218Xj7hoZ6dsB9FggYGDAGu8nb3sDUXko8fFBrm1QaVvXsrb3OAEhAVljMera2rV3FDrGu/zokJdKTiv4qJnaipp4jX5vG16+OCirj64oMKyCjVVt7H5zwF9xBdQfVG5bj68r9rWZmdO9ezZC52+fkXPCl9HdwWi1UfCzl4R852qmipdupSna1cLVNeAJUCLWpoqdffmXb24+0w1JeUqKa1QcVm1GhvZVOJVTXmFnj54pKb6OqctI1Csv1A0wLkzB1/iGwLnYOCJg2/Gu55WQGd59Eec0RMPvFhgsDpv9Y7QGf0/owF+OKWMlXnPO3bKoUCd8gtu6tz5q3r2qsi1a3+9R9UltWrwBVXdVKPaihpFWoJ68+Sh8m/eUlFltYqrKlRfVqeayjq1sVGoqk6NVTVqbWrUg3sFunvuovKPntKsKdO09+RJh2Elr0t0/fpNlVfXu0F3ONSoiD+osMermpInaqhudHbMNMAwu0cDQfk9jXp075bu3Lqi2vIyVRSVK+j3qbCoSGfPX9Or0kq1uA0hEZW+eqorFy7r1esSZ/LmU0ilpZVqa+To1kqVFhepvhETrOhutAf383X54imVFbOAFVBDXYmqyusUDnmdnW9rU5tuXLmsZ/n3VP6wUPWBoCqxt0fY6DR6Ccos8iFv1JOBMmFXDgsM7JqxwMA5sW6XbSoU5SNmkfEzO+VWNRS1yN/iVaO3TMWlxQp46uVpalB1SXQjzeNn9zV35XLdLSl2I2eMShT0yd/coIrC1/I11imCTXGEDTMR1dTUqqWuWhFPqx7fKdDlqzf0sqLc7ez1t/n0MO+Bbly6ptLqkqiJXVh6+eiRrl++qOJSpjtQxEIqfFOsm3m39erFGzU0NKmhsdF1imzUqaytU21di9Tk0cvHz/WkrFLeYJsbAbNrkyJH7ZRZITa5/jkHmZaE3zYqhs/d8frnKbwbY23w3dif//rEgAQLAutRfylzRl1uoSLQ7HbIoDWHPM1upxRTvdHqp4YDCrYPr5AEDOYBZEAPiWyW3224jTIm4GdDQERhNgnEFFWeil8hdfadbW1ui7SfLbhBtHaMjNxEZ6yEbOxlrpi3TRIdtjuDcyiJYELimjUbR6K7iTCsd/tJ0JgdAMWS6xDAMxwCH79HHqbDO8JEcwa2AK91KtBKnbMgBM32TKe0O6Zxh44b2+BYHbF5yC1dvX0rAF9jLAC8XJ1xmy15Mb7Gqrf9Nzu6Yqu3qq2u0qrVS7U4Y4aWpM3QkvmL9aq8wmqzPaNwAM2+USEPG0yo/5ZYlbLTjs0GaJJet9OunSBHALLZnoy7ZAWBTj5ejkKBNjVb7xzwKyBsm6OyygQXxwDEO8zzXIcFwAdaFQw2y4+tLS6WNBtmGhWJtp+46Qv3VIzHcaS9I0t0ophnocFRV9ZOTR7jaXFZhsNuzYA65hNq7c5lwD+IipUh9tNNT7n7xEdBi6aKZs+MbAA9nwiP9ObBHU1dOFtrzl+XJ4ydcUQBNBofgM32dtjR6Gy/kQFnici7QXbWuUzekuQPuffbI6AuZqdsceEIm3jqnSmixRG6PslZF7YqhG24OYAm1u34I2z6aYvb0Rf42Y6++HbLiARec5Z8T3htWXYXkn58Hl0966YvuMmWW4azGJpb4/wZwMQSZYHPySpbVAEiQAxgY1ojtgU1Orxlv3l0bz+bATDG50Xe5XlWPzEhdzsDiQtH5A8EFQ5GHGgyKc8mlWj9RffIB5wpXnRPO9XKvRBbKENoeVHgjZ5lwOpqDAScwKH9kz30Rq+jB2NAd2zYTl4IQwyUKRu8MB/PUKYt6MiYr4uPj7/uiumDEW90Wd0aDTRw5sQ5XJ36xvGsPc9v3oEx8M/VgtskATN5GF76o2coxKZ/qLcoI6P8dgDMy7EdlKRNA3YyRNLwmcTIx7VkqbS0RCcO/6TjBw+rtDi6yOvkxoFDVOaYH42eNQEIAwJs1nAJut+OXuiLnakRFQBkJyoXYDBnXEQXdykOdFPf0TIjr9BOOiG/T14/9q7sJjW5jD7Pc6Tl5Js3nCxH5T3oOo5ouVAE/AyDARIS5Z1wFNxdG4jxmnqwerJ6KCsrc7tu+fCAOXvGfncM7T4bxJiH5oMNVsdujtVVEjIePS/E5UWRHF66lhCt4/Z6pZbgXVTbrCwt0flrl1XaGF3sdOfLOJxn63rYtTNx1AIjWtOznN1pwLVDFDbAO1ovsbaJXDgGwgzHSPebS2SPc1YcpsRkjzMtSII6wTbaSVJMlKAT/iLVQD5HMzhMC0blL+DOOoGGt20cHrLOhoZMJ2j8N1525HFvfpOWpdfde+0HEvEQCwMQw+eX4udPIMgqk9A0re4Sft975GXe5ROVEFcYDpNhS6y5nhTQnu1tSDmtrFZ20oAv7IKzSiOuP+noLd29eR664TX1DjCz0myH1li5uJ9y0XoPsrssbpqqL/hCetQDIXIGv/0+tPzoQju/+Z4gc8MAszmrO/vdWci7Jpv2+SbWEGy6ind4hrzI2561tDr+tvhkDY2/hHbN1ATlhw94lCyskthUZ+Un5N6HOtKxNLtLqx2UIRLHgfYQRc/KXDONtC8I6o6IZLiH6RhDGs4SYFiDpgyD4RuVmqzOhBGNmfllzkBBQ6DeeyJAyVruRKYbmYL/bN1n/phDiDpqyNRbd/XDPZsLtWfRmKlfq2Pq3J0fk8jM6Gfa4A2dFB0e0zy0beSfeBwh9dEdr3tKImn0JJ13QNl6awQC+2U+TcPmErRCLDQ4KwGPjWR/efIkbfKx6/379zsLB2hg3z/3uWf3+4MWy5OQDorGQT6YyNBxWYWZ5tTTikmk5xAQ6KfDQfiwUafe4TFlZnomnt/9wedkSdPkAX5g/RAvnx9SBtIlPZNnQkCTkQvXLDbZ6j911BEkumvk9rxpwtRvQ0ODM6djNyf1S/rQQBnIz64JaW/EfUj5EuldymT4RbnwrAnRpqlXsA5lCxA23sW37+543ZN2zfs9SeMdUIYYGmg8OKMtc+DOkiVL3C6i+fPnu5Cth/3h2alEuuSDnzNnjvsw4+9+9ztNnDjRfReMb8axg44Q3x90GA2EfMuLOVfAGN7gTND7qhftSaX29TMICPTj0arsGo2KITNaA3yeN2+eq4v+4nMypMt3/0aMGKFFixY535c0I/PIuvEZeWP+l3Ue5Iy6sY4zvmEbcHQmFzzHu8grnvdJx34DzmiErCNRJqOB9mTXkyZNct/Z68821pd87ElaVjZ4zfWWLVvcdC38MD4br+GrgWh3vO6M/53FxdddZ/ctrh2U7QUqjWsaaCI4NrLMmjXL9db0asytAZCckgV4DLQz4IJPCL1V2kDT0Vf5Qb8JnHU0fZX2UEqHb9DxheaBdtSNgQTXOJM5ZNHiOqMLGbVnDIytvi2Nzt4jjiE9Bx8xxfGxOHgJ3sAz+GOe8lu7f19eWFoWdpdOOyh399BA34NwcyxQ0GOzCIWtJfNsDO0YbgDSzH8zF8ScEJoFwhfvYLSlZ9f2257jtwk3oV3bfQt5zjxxHdOx51Lh0OMAGiVfxDY30HUfL3dGw4eEHem39K2NsGOQKSzA6GNw8fyIv+6rshuog0+/lH7CgrIRDijziXi+AGCOAtKjsVJqBt4sUjFfRO/OsAyzFjQ/nKVFyLswBuHjmjjzPEtcV6Bs+afCj48DjNCYwjBnMmW/h0KI3OMZgTJlGd/mhkL5BrMM4Aq+J6PrpADlKVOmuAUomGrAGg+cXAPefJUBjRotml1MTOCzMYL5UbRonotvTDaPSrzdiwfowazEVN6JxYGhDsrx8s85Lig4KD4p1zccMFAGc37JJQUooyljFYAzACWkoB2HA8RjPYL5GoCMORENCpBmOGZadLytJuka0+JB+5eYl7r/8XBgqIOy1SSggfWHtTeLT4UfxgEsXcCWjtOrnaWaFKCMpmwHJlGweGC2awobX2DicTzPyio7FTn0G2DevHmzm49G8PjUy8e0mNGZEKTifpkDQx2UaS8oJkz7YXXDyBOXUlJ+WTZ68gSf3IOX5rt7J+FBGRtNNOWOoGzCYqBshbRCE2/P2D1CNGS0aM6aZR6a4ytpcNiKAtIII/acHd81oSXEWT5cI8zx8R3vuxdS/5KaA0MdlKkclBo2R3FOBvJsMj0YFdex/dnv+HZncT+nL7ZFPHoOAK015n/+5EDFlJWxPZ6zdZJw+qKjMHQEZbvfdYX0nM2AKSDNHBraAVYdGNVzzRmqzFGTv+UVD77QwW/uIcyE8dfcw6fc0ODAUAJlk9WONYOssx7DQVu4/gblzuiwOEJz1tbsd89C2l5UgerZ8wPxFKP8uAOTusgy4TTljpXCcCojI8MZ01MG7r9fJb3LAcsnPhYNme2snG3B7h6b5rBzITgxijm3+GkS3jewthD6OnsuPq/UdXJxYKiBckfu0x4YjTJ6RH47ax8d3/nQ3+SRcj/nQMKBMiTGgy7TCenp6e2gDCB+iNB0FDZ+A6akGw+2GOwzF43ZHaBMo2QBhK2Z2EVjL41m0VEbtvTMHO/nLE/FJCMHhhIod8Z/LC2YyuMgHhxy3VG2O3svFdf3HEg4UDZQA3hxnGCG0b6tBseDJ89+qDPhIz886RsNFpIH8eyLhw52dzHNgccuGjM8QLon5i4fSm/q/cHhwFAHZZQPLJQwHcVZexgcbn/cuSYcKFt10HMzlQAQTp8+3R2ewo4+hAUt1MDTnn/f0IAXcCZt0w4AWPLhNyH3zPEOFhvsIsTsjoNOaLTsMESbRtvAAL+/QJr8U25gOTDUQZnpOkaAyDnylZKxgZWv+NwSDpQRBgQDW2MWHTgwZPjw4U5bRmhwACWgHA+U8YXq7bUJoQkk7xsd8df2XMf0ieewIs6qRbgBZrRotoCzKwotmvJ0dPHpcY3rqzJ1zCv1+8M4MNRAGXkzWWOtBHt+rJJwfaXwfBjHP963Ew6UDRgJAbb/+l//q/7sz/5Mf/3Xf+20UqqK+d5EnrNFi2YXIYDMdlXmoTEeB7A5U4C5asoQ76yRWEOJv5e6HnwODCVQRtZQbAjxKDvY73ONiw/tevBr4OOhIOFAGWHB49A8/+N//I/65JNP3PGd9uUFenKeSSQA60x4oQ/wxewOiw40aDwmd0x5cNodc3l2PvPHI3bJV9KhBMoml8gsCgKHLSGHuM7kOPlqK7kpTkhQBsgQDuaUOUf53/7bf6tx48a1TwEgVIkEytBqHQTX5i0uXkQoG2dUs1jIIiGHgLPqjdE+Z3VgAoijkVhDiX8/dT04HBhKoGxtBzm1TVS2/kEcDtm168Hh+Meba8KBMsJgC2toxBz+/Sf/y584W+XowtvbE94SqdoMiKHJrk2oCaHdymV00xAwqwN8mX9et26d06QNkC2051Ph4HFgKIEycohjMZ25ZIA53nWU3/h7qev+54D7mrWBR/9n17Mc4jXMgwcP6C/+4j9p06ZNb19OIOMD4x2haRdoIrZYYgIO8RYfXz7iLY23BXyrKRswE6bc4HFgqICyySmc5HAuzOCYwjCHbJp8xsuu3U+F/c+BTwAKvDkDDnpRPNpcZ97HJ2r8fnlj4TvP+Pzym+/i/Xeej3vG5/PL6/G5vOnR8/Pz9I+//QcdOfKT0zR5j513hEwF+P3QGO87p9e9x7sx/w7tRquF3hj9cXRZfp1pvPAOEOaehdAWz1ee6Qx8u4uPB2S7tnpKhQPLgaECysY1gJdvb3IeebxcpoDYODR44SeACJ7FJhajWFxjjpPvdmVnZ3fuc7KVFfPZOT9/Jic7W7kxzzW+y7Q63MvJmans7FzlZOdo5syZmjRpov7mb/6Lhn/7jWbOzFVubtTPmjVbuTm5ys6ZEfNZys7Gx+eVo+xsfK7zM3KzhZ+eG6Uf2rNi9EHjzKy3HvrfTStbWVlZ7jtqhw8fdnPCnJnB5hb4h5ADyhbScXQE5fepZgPjjuH7pJV65/05MNRAmWkzFpxt8dy04/fnUOrNvuLAJ+zgYZcaQMxQhs0QmG2x6ERPiqnMz/z5czob8+fOd3L/3Dmd7+B/lkZn6Z47p7Nnz+nsmWiaWCrw3tWrV3Tx0gWdP39O5y+cd+ZlFy5c0sULF3Xu/NmY552O9PL7rT9z4ZzMQz+0x9N54ew5XYz5C53QBz8wa2MHH8eAYu6GFQWHF9GpoWUAzGjVAHVfuo6gzO+UGzgODCVQRk75MCvybGAcry0PHFdTOXXGgU8AGSb7OVcYgDbLh84eTsW95QBaMBtCmJfjbAwW6jhdy7Tm/hgGdgbMKXB+Wyf9eTWUQJlRHKM9RsY4ZNXAuT95+GFpv91R+2HpJP7bn6Dx2Vc4ABoqhxCN732H36zDme8tCyKRsAI+n8KhoMLBsCKhiCJhKRKOvE00ElaEbc+/uN3YqIiG9usXaeLBLhz86SjEADGdGlo9u/dwxPWX9tEZOHdBbiq6jzgwlECZI2kZ5XVs933Eqn5KJiyBAQ6b/VLk7TpYP2U4aMl+Eg8ydm2g0y2oOAYZUEZtc0PhkEKAOiu42DpyqDMAGreX3q4ttDzhAHGAcSjglcIhRYIRyY5FJUGyCwHIISkSxJiyHajBZ/NvuclKMvO8AUVEhxPtdMjTQJNro8Foch3A20R+dmXP2Q3ex6Eps3OPeTo6NJ7rzHUV39mzXcV1Bswprbkrbn14fLKCMrJm8gkXkHvOaLGPRnCPuMR3tPl4UE4Gmt+Pqw6U4yutJ8k4YAyGFPEHJQeSUc3VadfhkAKhoPzhoIIdQJl8TAvnOt4jGNHfPkVCXlTjaK9ooAwGByIx7TmoUNDT3lvyKHIVRqt24BzdRhoKRQE5FPIpHPYrwkggGDVXc3O/cdYSgVj+wXBI+M7htHPuWDm4y8YQpjI4PKkr1xegbGl3Bs52LxX2HQeSEZSRM9oVbY6Q34zk0JLNDM7aY99xqp9TateUafDk5fmgDEOgVCSgSIRjD/yKhP0K0ZGhDUZaHKY49TJcr7bWZnRF54KxEXz0XlQp+yBC4l5+PzvlECgYlkJoshGFA297LeDMFwqqLeCTNxRQ0OnL0d6aBTAAzISEawQFgIyCckjhkE+CQZHgW00ZgqkDRi3BiCJ8UiUc+9IunWco5iEpRHp+AchBwDjiVyjsUwAQj3GUTgUtO2RAjODGwDjaoYQc1XF86vbSysRDlI3P6bBjry/BtzsCUsAczx2609hIitFUr7rX+HTevU5GUDa5RA6RS9ofa0gs8OGIs3sDJavvcjX1qzMOOE25sxvdxjF14Q/J39yq/Tt3a2ZWjhbNX+hWdAFlA+TWkF+eUMABngEv4GvXJijYQyMUTjBCPoX8LVIQzTaihuomXTh1WbXlda5njPjDCvk9CvmadePaFc2bu0S5OfN04vhZ+XwhhYIMx5gPj4JxMOShm0Bn1/Mnj3Xt0hV5WloV9PsdKEMDHu3YHwoqEAkpIKZfeqMrR6deTLABSawyOjsZrlu+fuDNFDjDQDfHFZ3eomPvo7nHZANlZNGUHsAYxxZ+Tl7kOFwDbHuGMOUSgwPOTtl6zB6TFJFaaxv045ofNCc7Vwf27deKpUs1ceJEPX729J0vY6HtB5jq6DC/yvwuAB3viFMEAYqNESSVvCpTxuQs3ct77B4FlMN+r86ePKypUyZpw7pt2r5tr2bMmKlDh47K74tPM6yg06ij6Z04ckTzZs1Rc0NjfLaOtmCcUJICc+E9dfENgGsaAVMYLKgMtEsBczwoMyzteT12V1fJBsqUBVnER0ehYd2+fduteXCPNo9yxH0Luyt/6t7AcaAdlHub5d0beZo0aqyKXkQ/H+Nt9Wj3nj26++C+iivKtX7rJq3asE559+64HXjY8mIHvWHDBt26leey44jLXbt26YcffnBx4VBIvrYGnTlxWNs2/qjqsmpVFlYrJ32OHhbEAC4i1VWUacmCWTp+5HA72Vev3FJG+nTdv//I2V3v2LFNFy6eVW1dmY6dPKhtWzdq/uzZWjRvvgIen8rLyrR102adPnXKzYHX1tXp+KmT2rprp14UFirSC005XvARdhw7pZi768wNhFby8YKzgTIdfCC6ONRZJfQyLllB2WQNSwtMXzt+7on7HZWjXrIm9Xgfc8DNKVvF9TztoI4f26+5s+e40SJTykAR0+OBUIP27Vqv+TlZWjNvpTLHZ+jJ80caM3mupqblaMmcdI0fN09Vhc06vW+v0jNnasmS5Zo/f5aeFT3RxXNHtXBmhhbMna11m8+o5Hadlk9apAtPH8sdoxKSnj2/raxZ8/TsWfSru+RcV1mtjMmTtX/3Hk1Pn6YxI0bpysVLOrh3n+bNmq3N6zZozO9/r1mzZqiwvFj7lm3Q8rnLNPO7Zcq/80S3Tt7Qv/72U81cs1JFxaWuXD3nR/RULQDZQJndUkuXLu00id7zu9NkfjHyowRmN12Bdky3Gl34/UVG9eCBZAVlk0dsktkgZmZwKBI4C3vAgtQjA8SBdlDuXeX4dPzkLs2ZO8/pk8wY+FwdhxSOVKniTYHyTxzXrvkbNfIfv9aN/CsaMWWFzp4pUN2bm5owbq1unnqp1VmZun77kStqSdEzva55pqzMsZqXOUErly/W52PW6PaBMq0fu1T7X9yW+3qYT3rw4pqmzlqq569rXeNjsrmuslyZaZO1b+cO5WZO19ljp9RS16LsjGzduBj9Ysn+FSu0aOlsnbp2TjP+4RttX7FNX0+YriUrt+r8jyc0fVKunnpbooAcPUirV9VgGjMvYbO8du3aXr3fXw9/lODcx8xMVlBmagKPqSbHw6Zc4nPAgXLvyfTpTsFFpU+dpory6PysLySdPn9Sl64c1rFDP+qH7+Zq/rhcff2bz3X3fr4yZv6ogoKXaii9p+mZm3T1+CMtzZyqB0/exLL3qbKpVJMnDlPaqC+0YslCLVl/Xs/O12ntxCU6+vyunL1FMKLimqfKnLtEZy/ebif9/u3bypw6VVcvXnKa8d28AtWUV2nKhCnKv5nvnrt26IBWrJyvYxdPavL/+5mWZC3SjHnLdfTkdV3YdkYLZi7Vc1+b3AxEoPcLfWRiWjBnJbNVvTNn2ktn9/orLgXMH8bZZAVlSo3d/KFDh1IfU/gwERiwt9/PJE5+tTZVaPWyVVq0cK0uXLimTVv3atyk0TpxarfGjf6DVi2Yp4Mb9umzv/9UBw/v16Rpy1VQ8FzVhfc0cfwyPb9dqh2rV2j+ojU6fvy01q5boZsPrmvrltWaO2Oi9m7fqrU7Lun1zRotHzdXR5/myX1AyR9QW6RW+46fUUbmPB09eFhnT5zWrOxc7dm+UxUlpcrOzNL1y1cV9Pm1/vvvtXThQl05d06Zw77W9Kwpuv/ysVZMzNbWlVu0Yt02nb98R+d3nNbc7IUqDHjdnhRM8Hrj0JJttIHVBfPJtruvYzqDAcpGQwqcjRO9C5MRlCkh88UoCGjKOJPR3pU+9fRAcsAdct/risJCItCqxup6rft+uyZNmqnpWXN0q+CG/IEGHflpm3Iz07Vz/Q7t2rhbJ06f0MEj11RcVKPmmiLt2nZeTdUe1RS/1vz5K5U2dZq2bF+v2rYalZY91bIFWZo5LV2nrz1US3lAl3ad0u3KV1GbZ0+L2iKNavT5df78Dc3OmaOMKRnav3u/vK1etTQ06djhI3rz8qXjY01Fmdb9sEbzZmZr/cL5Onb8kFpDXj04eUU5k7O1YMVaFZXW69WNZzr501lVm3X4WwOQXtcHh4bHz991TMC06Y7xA/U7Bcy953QygjLtmq+qYwbHV3z43eu23ntWffAbtA86E6ZdUGCM7g8Je0oU+fVVnu/L6/Ydfb1KgFVtt8mDPRwRtTZz9rLfWfcGw60Khpvl87Yp5A2J1Tlf0K9ACNPjsMKBVoXYhBNgA4df/raQmltaFYi0iT2AYbUq5G+Qv6XFTVeQFZt2mhVSIOxT2NeilkizfDH7U1+bX20tbMt2+7oV9LMBhd0kQUVCvEwFe+TzNEl+n/whn7zhgEjc3+KXLxRWEAD2RHcFMm/trKg6AWUTCqtg41l8PAspmMPZYS/2bHw42KBstKTA2Tjxy2Gig7LJYseScBoc6xudne/d8dlE+E05aB8AI8CM76psfU2v7ZcYyDw7K4PTlCECJhhYENq1AU58COApFDO5iDMDZctFEOBU1FjdMoyuhcfW5EBPAI/DhtC4Y+9H5Od0CoXctklMmaKPsfmO50k1FPYqEvaqVQEFAeW4vN2KI+kamEZCigC+bleXy9BtyyaHIA/FFvKYOWZzIr8BY/qLcOxcj/gyc23CYvwxobFKpGfny8Ds5uvutD3SShSXAuae1USig7K1VwspFfbymKE+efLEFTL+Xs9KndxPvW95B7t9foKtMI4C4A18rEAWHx+6SVfUS7fNOgqEAFkY4IpggRFSyPmIe4TpWQ4RIg3OGAKz0WbRjAHDcDiogDzufa44QIhnghF+8V50+zRbq0MRTxQ4AWV6UXeCXBRQo9ecKkc5GPZwHx+IAjQdj6MrLAXYrt2+Uzy6jTtE12Dvv3s2h5Xf+AMAI/S2W4rffCCAFW60ZZ6no0sG1xkwE5dybzmQyKBsINJR5ji5kAU+jurseO9tyYbeFfxAUUpW94mdA2wF6D8ggUkAcXSagWu2M0e1XfTXqHbtYAzgdpqsVwEHy6YBM73hV5tTunlocEHPKr+mpsYtpPCBABb5aACANUCdTK4zcE4m+vuT1kQGZeQNWcRzbZ5zvtnEhIt/pj/5lAhpw4dkdp8wtGGjA/NOzIOyMMDQG08Pa9cdQ6/PJ6/PK5+vNeY98nl973qf1z3jcfF18vhYoPPJ19aiNm+D6n1t8rWQT4tafI3yeXxq9nnV1uaVv4Fv9VWrwVenBp9fweag/M1NavU1qY7v7LW2yN/WKJ+jATrivdHhl88b9cx5Q7PRCO2Ofq9XPjzvez3yeykzv6M86BiiBeEgndAAACAASURBVOMB3ZKSEmf2hqUFK9ymIXecDkomAekMmFNas5TIoIx8AbooVAbOnAKHlozCYHEWJpM8foy0OpM4DijhZDNOkNq8ebOmTZumtLQ0paena+rUqT/zU6ZmaHL6NE1OT9OU9IlKS5+gqemTlZ6WrvS0TKVPma70tAylT52sqVPTlJaWqRlTR2hq+niNTp+j7MkTlJYxSqOmT1bW+FxNTZukCZlj3RkXEzIylJaWo5nj5yozY4RGzRilYWlTlTksQ7mTp2jStCkanTFfmVMzNGPKWE1Nn+TyJn/np6bF6M3Q1DTzlCfT0Tx1KnSla5KjPc3RmJ42WZMzoHWKpk2ZoqnpeEvn3fLDF3jy/fffu4bKdMWbN28ciNMwAGsahzWQZBWqzsA5WcvSF3QnMigDtvGgTHkZtTEKxnEPn8xD+r6ow2RJo90kjopF0+M8YM6p6M7n5d/WrQJ8nvIKbjifX3BLBXkFKsi7o4K8u9Hr/Fvua9T5eXd0N/+S8gqu6UrBI93Lu66825d15W6e7t24r4L8W7p555oKbt3T9YLbysu7p/vXH+l2wUVdvntZRy5c0qbFP+rY3n26eSdfF/Me6/atAt25eVV5+TdE3u0+Py9G+23l55m/I2iA5vz82yrIL9DNgnzlFeS5vMmfsvDl7Dt5ecrn2v3umg98NJXv8pkzLcTA2H7b/WQMOwPmj1VrTmRQBnBxJnNMoe3du9d9qox4A2x7Lhll8WOi2YFyMhS4qqJKN65fbz+cOxloHio0dgbOQ6VsPS1HIoMyYIwyYJowHz4+efKki6N83E+55OFA0oByOBJWUXH0c0slse/ghfjqSdzBKliA2O/kqYLkoLQzYP6YtOZkAGVkn9Eu60PYJ6dccnIgeUA5NkTjO3h8OSF+CzPCaGAcf52cVZK4VMPbzsA5cSnuO8oSHZSZmqB+aB8HDx4c8A8s9B2nUyklBSgjbGbRQJUByOzlRwANhLlv14Qp1/ccML5+jMCc6KBM3WCCySFYbGBKueTlQNKAslk0GDjzaRuEDzM+m0sz0Eje6khsyo2/WJhgodMRnBOb+g+jLpFB2bRkzOD27Nmj2tradouLDyt16u3B4EBSgHI8YwwYiEP4AGY+uwRo47hv3lad499PXb8/B4z3BspsTogH5vdPOfHfTGRQNu6xUYQ6SVlZGEeSM0w6UO7IZraJA8xsgmH4hgc0CG1FmjAlqB051/vfnYFy71NJzjcSGZSpF8zgOJnQvgtpdZWc3P64qU5qUEbw8E1NTc42+d69e2ppaXGAbNMcVG/89cdd3R9Wemvo8Zryh6WYPG8nMijDxUePHrnDh6gbnE1pJA+HU5QaB5IelG0+GU2B09n4Yi/bw9GOEVCEE63ZAMUKngp7zwHjYQqUE8v2F/k+e/asCgoKXKWmRoW9l+1EeiOpQRlGxk9NoCXfvXvXHcLCtAbnViCwnJNq4J1IzE82WlKgPK29yowX7RGDeMH5Fjt27Gg3g6NNpFzyciCpQZmGgVZgnt8AMxozZ3kAzAhoPHAnb1UNPuUGRHR2GRkZ73yD0O5ZOPjU9i0FiTJ9Ec9fu8YM7urVq67AyDrxtAm737ecSPzUkn2kkNSgbOKB8JknDu3YgJlT7yyO+PgKMwG2dFJh1xyAv/ALx64xTOJY6cfBV6Y0uE84FMEgUUDZZJYQb6fB8bknHHHxSoqL/Ij+DQXZGxKg3JnMMa98//59pzEDzAgrgME0RrzQDoVK7Kz8/REX36Hl5ua640rJxzo7wnhQ6A8aBivNRABlZJU6MB7DC9ZQjh075uK4zz3qIeWSlwNDEpRNaAmxyGAqA40CZ4BMiBCnQLnnwstiamFhoR4/fqyRI0dq165dqqysdAurxlsDjp6nmhxPJgIowymzJILP1AefezIzOOSdeJ75WOR6KJZzSIIywktloTHgOZzFgJl489wbipXaXzDHca6/+tWv9Kd/+qf6d//u3+nf//t/r9/85jfuPGkDDOvs+ouGwUo3UUDZZJeQzz3t3r3bacfwxbRo7n1MwDxYMtFf+Q5JUDZgIMQhoAAzCyKsVONMgNEuUq5nHGBr+7Bhw/TJJ584/2/+zb9xv7ETx8FLpoiM7z1LNTmeSgRQNpklRKY5mAtrIxxADP+Jt9/uYgj+M2UrGeUM2m1E01XVDGlQjhdOGMHB9CxOGTCbEFO5CHUiOugyb0LYkVa735/0W57w78///M8dKP+H//AfxKewzMHPweSl0Qg9HXli9wiNj0Z3T8JEAGXohMe4qqoqd5C9dYiUi3tWbitvT8qWTM9Qd/HtNplo72n7GJKg3FVFUaGvX79227LR+kxwjVkGKCbYXaUzkPHQAn3YWhPi0UYHy0HP3Llz9Sd/8if67LPPnCXGYNHS03yhGQ3SeEfYW5cIoGzlgHY6R/z7lKW3ZU+U5yn/x+A+KlCmQqlYFquw6ywrK3N1DBgzrKDhct+GGIkiANgFA8TQZQ4bbLQlFt0w/2MYy6Im4Z07d/rcs8pPuuSxc+dO/eVf/qW+/fZbZ+HSX3n2thxWfua+uebDtnyyK74Te9+6TQRQNqWhrq5OBw4ccIdBmTwM9fBjAWTq8aMBZSoVocYBvgAyX6DmlDPuoXHguQcIJpIQQJfR/+zZM/fBVrbV0jDnzZunMWPGaPz48Ro3bly/evKYMGGCRo8erS+//FLDhw93v/s7396kP3bsWEdfZmam+wjw6dOnHb84QY2OzOrf6pfQrt3NLv4lAihDJ7LJ5574Aj3OgLoLspM+mjIj/9Z2k75APSjARwPK8ILKjdc6OSyfISBfo7aGyX20KfvdAx4OyCN8cfzEiRNuDpcFHjYLMJ9o9EIzttnxv4nrS0/aXm9Ua6eRwE/T4Psyn/dNi/KzsYWpHq7Z3YlWicYN7w4fPuwADZqp397UcSKAMoKGzT0dDZ0zrjdlGBBB7cNMkC8bvfZhsgOSFHS/b0fyUYGyacGENHyYxhD34sWL7rB8AxkadiIJO9Mt2KNyEpjtUBwQyUqyTLpqBNQlHQp8BFzpiAHtjq67Ok8UUMYuHPtwykN5zXcsS7L/ply0UTrQZARmsKQ7eequfj4qUIYRMIoKN4YRsugHMKN9IOwwlGfM8Yy9Z3F9HZI++cY74ug0+OYa88cdndHVHs86CGSHglLYp5ArpxThg7IKiP9kEQ7Cg6D7zeNhhcWr3Oe5aNHDCgQ9isT4QF7BcEihYEBBdo0FpaA3Cgxu+SVCeqQEjyUMsyIR6PBGIyBLElAYjvilUIsi4ZAC4Wi8oy32riJ+heRXJBBRJCAFHXEhRcJBlwb5RAvqcnOUw4MoPxjSO4ocWzrWI/XLHDxncMfPNcfLRDs/4y4GGpSRBWvYlMscGj9z5jji48tnzyR7SJmsPowH/V2mqOy85fP75md1At3vWzcfHSh3xWwWhABm7JmNoTRaEwquadDxDaSrtN4nnnQtL8ufKQvmjQ2Q4wW10zwAQ29AEY9XkYBPHqYXgmFFAkGFwl61RpjOCCviCSmIvSQg7cAyFAVTB850SjQKQKFN4WBYQX9QAcA4ElYoGFQwHJE/LJcu+Ec6ingdJJMecT5oCXik1nrJj21m2AEyJ5EEgs1SoEZBb4va/BH5wlGI9QE0dAJhr3zyir9Qi+SJ0JFgPRGQNwKtLHgC+++Ccqc86SQSzQubdRYv0cZwhPC9KzfQoExdQ49pxNDFl3b27t3rFi/5bQDQFc3JGN9f7euXePG+APpL6b7P/Y8elBECGimOrdh8kJWFFBsyEdpUh4Xvw+ievENegD8CwjVfkmDKAmdATWhA0jHNsELyBVqltoj81QE1O8j1RzXVkFQdCqjN3yK1tigQisgb4o2ophrVltGYIwqFfQqHAoqEQN6Y9gBWRqRAGH7FtG3eDZOCX9GUGFHEsvN75At45CcN5np9QXlcWm1OK3cA7G+Vpy0ojycSBXL5FAn7JGgDdLxBgdgtISnokSKhiHxqU7gdkA2UO3Lil3+z6Mdima0nGAh29eZAgzJyiae+Dahu3Ljhzk2GRpOHruhN1njkfqAd/E2B8kBzvZv8TPARchxztpjLYeZl4GdA2N+gDC0mlJh0sTGD38TjcdBgz7iIuH/ovUF/a1S19EptwWaVlr9WRWmFQgGALihf0CsFAPag/KFg+0RAhOkCINqBb5siYcAc/K5XZVmpWhpbnG/zowGHpYBfLUFAmudaheV0OMLLTA2h7DbJ529TQ1BqDQD0qNRe1Zc/06uSYpW2ehy0hnweyc9QD2hnLt/jlGDSC7Z6FGhtUXMwzGxMVGMXujZgjHu/4abxks1EADPzy/E8jiX+TjDQoAxIGJ3UN53Ivn373JfcIcw6kV+i+51CJPgPyjLQ4Eie1vbflz1WT+/7fsf3PnpNGYYgCICdVQ5WDUxloDETj0eDJewvZ8JhjY3FHKZScCas3OPafGe0RHxBhX0BtTTVacniRfrqq5H6w+8/05LlC1TbUK9wKCymeqPAxjywKcOxoTvYGWpTJBRQZWmNMtMnK3tahs4eP6tTR86pzRNxUyTye9y0AnO/Ult0DjmaWpSskFd+b5ua0NDDcvQc37JCwz79V/3h0y80akqWbjwtkcJtIi2cm1Bx89BRsH394KnWLl6pl6WVTp0Ph5jxdjp2NI8P+A8vqed4e1/42pUbaFCGDugxmcMeHVBGRqHd7ndHc1dlScR4yknZBro8fZGftcu+4msKlGOgDOjirZI4gYtVehZV0J7RVqwx9BXzO6ZD+gimmb8xz40jb+swuqPBYQq44mvUstlpyp2/Qk1NPtVWlGjy5GFatX17NMtgRF4ferNpnG8pYQ7Zom9cuaFRw0eovLhEYX9YobYYlpOFr03BsFu2UzjCImI0rTCLjHYdZrpBwjr4/OkjmjtpmO7efqSWplbt239Ek7K+U3HRk9gEiuQFbBwuMq/t1fO8R8qZMFdP33BWMJ1RQP4YIBnF1FeUJ7wIDV0Da8d3eJd5ZWyYu+Mr7w00KFPfeJMJ5pL5OLCVN/6+lSuZQ0B5INpYX/LIsMLCvko7BcoxTnbWKAFmpjJouNi+4qwxcE1lmI8l80EBizo48sPiwmiykHu/JABMQTS/LtXYT7/W09LiKD1hqbSwTPeLitXqadGW5cv1hz98ruGjx+np8ycKhlq1ctkGzc79Tn/88vfateWY04azM6foz//X/00Hdu3Tzat5Orz7oqqelSp7eq7GpGfo8K5lWvXDMo2cOl1TRn6hdT98r0lT0pQxcaSevXzltOdAJCRfW5WWLl+oA4fenpPRUt+subnTtWvfVp29eEGTJkzT/MUb9frRK+3atFLDxv+r0r6dqLRvZqiwvF5vXtxX+uRxGjthqt68Lld1VZOWLF6psWPH6+SJEwo79R9QjutousBn+Gm8ptPduHHjO5YYUaa9+38wQZkNToCyyaDJAeX4JXl4txSJ98tkuy/bUVelJA/y6wu+Gd1d5fUh8SlQ7oJ7Juw0XhZYMKGyuUeA2SrYrrtIpsfRpIemgCO/rVu39vjdtw8yBeFT4b1iTR89W5X1hQqGmhViwcxNF4e1b/8OZU/O0NOnz7Vp8w5lTJuikrKH+vRfxmvDD9t15swefft5jurKG3Tp/AGNG56hyjflOn7opObn7tC9E1f0T//wzzp5574eXlyvL779g/ZeuaOD38/VF599qmsFd7Vm4Qxt2nlYLXRiEY/aym5p3sLZOn7tnsNMLOJY/FszO00LVi1QzvwlGjtqhp6/qdGeTTu0Yk6OHr66ow1Llmvs5yNU8Oip1ixdoX07dmjH7t1av26Xbl1/pE//8LW2b9vl5lvR1qNLlrFpGJjSBShzy3jNwu7s2bPbf7/l5btXAw3KaI4mg5jBYcaXch/GAYA0GbTxFCh3U880CjwaM9rrrVu32jdvWE/ZV6AMGaSFYy750KFD3VDWxS0W2iIBVb4s16gvR6umtlihEFMy0ecbW2uUm5ujXdsOuoi62gaNGfOtbtw8pulTVurh7VeqKL+vKSOXq66sQXdvn9KsjKWswOn4wVNakL1Xz87cVGbGDJVwhsjNDZq/fLZe+KRHJ7frh1Wr1BwI6fTB9Vq95bBqAN9Is9pqH+i776br6LlrLt8IAwKPT2sX5ej7bau1ePUm7dh4Vp5QQPNzsnRyzwH3XNGD21o2M1MXrl/Tl/88Ut98/rV+/8X/1MTx2bpw9rYyM2bp9euSWAfZO1C2+qNet2/fnnCasskeU1jMJds5LdGaHBr/rdMZqNLQvmyENFB5vk8+KVDugmsIjAEu11QmDRiNme271uPyjDXwLpLqdTRHi7KDz+aUe5oAmBzwYQxRrbnTRmrzvuPtr25cv0izVq3V3LlLtGXFChf/7OUbTZw4Rg8fXlHGhMV6WPBKpcWPlDZyhepKm5R/45RmTJyrSFtAJw6c0dKcQ3p+Nl/paRkqD/n1Jn+j5i7L0fPWiO6d2Kk1K1aoxefVib1rtHrzAdU7UG6RJ9SkvTtXa+WCuWrC6FjS6zsPNWXKJF3JP6ENG7Zo9+aLYmvI6oXztXPNevfMvavnNHPyKF3Lz1PayCxt37BVl6+f1YVzd3Tj6jNNnzZPpaXVbjEsHAaUGWngY71QN5oyGVBvdLR46hHflRsMTRla2CL+Xh10VwX5iOP7up32FytToNwNZ2mkZnUBCHPNYgtDXkyUqGSe4V5f9PqkYYKDVQDfGOyNQyP2etgi59er+/n6enyapmZM08Rvh2nUiC91/eFTPX36SunDhmvixAn6duQo7dyxWTXVhZo8epZePCxVefFrTRmxWFWFzbpz87LSx2Qp3OrTiX3ntGz6Id0/mqeczCw1RNr09PZW5SxI18tGjwpOH9TqpUvU2lqvY7uWac0Pm9SMibIiwmCutuqJfpg7XZOGTVLmhFkaP2KG9h46Il/gtZYvnqddm0+5oj68UaCssWM0Zfp4jfvsDxr72Zd6VVyiQzv3adRXX2ns+HHatumY8m++0bT0eSostA+G0gMYMPcMlLG+wMqFM1DgfXd1ONCgjBywwIyWzK5OnMlGb2QiUZ8dSmXpax6nQLkLjtJA47Vh06IIMU/CMoPDbvhtZkskZQ3bwi6S7zTaAB6BxYaWuURo6LlD0/Ozuc7N3RaWPtWefdu0f89hFRVWxjTIsIpeFGnP7t06f+6c/FhRBDx69bRM3uaAAh6fXj2sVLA1rNaGRhU+LVbE51d9WaPKHjeptbhJr5+9lCfSqrbmR3pV+kiNoZBaaytVUVysUKBZTVWPVVlSqtawVCc25rEppEmhxkrdPnpEe7ef1pW817EluUqVFj1ReVG9nMVhQHr16Lb2/bRBdy5f1Zv7r9XqC8jbVK3Txw7r+PFzaqzzq7nBr+dPS9XS7I1pyvCJ8uN7BspszKEeWUCjvrqrs/4E5a7y5XNPgDLul+jruYwM/pPWrgaCkq54OxB5v28eKVDuhnMdK9R+A5oA87lz59q3QAOoeO4hdGjV/O6pI23eI2RBkekSgIDhqzkT5vhFIJ63fCPMXwB1XViGYbZmpmuWZo9Cm5SOeziaTrTDeHeW4O0vyEB3dc9GuuIFT0Qd+0vex1m9tINxXCLUh/HI+Mdtzjuh00MLtWcIu3L9CcqWP3TGeyxwOtqqd0VfKv5dDsBH6jsZXQqUe1FrVDSACAhyzbCXXXec3MVvs3PmGYC1N6AMGQgR7xp4MKe8Y8eO9g+Tkp49Q34GIsRbXsQPnH+rwb2bZ1fxndHW1bNdxXeWRtdx8MV4SohDM2YKiukh6zyNf12JQ3+BcnwdwkNzHM26f//+d77CHn/fnhuMEDoSHfASnb7u6i0Fyt1xp5N71sgJaVAA88mTJx0w8zgN33xvGhHP4tGQCc0mlVV3FnrsM/J2n2egweggbwSR+JR7ywH4QT3BJxznm7BZhKkLrGqIt47OAPLt22+v+guUO4KH0cAojHOTccThU3X7tj6G8lUKlHtZuzRi07ysQdk5vfYVk45A0NMsSM/SjG+EzF0fO3bMHUbD4o8BSU/TTT0X7bA4mhWrFjsJEL7AZ/iJ57or11+gbLJCvga6LCLv2bPHnQpHHDJBCI0pN/Q5kALlXtSxNQxrKAx9AWh+o9HScIuKit67ARkwAA54tGXSx3GN6daPP/6oM2fOiEUg5pvZkcbhSQUFBc5jttefnnxIHysUhv/2uz/zfJ+0jS4AmMOd2IwDIHMqnHV+NnVh9TlYoGx1DD046pWvpOAYGUEXsgGdKTf0OZAC5feoYxqHNRKurTGzaMRxm/GG/taQCO26syzj75MevwnN8w7XaFEMvQGZiRMn6uuvv9aIESM0bNgw9yFTvpvXX97yIM+/+qu/0t///d9r1KhR/Zbfh5QDWr/55hv3DUMOl2KaycAP3lJ/8Rqo8buzuiGuvzRl6hRacAbAzCUjS0YTz3CNHyz3IXl/yLvx5bV0COOv458ZCtcpUO6jWjQh4UB65pjjNWbTzAgNGPoo20FLhg+T8uHZj8X1JygjO9bJYwrJ1AWykggO2ugUoMc6j8GgCxqsA4MO+z0YtPR3nilQ7gMOW6OyhmTAbAeoc5+hKYKENjSYwt0HxXUdC6DM1zs+FtdfoGygZ6DMpiH73NNg8xbaUCKQ2cFWJgyErS0NNm/6M/8UKPcBd014AV47tIhVfr46zdwvAoUDtA24+yDbAU+CcuIo57Rp09zGiwEnYpAy7E9QNpkwMzg+3JsoDtm1ue7BpAkeIX8mg4NJS3/nnQLlPuCwgTLaBEJsWgVnWMR/94/nTLj6INsBT8IaRAqU31pK9EUlmJbMgiamcInkoC0RQJl2ZZ1XIvGnP2hJgXIfcNWAGDDGIzzE4Tm8iLlXvmKCgFsD7INsBzyJFChPa+e58aI94j0vLB2Ab926dW6nIXKTCA7amLpIuYHlQAqU+5jfBrwka1ox5mzMvzJXSOOj0fEcoTXK+Os+JqnPkjNaU5py32nKBsBY1LDAhxvMjps6xiO7pmD0mQClEuoRB1Kg3CM2vd9DCDcNDBADmDn2E60ZYScewbeQ60R3KVDue03ZNFG209uuTevMB1IeqFs6CGQV+bTfA0lDKq8oB1Kg3I+SAOCatYWBLxtA+LIIgo+jIbA4CGgnukuBct+DMnX+4sULt1kEGTDNeaBlgY6A/JHLRLC2GOjyJ1J+KVDux9oAxNA8EHiEnRDPNAYLgKYl0RANpPuRnA9OOgXKfQ/K1P3Zs2fdKIoKQg7owFPu4+VACpT7se4BYBqYAXN8Vmyl5Sxf00p4NtFdCpT7HpSx0Nm2bZs7HAmARh6SQRYSXVaTmb4UKPdz7QHKNDYAjWsDNrLFBAotidPKcPH3+pms90re6KOTSdkpv9+WZ+OhVQDTWdhA46zzTmnKxp2PM0yB8gDWuzVIQrQhQg7O4YhGTn/jNwDOPYaxBuYDSGK3WRn9KVB+vw4U/lGveK4B340bN7afx92x0+62MlI3hywHUqA8CFVLgzStiAaKxsxBRhw2FN9wE20YC224FCi/HyhT1zgWdnGcske9m2ZMJ2zPuAdS/z5KDqRAeZCqHYBDO7bFPs76ZSqD7dmmKfOMAeEgkflOtkZLCpTfD5QBXxshAcCcBod9Mo57xKW05XdE7qP8kQLlQah2a4A0UNOGATxOCOMzRXw/jmdwdn8QyPxZlilQfv+FPpuKsnp99eqVOHzIOmV4a/cs/FkFpCI+Cg6kQHkQqhmgpTHSEAkZstJocWjMzDEzlUHjNCAcBDJ/lqXRktKUe68pU5fUu/EQk0g64HhnwG2yEH8vdf3xcCAFyoNQ14BavDZEI8TbfCIHsnMwDZ+XMmfP0KgHq9EaoKRAufegbPVH2NTUpA0bNrhzUahf4oy3APdg1a/JWiocXA6kQHlw+f9O7jRGA2sOyefoT0IcQEiDBbjRru25dxLo5x8GHClQ7j0oUzUGuGy3Ny3ZeNrPVZdKPok4kALlBKksGqd505QqKysdMLMNl3s2BB6s7bgGIClQ7j0owzvqlU6Vcy743FPKpTjQGQdSoNwZVwYpjkYb7yEDaww+L8Vh+Ti7PxgkpkD5wxb6qDPs0g8ePOhGPoNRh6k8E58DKVBOoDoybcqGufabOUjM5bDOwA3G1AX5pkD5/UEZ/jHtxFeq+fo4bjA7WEdA6l9CciAFyglSLQCeeaYHAF4aLQCN4xNBZ86ccYflDxbJKVD+MFBmyoIzk+OtbQarLlP5Ji4HUqCcYHUDEJszjZkQQGQqA4358ePH7hEDSX4YoNu7/RFafqk55bejho587lgP9pvw2rVr7V8A53d8XXdMJ/X74+VACpQTvO5pvCzsGUBzzRwzJ8zhuG/TGQbe/VUk8sKlQLlrUIY/aMLUCZ46wTF1weee6urqHBjbfXcz9S/FgTgOpEA5jhmJemlzjzatwdkJ2DEzN2lDYRo59w04+6MslnYKlLsHZQPj+OknzOCOHDnSPo8ML42f/VFXqTSTlwMpUE6CukPbMk2ZBk9jR/Piu395eXnuNw08Bcr9V5kcr8lxpea6AlQD23hgphPdvXv3zyxoTIu2NFNhigNwIAXKSSAHBsimKQPIOLRk5inxPGOA3V9FMiBKacrda8p0mvDKQPfJkyc6dOiQqy+rS+5TXymX4kBHDqRAuSNHEuy3aV7WwAFE5pVNE+M+2vLVq1fbD8vvryKQFy4Fyj0DZZt2Yg2AYzqNd3SmBsrGU3cz9S/FgZSmnPgyQKONb7g0dBxxppHRyPnuH8Dc0tLi7seDuL3zoaU1OlKg3DUowyPThuE7J/5t3br1nQ/j8ozx8kPrJPX+0ONASlNO0jq1hg0AcI3m/PDhQzeVwQo/v80D2n3hDEhSoNw1KMNzppeM5yzIMvf/MTiTj4+hrP1ZxhQo9yd3+zFtGgAN37RlgBKABpg5FhJg5hniAIq+cNboUqDcNSjDwKwzNwAAIABJREFUI/hNyKiFzSLl5eV9wf6ETMNky2QjIYlMMqJSoJxkFRZPLoAMMNMwuLaQ7dhoaAAzzhpO/Lvvc20NLwXKXYMyfDUt+d69e+5sbOPb+/A89c7Hx4EUKCdpnRvQGhjz20CZOA4wYvcfc5p95QxcAJ3MzMyPZlgO//jwAGU2Z7yw3x1DeMT39/hoQcqlONAbDqRAuTfcSqBnAQU8AIwj5Hf8dEVhYaE7L6OqqqpTyn8JWDp9KRaZnZ2tW7dutT9iaRkd7TeS8IKy4OPLwpRQVlZWe2noAK3MRNo79sUYPlCwd+/e9vppf7EXF5ZmL15JPToEOJAC5SFQifFFsIZsYA0wo+XFn98LYHDynGnb8e93d11WVqaNGzdq4cKF+vWvf61x48Y5+9ua/7+9Mw+u6rj3vF2VP/JeUnFlZuyaylr+JzWeeFLJmyTOxJ5xXhI7Tl7ivPcqiR3bOLaDje3gBbMZhCRAgISQTdgM2BgMNmA2I7SDhPYF0Ma+CAQCIQuQ0IZ0t7N8p359dcS1g0Bq0ULL97iac3Xv6d/p/rT8ua0+ffo0NfVISYY2ImV2vXhD7TNhJ2WXXq7shY/8pSFLbY4fPx4PP/ww3nnnHfVlJPWM/MtEXst7wka+sN5++231hSh1lM/ky7I/m1cWycttdBGglEdge8v/0CIB2cvW2NioLv6JmOUJyuPGjetZ1Kg/1Zcx0p/85Ce47bbbetLPf/5znDlzRoXxJOWdtz+xh8KxImLhFslOvtQeeeSRnvrefvvtWLFiRU9xI4Ur9X7llVfUsV/+8pfxy1/+Eu+++6664NdfuUosL/WcjC9GBQFKeQQ3sydJqaKMbU6bNg3f+ta38KUvfUnNne1P1UUQctPKsmXLcMcddyjxfPWrX0VSUlJPj1HON9xFImKWJPXwesvSOxbJypeRiFbG6z1xe8fJXjY59gtf+II69pvf/KbiLMuuep/3lbkc31+R9zU2jxvaBCjlod0+WqX7vABkqGLevHn4xje+oWQhcpkyZUq/ROHFlF73o48+quLcf//9PQu2S0HlGBHZcN6uVQeZzSJ1/eIXv4g5c+aoeci91TErK0tx/spXvoKFCxeqLzLvtvje8vT2vsdcHqTLbfQQoJRHQVvLGKk88eKFF17Aj370IyUXEavuzAwZY/32t7+NiRMnjgJ64SrK+Pk999wDWe3teps87uk73/kOxo4d23MX30B7vLLkp/x1c/fdd2PMmDFqSETW1tbd0tPTdbMy3yAQoJQHAXJfT+H1jGRVMblyLz2tJUuW9CstWrTomscvX74ciYmJeOyxx9QQxte+9jVMnTpVjY/29RwSW4Yv4uLi8MMf/hBPPPGE+nN96dKlPef8+9//Dkl9jTnUjlu8eDEkSV291zKG/PTTT+PHP/4x5s6dq+osn0nZI/fCePLkyUrK8pfIypUr1edy8c87rq/1lfMLV2EpFxjvvPNOPPTQQ+ovHmkDieeVsa8xJZ/E+9WvftXXX0kedwsIUMq3APq1Tun92Sy9KpGyrL373nvvYc2aNWrGg8x6GEhau3atGt+UJynLXWabNm3CunXrtGJKPsm/YcMGrfwDqcetyit17QszYSPLdK5fv/6msZFze20m62jotpvHTsom8SRJWeV3IrK8q1evhiSZ56479HKt33G+1zcClHLfOBk/SqQsQh7on7rGC8oTkAAJGCVAKRvF27/gkb1lySlX+LmRwGARkN8/Sd7mzUTxfuZ+cAhQyoPD+YZn8XrK3nSsG2bgASRgiECkmA2dgmGvQ4BSvg6cwfxI/kfw5sXKvFYZv5QLRN7FHLmww3R9Bh4r2ctFUu9ncrs+N4+Px0vYSUpNTe2ZQTKY/y+M9nNRykPoN8DrochNGjLfVS7MfPjhh0x9ZCAXwISXzDKQmzzmz59Pdn1kJxcQJckFP+93TtaBlt9FboNLgFIeXN482yAQEJFMnz5d3V4+CKfjKUjgphKglG8qTga7lQS8vzTkpphJkyahpqbmVhaH5yYBLQKUshY2ZhqKBCjlodgqLFN/CVDK/SXG44csAUp5yDYNC9YPApRyP2Dx0KFNgFIe2u3D0vWNAKXcN048ahgQoJSHQSOxiDckQCnfEBEPGC4EKOXh0lIs5/UIUMrXo8PPhhUBSnlYNRcL2wsBSrkXMHx7+BGglIdfm7HE/0iAUv5HJnxnmBKglIdpw7HYnyFAKX8GB38YzgQo5eHceiy7R4BS9khwP+wJUMrDvglZAQCUMn8NRgwBSnnENOWorgilPKqbf2RVnlIeWe05WmtDKY/Wlh+B9aaUR2CjjsIqUcqjsNFHapUp5ZHasqOrXpTy6GrvEV1bSnlEN++oqRylPGqaeuRXlFIe+W08GmpIKY+GVh4ldaSUR0lDj/BqUsojvIFHU/Uo5dHU2iO3rpTyyG3bUVczSnnUNfmIrDClPCKbdXRWynEcVfHrPaNPxO3Je3RSYq2HOgFKeai3EMvXZwLBYFAd29LSgilTpuDMmTM9eUXYkYli7kHDF0OMAKU8xBqExdEnYFkWfD4fTp48ifHjx6OiogLt7e1oa2uDfCbSFjFTyPqMmdM8AUrZPGOeYZAIBAIBrFixAr/4xS9w991344EHHsDvf/97bNmyBfKZCNm2bSXoQSoST0MC/SZAKfcbGTMMVQIi3dWrV+OOO+7AbbfdptK9996LwsJCJWLpIUuPWY7jRgJDlQClPFRbhuXSInD+/Hk8+eSTuP3223HXXXdh6dIlCIVCKpZIWXrKkriRwFAlQCkP1ZYZAeUSCXrjt5Gvr1k1F+pY7zjpzUryflZ7JxzvM+91n0OOFdnKZ6tWrcLXv/51jB07Fp82NqrTObYL27LgOjYcO7x3Jb5KLlyJrZKtjpHjXFfO78BRyYX8F7lFliNS/JHH8DUJ9JcApdxfYjy+TwQ8oUbuRZrys2wyjCCzJOrq6lBdVY301DQsWrQI8fHxSExMRPz8+ZiXEI+E+QlISAin+QkJSOx+7b0XuZ83b57KKxf5vv/97+Pxxx9H4oK3kTD/LcxPSMT8hHgsSJiLBQlzkJQQh6T4uUiKj0fSvEQsmJeEBfMS1fsLEuKQmDAHiQlzkZAwF4lJidi0dTP2lu/FkaOH0djYgFAooL4ApE5yAVHGrKVO7IX36deDB12HAKV8HTj8SJ+A13OVCNKjlE2EJeny5csoLS3FJ598gpycHFRVVmFPaSl27tyJtLQ0pKWnIzUjHanp6UhLTwu/l5aG9O6kjpHjIlJqamrPzxkZGdi1axcyMzORlpaBtLRMpKdlICM9DRlpKchI24FMlVKQmZaGzNR0ZKRmIiM1HZnpychIT0Z6eopKaWkSNwUFhfk4fOQgcvN2Y8OGj5BfkIezZ8+qunmzOqS3LGLmRgIDIUApD4Qe8/ZKQKTsycqTskjrxIkTSr5lZWWQ8d/W1laEguEx316DDZEPHMdCl68T5xvqUVVVgaysLFRWVqKzs1OVUHrL3jDGECkyizEMCVDKw7DRhkORRcTeUIWUV8S1f/9+FBUVqZs6Iv/Ml9cydit7byhA8vY3ecMHcm6Jpc4hoyVyXc+BGj92XAs2Qt3Jgi3ndRGRvDFkG44bTrZjwXWljN2B4ELea25uUvWROsmXi5yfUh4Ov51Du4yU8tBun2FdOq+HLDd0HDlyBPv27VPjyF6l5HMlUhGwiM6bsmbJxTYHru0AjquSfO4lyff5JAIXIUoSGcvP6vw9UnbhiKzh4KqWHYTgwlIJkIEH6bPL3vbOpy72iZBlvDiEkBWE5doIhIKq7NI7Pnr0KKTn39HR4VWNexLQJkApa6NjxusR8KQo0j148KAaQ+7q6vpMFk+sImPpg1oiQLkQKEPQklQX1oFj2bBlOMSxYEF6sld7wp6A5TyS5Lzee7J3LRuwwnKX84mAA66NoOsg4NgqhWwLlmMj5LoIAOHkhAXuOCG4TjCcXMktPWtJrvoCkHPKJn8F7NmzR5VBfpZzSVm4kUB/CVDK/SXG4/tEQPVSATQ0NKgLbvX19eGe6zVyi7qkh9qjMCVkedMBLBtWMKikHBKRSo9VetbdwxORAvbE7PWW/X4/LL9fpnoAdrjnHLRFxhIH8Fs2glYIdiiEQGcnQpYN+drodAGfTKFT3wwydCFrakgJ5atDtBwuq/flIHWVc8qFxWPHjqkaipA9KXssrlF1vkUC/0CAUv4HJHzjZhEQYcrsCulBiphUz7V7JkbkOUR1nvLU+9095YbaOhTs2o32yy2qFy3H+BwLAZF095xkT36ekGVM2usxy+ugrwuwgoBrI2TbCDkuAg4QEOlKp1z+CQbh+nwIdAXR5gDtIuXuceawiOXMXgnDUvZGl6W8nnyPHz+OTZs2qelxXv2k3lIeitkjwv2NCFDKNyLEz7UJNDU1qd5jY/cNHL2J6ZpSBrA3vwiTxr+Gs6fPqPFkGXYIyPDB54YFRNCSPDl+psD2Z6eoeZ1wOca1xLzhozs+vYDtG7airtWPVjfcW+4KhhAM+uC6AaCntyzj316fOSxkqZec+8qVK5CpeTL32ntP3peycSOBvhKglPtKisf1m8ChQ4fU7AS5GNabkCWoKEsGCHr0KeYEUF5QjCmvvYHampPqZ79jq2MvXLqA5ORkbNy4UU2xk56zbLJU5+bNW5CWlo6S0lK1OhxcC/tKC7Fu7QfIy89Hlz+ApssdOLD/MKyuEJrPNKD+yAnkfPgxHv3ZI/g4q7hHyjLMYYV8cKwuQMTcPcgiUpayWt0XE0W8XpK/CmSqnLd5veTr1d87lnsSEAKUMn8PjBHIz8/H7t27VXxPWtc6mUhZlNfTn+weXK4oKMGbr0/EmZOnwjEANLW3Y8nSpYiNnYlZs2YjNjZWybi5uRl/X7hQ3RE4Z04cnnrqKVRVVaEwPxexM6Zhwfx4vPrqBOzKyUdF9UHMio2Hv9WH0vRsfDD3bWQuW43f/9+H8cGOXDQ5gMw89lkyJS4UFvLnpCxlteVioPTQvel3gKpvUlJSTzVFynIMpdyDhC9uQIBSvgEgfqxPQO7ay8vLU0LqdXihW8bS81Qd5IjxherCUkwd/zrO19b1FKKkvALTps5G/ZlL8HcGED87HtlpGdiVkoI50VG40tqE+nOnMGniK8jL3Yl5sYnISc1X+bdvzcP8hEXIK0zGzDcXwt8UwL7MNLwf/R7qi2uRODUBh863oh3AFbkQaEsPWNbJkDFpry8fMaYss/WkNx2x8pysSCfLh8omn4mMOXzR03x80QcClHIfIPEQPQJy915BQYG6cUTkJJK61uYNB6hPRcpeTzm/GNETJqP1wqWebLlFRZgZswABMSeAdxYuQ8a2ZGz7cB0Wz5+r5OnraEb83Bjk5WUhbkYiDu09oY4tK6zBnLi3sLtgI2ZOWwK3A9izcztWRX+AswVnMXfSXBz7tAM+6SVL791xYYVCcC0ZU5Yes/SPw1KWL5GQXCSU4nbXTeon85XlZhL1fnd92UtWOPhPHwlQyn0ExcP6T0DucpP1KWQ6nGz9lXJ5bhFeevo5ZKWmq6GIw0ePoPLAAUTPmINtm1KQn1OAWdNjcLiyGsf2V2NO9HTkZqYhZdtmPDPmSZSUFGL1io+wOHEZyvcW4635a/DR+q2oqSvDhFfmYGfKLiydH423Jv8d5/fV443n30BW6UG0291S7l5ZLizkz0pZ9Kzua4kYT5abZGQ9j8gLm73Vuf80mWO0EKCUR0tLD3I9vT/bi4uLUVJSoubx9laEz/SU5aDuC30NNacx680oTHptAiZNmoT4pPmoOXMG+/ZVITZ6NqZNfhMZyTtgybS3oB95WRlImDUTC+IT8OxfnkVFeRVaLrZh+cJ3MOmNl7HorQ/QeOEyQu5FbNyYiWlTo7B04SxkfpwDX0MXliYtxfL1KbjQFR7jlskZjmOHe8jdvWQpnpRX9Zld9NxBKO/LHGX5EvLW/JD3ZP4yxSwkuPWVAKXcV1I8rl8ERESSZEU4udh3+vTpXvP3SM47Qg1hyKBuCIErXWhracWlpiY0tbagKxRUd9O1t7WjtbkZIV+nkmbdiWPITE5G5Z69yEzNQPSMWTh58qyKGOrsQmvzeXS0BWE5FoJohj/kornlEjp9F2B1ycRlwO8L4FJXAC1BqJtLgl5P2bF6hi4koFde77ZweU+eBSir0507d65nHFnq782+8KrGPQnciAClfCNC/FyLgNdTlv2pU6dUb1mGM7xN3pckm/wbHq3t/tSTstgvYpMf5TZrW/Va5QO5+yMEOBZaL13Au0uX4c1JUzDx9clIT8tGMCC9XDmB/CPzO4CgE0QI7Uqs4Zu2feomEkcWuO+emudTN5eE786WhfEdufkkooTeAkbeovcy5U8uasraHl69RMjerAuvnhFV4UsS6JUApdwrGn4wEAIiIhGT7OV255qaGiUuGW+V90RY3qwFr+cpexFjWKTeXlm1Z8Gi8EJB8q/0XmWc15sZYaOrrQ3n687h/NlP0dVpQ903orKLnP3KzTLT2YZfzTMOqcWJ5LVEk4WKJHUvSCRDF57P5Skksu6GCFpuqbYdyNCGbLIIkcy4kOl3Uk9uJDBQApTyQAky/zUJeL1ET7wyziqrqcncZRl7lYti3tbtN+/HPu4ll2jTU7r0ta9uMvEh1POWHNvzQ/f6b577Ze05ee31e6/G+PwrqYu3+XzhL5rc3FxUVFT01CfyGO9Y7kmgPwQo5f7Q4rF9JiBy8sQse7ngJX/my0wM6VlmZ2ejvLxcjTkHggHYjh1eqU1Wa7tGklXcvCSrxYWcEGwnBMcOwrEDcO0gbIkTkvO68Addtb5FOI8saGTBkh6uLT3dyOQgpOIFEXLCa2p4N4NIuSVJXbxFjmTsuLq6SpU/JSUFtbW16sJeZH37DIkHksA1CFDK14DCtwZOwBuikCEML4nY5H1Z8P7AgQPqkU0i5+UrliMqegaiYqLDKTYa07tTVGw0VIqJxozuFBUTi6iYGMyImYHY6BmYGR2F2TFRiI2ahlkxMZg5czZmxM5GVEycihMVG9WdNwbR0bMRPWMeomfEdafZiI6ZgeiYKETHTkdsdJRKMdHRiI5I06ZPx6LFi5GVmaXW85DxYxG0bJ6QvS+hgdNjhNFMgFIeza1vsO4iX5FxpLBkCEPELO/JJq9ljLmisgJ5Bfkq5RbmY/fnkryXJ0kdU4DcgiLkFhQir6AQBQV56lbqovzdKMrPRUlRETIzsxA7aw627UhFflEBdhflhY8vLEB+fjEKc/egMK/kapIYBbkqhePsRmF+Hgry81GQX4C8ggLk5hegpKwMdXVn1ZeK90UjIo58LT9zI4GBEKCUB0KPeXslIFKWLbLH7AlaJOZ93muAAXwgq7XFzJyJc+cbBhDlxlmlDpH1MF2vG5eIR4wEApTySGhF1kER8AR56dIlvPHGG2rGB9GQwHAjQCkPtxZjeXslEClluQNQpuFxI4HhRoBSHm4txvL2SoBS7hUNPxhGBCjlYdRYLOr1CVDK1+fDT4cHAUp5eLQTS9kHApRyHyDxkCFPgFIe8k3EAvaFgAjZk7JMs5s8eTJOngw/Rsr7zJsd4f3cl7g8hgQGmwClPNjEeT4jBES43vznlpYWTJ06Va3Y5p1MPpPkidl7n3sSGGoEKOWh1iIsjxYB6f2KdNva2nDkyBG89NJLkIeYyhO1ZdEg7yYPT85aJ2EmEhgEApTyIEDmKQaHgNwxuGTJEvzgBz/AnXfeiXvuuQf33Xcf1q9f3yNlWX9DxMyNBIYqAUp5qLYMy9VvArKQ0EcffYS77roLt912m0r33nsvdu7cGR5vjnjQqTf+3O+TMAMJGCZAKRsGzPAGCHgrdqoFj8PxvRUnTp+tw69/929KyP/0z1/ErNkz0d7RoRbmDMlqdbaFkBVS6yJfveAXXrwTrgTkRgK3lgClfGv58+z9JSBravhdoMtVDxORR+j5rfCPssS8Dy6Sli/CP/2Xf8YDv7gf+4/sV2eQBe2DrgO/bam95cpC9eHF62XpTyfkh2uFulfW72+heDwJ3DwClPLNY8lIg0FApCyPZwoF4FryvD555l54qXt54FPAsrEzNx8/feBBJCYkoaWtHf5gQC2FL8ULOS7kcU7y9BD1CCh5DJQVCgtZVsbnRgK3mAClfIsbgKfvLwFXPc4p5F6BDZ9KLR2XcOhwFYqKClBSUITMHTuxYNZCbFy1FblZ+SgrLUNJUQkOVO1HR2uHOqEVdCFJRiy8FH4WVX/Lw+NJ4OYSoJRvLk9GM0xARn99cOCHg4utF1G8Jx/Zu5KRkbwRpblZOHvsKC7V1aOtvhntDe34tLYeJw4cRlH2bmRs34GslDSUFZbi8oXLPU+IkiEQeZ4fO8qGG4/h+0SAUu4TJh40lAi0dDkoqzyJrVszUFZciobak7DaLwF2B+B0AlYXIOPEtgU3GAL8IfXAPsfnw/naWpQXFyN9ezKOHjyEkHwuTw9xAMu7WjiUKsuyjDoClPKoa/LhU+GrsyPCi+VLya90dKK48Ajycg6g8WwrHLngJ4+WlnFmJ/xka1cu6sFVPWp5UjVk3DgkT78W69pAyI8L9WdQVpyH/NxstHW0qZGLUPdTtuU83p1/kWUYPuRY0uFMgFIezq03gssuMvTuvpPHRsnW2tqKvN15qN5TjWB7UPnV8bsIdl3t4l5xgUa/hTO+EE4HbFx2w0+tlvzy3GrHFTnLPI0ArGA7KiqKUFSai/auVvW5PGBV7v7zkvdcwRGMmlUbYgQo5SHWICzOVQKemKXXKrdK5+UX4OD+SrjWJcC5DMfqgEzGkNkXNRc6sLPyLN7POI3Y1eWYvGIfpq85iKWph5BSdgRHG5rRJcMUMgPDteG4MlfDD8ftRHlVCQrKdqMzIPHCD3r1pCxfDFIObiQwWAQo5cEizfP0i4CI0Oshy76oqAjlFZWwbenlXoTjXoILCxf9DraXnMDExTvxVGwKXkgqw98WHcD4JUfw6tKjGPdWAZ6dtwXjF2zB6oxynL7sVxIP2A4CoQCClg+BYCeKSguwr2IvHMeG3IotUpbbtmVPKfer6XjwAAlQygMEyOxmCKjpyN2ruskCQ8XFxejq6pIBCIRcH+RmkLoOG4uTy/H03O148Z1yzEq5jOUlFtZW2Pi4ysWmcgcrSnyIy2jCpNUHMS4hBfGrc1F16jKCDhC0RPwObMtBS2s7dmXn4MSJmp4nbsuXAdfJMNO+jNo7AUq5dzb85BYS8KR88eJFZGZm4uzZc6o0luNC+sqnWh0kbd6PvybtxqQN5xC3y8KyamDzaSD5NLDrjI28OgspZ4EVB4Gk3S5mbqzDq4mZiF64A/trLsslPzXjIiTXCB2g5ngtsrJ2qpXmvOEL9pJv4S/BKD01pTxKG35oVlvGbr2FLcLjuBUV+5Cfn49g0FI3ecjdeGf9wMJPjuOvCbswY1Md5qR3IG5nAElFDhbvcbGszMa7e/xYva8LK8sdvF3iYu4uG3FpnYjeVI/xiwoxe3Upjl2yICPL0luGrIcR9CMrMxOHDh9WvWVvBobsuZHAYBGglAeLNM/TBwIiP9V/VWtQdHa2ISdn59UniMjECQCb9jXjz7OzMOWDI5iX1ozY7RcQu6MZM3a0IjqlHTPTr2B2RodKcekdiElpwYwd7YjJ8CM6rQtTNzfgyfhsvJNRg0uWnFGmzUn/O4gTx49he3IyfD6fGkv2xNyHwvMQErgpBCjlm4KRQW4OgUgpA6dOHcf25G3o7OwML+DmAhda/Ji4vATPvV2C2K31iN1+EVGfXMKbWy9h6rYmvPlJM6Zvb8b0T5owfdsFTNvSiDe3NmLa9mZM29GuUvSOFry4bB9eiE/G/ga/mpHhOjLtLojOK1fU+ssybCIbe8k3p2UZpe8EKOW+s+KRxgl4UpbesoMDByuxOzcbdsStdpWH6vFMwk68svo4orY2YvKmBkzY0ICpnzRj0pZLmLzlIqZsuYApmz/FlE3nMHVTPaZvbcSb25owaUszJmxqwqTNFzBtYy3+ErcNW4tOokNGL5zw0InMvCgsLFRPL5HqUsrGG50n+BwBSvlzQPjjrSRwVcq2HUB5xR4cOXpIrX2sSuW4SN1ZjjHzd+PlNafx+vp6vLahAa9uaMT49Q14deOnmLDxU0zceB6TNp7DxPVnMOmj05i0vg4TNpwPH7fhgsozeUMtxiamY/b72bjgl0WOwncNyoW9AwcOqCl43kU+b38ryfDco4cApTx62noY1NSTsoNgsAs5u7Nw4sTRnnLbwRBWrNmBx+fl4KV15/DSurMYt/YsXlxXj3HrzqnXL6+tw6vrTuP1dafw+toavP7BCbz6/gm8vPoUXlx7Di+ua1D5Xv+wBs/Oz8Ar8z/GmfYQZPBClvWUbe/evfj4449VL5k95R78fDFIBCjlQQLN0/SFgCdlFz5fBzZtXv8ZKQd9ASQtW48/zM7C86vP4PnVtXjuvZMYu+YMnnu/Fn99vxbPrzqJF1cdx0urjuHl947gb+8dwcvvHcW4VSfw/KrTGPv+GYxddQrj1xzD0/Fp+PPkZahp8ispS29ZtpycHMTExPTMUWZPuRsMd4NCgFIeFMw8Sd8IeFJ2lJRTUrahtramJ6v0lFd+kIw/zcrE08sOYezKY3hu5Qk8s/IEnl5+DM+sOI5nVxzFX5cfxtjlB/H88v14Yfl+PL/8AP66/CieWXECf1lRg2dXHMPYZRV4cvY2vDBrDc61B8MT8bpvpy4oKFAPYPVkzN5yTxPwxSAQoJQHATJP0VcCV6Uswxd5+dk4eeq4ymxbLlxbxpT34c8zUzFm4V48s7gSTy2qxNNLD+KpJQfw5GJJ+zFmcTXGLKrEXxaVd6cKjFlUjScWH8KfFx9Sx/zl7WI8Hr0RSR/loTngwnJlwfvwU66rqqqQkpLS10LzOBK4qQQo5ZuKk8EGRuCqlF03iPKKMlRVV6jGPBBwAAAOHElEQVSxXSsUHu/df/RT/HHaJvxxVhaeeasYjycW4fGkPfhjYhn+uGCvSn9asAd/SizDY4kleDyxBI8llqr3/7CgAn9YUI7HkvZiTGIu/mPie9hedEINXaj50W5QzU2u3r8fJSUlnHkxsMZkbk0ClLImOGYzQcCTsvRYXRw9dhCZWelqgSBvobbmdgsTl+bjoVc/xONxmfjT3Bz8x+xsPDozB4/G5eF3cfl4VNLsPPx+dm5P+l1cIX4bV4zfxhXh3+fk49+mbsZzsz5GdV1buCJOAHB8CAT8SE9PR21tbc/NIxy+MNHWjNkbAUq5NzJ8/xYQCM8VDt/VB9Sfr8OOHdvR0tKiyuLKYvUAtpefx6MTVuE3r63Gf0al4LfTM/GbqN14JCofv4rKwyMzsvHrGZn4dVQaHo7aiYei8/DL6bl4aHo2fhudhUenb8fDLy7BiuRKNUdZRRUpI4jLzU1Yu3Ztzzm5dOct+DUY5aeklEf5L8BQrr6s0iYX3Q4ePKiKqVZtc100Bmws3JiD34xbgN+8sha/ei0Vv5yQi59NyMf/ez0H/zoxEw9PTcbDUzbjwalZeODNYvx0QhYempyCX7++Dj8bMwevz1mH4+c7EZSHltjykD5ZldlFZWWlWmtDziUX+thLHsq/ISOzbJTyyGzXEVOrmpoaZGdnq0XurVAIwZClbvSob+vCzEVb8LM/x+HBZ9/Fg+M24/4Xk3HfuO348Ytb8H/+thE//duH+N8vfox/GbcV9/9tEx4YuxL3PTYLL0SvQnlNM644gN8GLMuGa4fQdaUdqampOH36jOLnraVMMY+YX6dhURFKeVg00+gtpCwMtGvXLtVbtm15KohYVMZ/XVy43IVFa7Lwr0/MxPf+fRb+15/exv98fCm+++QK3Pv0u/jumBX47hOL8L3Hk/C9P8zGfY/F4pX4Dag806qW/1Q3jNiynrI8ytpGdWUFCtSKdOELfjJ0IUL2psaN3lZgzQeTAKU8mLR5rn4RECGKGOvr61Vv+dPGRjXEgK42wNepYnWGHKQWHcHzse/h/qfj8D8ejcJ///lk/NcHp+K/PTgNdz80AT/+42T84bUFWJ26Dw1djlquM9C9yL0VDN8y0tLchIy0VDSqc0jvmULuV2Px4JtGgFK+aSgZ6GYTkB6qN7YrTx+RdZV9nZ2Av0tJ2ZEngzi2mtLW4HNQVHMRb3+ci2dmrMR/vrYYT0x9D7NWpiG76iTOdVjwya3UsrC9rNRpA44sdOS4uNLahoLduag5fgKu46hHQEUOWbCnfLNblvGuR4BSvh4dfnbLCXhCFElWV1ejtLgEnW1d4bXw5UIcXITgqufuyaU6WRVZLVzfLWB5LX1hSSHXhTytGq5c2BM9A50dHdhTUopjh48hpBbSDz84NbLiXhki3+NrEjBFgFI2RZZxB0xAZOglCSYPMq2uPojs7DJcuNQGyxHZyuNTLQQdn0pOeL238Gr48rnjwhYJuzZkzWTXDgCWqBtobWnCzox0HD18FKGQt/LFgIvNACQwIAKU8oDwMbNJAl4PVXrJ3jCG7QCHjp/F1h27UVZxEJ3+sGDD/WMf4EovWsQbAoKh8F5WtlC3UIdvo7YDXdi/rxRp27ehrra2pwrdi8T1/MwXJHArCFDKt4I6z9knAiJjr6csr1VSQxZAfeNlpKTvQkpaGqr3V+LihXqEAh3qBpBrBQ/4/WhqbMSBqirs2LoZBTm70NhwHo7tqoenyiL3AVlfI3w397VC8D0SGBQClPKgYOZJdAl4Uvbyy5Q4Sx4/LU8FCYVQX1eH1O3JWLViJXKydqGspASpqTuwZs0qrPngfaSmZaK4cB/SUjLxwaq1yErNQEPdOcjdgVbIRmenHzIBQ+Yrdy+v4Z2KexK4JQQo5VuCnSftD4GrwxjSk5WhCD9g+QArCMjdeC4Q8oVwru48Skr3YdUH6zA7YT5i4+Px4cYtKC2pxLm6BtiR1hUpW44alw7K9Di5s68/heKxJGCIAKVsCCzDmiQgCxc5UE9TdWTfj3NFHCuyl3FkectL/YjEQ0nACAFK2QhWBiUBEiABPQKUsh435iIBEiABIwQoZSNYGZQESIAE9AhQynrcmIsESIAEjBCglI1gZVASIAES0CNAKetxYy4SIAESMEKAUjaClUFJgARIQI8ApazHjblIgARIwAgBStkIVgYlARIgAT0ClLIeN+YiARIgASMEKGUjWBmUBEiABPQIUMp63JiLBEiABIwQoJSNYGVQEiABEtAjQCnrcWMuEiABEjBCgFI2gpVBSYAESECPAKWsx425SIAESMAIAUrZCFYGJQESIAE9ApSyHjfmIgESIAEjBChlI1gZlARIgAT0CFDKetyYiwRIgASMEKCUjWBlUBIgARLQI0Ap63FjLhIgARIwQoBSNoKVQUmABEhAjwClrMeNuUiABEjACAFK2QhWBiUBEiABPQKUsh435iIBEiABIwQoZSNYGZQESIAE9AhQynrcmIsESIAEjBCglI1gZVASIAES0CNAKetxYy4SIAESMEKAUjaClUFJgARIQI8ApazHjblIgARIwAgBStkIVgYlARIgAT0ClLIeN+YiARIgASMEKGUjWBmUBEiABPQIUMp63JiLBEiABIwQoJSNYGVQEiABEtAjQCnrcWMuEiABEjBCgFI2gpVBSYAESECPAKWsx425SIAESMAIAUrZCFYGJQESIAE9ApSyHjfmIgESIAEjBChlI1gZlARIgAT0CFDKetyYiwRIgASMEKCUjWBlUBIgARLQI0Ap63FjLhIgARIwQoBSNoKVQUmABEhAjwClrMeNuUiABEjACAFK2QhWBiUBEiABPQKUsh435iIBEiABIwQoZSNYGZQESIAE9AhQynrcmIsESIAEjBCglI1gZVASIAES0CNAKetxYy4SIAESMEKAUjaClUFJgARIQI8ApazHjblIgARIwAgBStkIVgYlARIgAT0ClLIeN+YiARIgASMEKGUjWBmUBEiABPQIUMp63JiLBEiABIwQoJSNYGVQEiABEtAjQCnrcWMuEiABEjBCgFI2gpVBSYAESECPAKWsx425SIAESMAIAUrZCFYGJQESIAE9ApSyHjfmIgESIAEjBChlI1gZlARIgAT0CFDKetyYiwRIgASMEKCUjWBlUBIgARLQI0Ap63FjLhIgARIwQoBSNoKVQUmABEhAjwClrMeNuUiABEjACAFK2QhWBiUBEiABPQKUsh435iIBEiABIwQoZSNYGZQESIAE9AhQynrcmIsESIAEjBCglI1gZVASIAES0CNAKetxYy4SIAESMEKAUjaClUFJgARIQI8ApazHjblIgARIwAgBStkIVgYlARIgAT0ClLIeN+YiARIgASMEKGUjWBmUBEiABPQIUMp63JiLBEiABIwQoJSNYGVQEiABEtAjQCnrcWMuEiABEjBCgFI2gpVBSYAESECPAKWsx425SIAESMAIAUrZCFYGJQESIAE9ApSyHjfmIgESIAEjBChlI1gZlARIgAT0CFDKetyYiwRIgASMEKCUjWBlUBIgARLQI0Ap63FjLhIgARIwQoBSNoKVQUmABEhAjwClrMeNuUiABEjACAFK2QhWBiUBEiABPQKUsh435iIBEiABIwQoZSNYGZQESIAE9AhQynrcmIsESIAEjBCglI1gZVASIAES0CNAKetxYy4SIAESMEKAUjaClUFJgARIQI8ApazHjblIgARIwAgBStkIVgYlARIgAT0ClLIeN+YiARIgASMEKGUjWBmUBEiABPQIUMp63JiLBEiABIwQoJSNYGVQEiABEtAjQCnrcWMuEiABEjBCgFI2gpVBSYAESECPAKWsx425SIAESMAIAUrZCFYGJQESIAE9ApSyHjfmIgESIAEjBChlI1gZlARIgAT0CFDKetyYiwRIgASMEKCUjWBlUBIgARLQI0Ap63FjLhIgARIwQoBSNoKVQUmABEhAjwClrMeNuUiABEjACAFK2QhWBiUBEiABPQKUsh435iIBEiABIwQoZSNYGZQESIAE9AhQynrcmIsESIAEjBCglI1gZVASIAES0CNAKetxYy4SIAESMEKAUjaClUFJgARIQI8ApazHjblIgARIwAgBStkIVgYlARIgAT0ClLIeN+YiARIgASMEKGUjWBmUBEiABPQIUMp63JiLBEiABIwQoJSNYGVQEiABEtAjQCnrcWMuEiABEjBCgFI2gpVBSYAESECPAKWsx425SIAESMAIAUrZCFYGJQESIAE9ApSyHjfmIgESIAEjBChlI1gZlARIgAT0CFDKetyYiwRIgASMEKCUjWBlUBIgARLQI0Ap63FjLhIgARIwQoBSNoKVQUmABEhAjwClrMeNuUiABEjACAFK2QhWBiUBEiABPQKUsh435iIBEiABIwQoZSNYGZQESIAE9AhQynrcmIsESIAEjBCglI1gZVASIAES0CNAKetxYy4SIAESMEKAUjaClUFJgARIQI8ApazHjblIgARIwAgBStkIVgYlARIgAT0ClLIeN+YiARIgASMEKGUjWBmUBEiABPQIUMp63JiLBEiABIwQoJSNYGVQEiABEtAjQCnrcWMuEiABEjBCgFI2gpVBSYAESECPAKWsx425SIAESMAIAUrZCFYGJQESIAE9ApSyHjfmIgESIAEjBChlI1gZlARIgAT0CFDKetyYiwRIgASMEKCUjWBlUBIgARLQI0Ap63FjLhIgARIwQoBSNoKVQUmABEhAjwClrMeNuUiABEjACAFK2QhWBiUBEiABPQKUsh435iIBEiABIwQoZSNYGZQESIAE9Aj8fw7xrn80HbPVAAAAAElFTkSuQmCC;" parent="13hAKeCKC5Au7sBp5I-8-1" vertex="1">
                    <mxGeometry x="-770" y="680" width="357" height="719" as="geometry"/>
                </mxCell>
                <mxCell id="13hAKeCKC5Au7sBp5I-8-3" value="" style="html=1;dashed=0;whitespace=wrap;" parent="13hAKeCKC5Au7sBp5I-8-1" vertex="1">
                    <mxGeometry x="370" y="720" width="100" height="50" as="geometry"/>
                </mxCell>
                <mxCell id="13hAKeCKC5Au7sBp5I-8-4" value="&lt;p style=&quot;margin:0px;margin-top:4px;text-align:center;&quot;&gt;&lt;b&gt;ActivityName&lt;/b&gt;&lt;hr/&gt;&lt;/p&gt;&lt;p style=&quot;font-size:10px;margin:0px;text-align:center;&quot;&gt;&lt;i&gt;allocatedTo&lt;/i&gt;&lt;/p&gt;&lt;p style=&quot;margin:0px;margin-left:8px;text-align:left;&quot;&gt;&amp;lt;&amp;lt;elementType&amp;gt;&amp;gt; ElementName&lt;/p&gt;" style="html=1;shape=mxgraph.sysml.simpleState;html=1;overflow=fill;whiteSpace=wrap;align=center;" parent="13hAKeCKC5Au7sBp5I-8-1" vertex="1">
                    <mxGeometry x="320" y="690" width="200" height="100" as="geometry"/>
                </mxCell>
            </root>
        </mxGraphModel>
    </diagram>
</mxfile>